<svg width="60" height="24" viewBox="0 0 60 24" fill="none" xmlns="http://www.w3.org/2000/svg">
<path d="M0 10C0 4.47715 4.47715 0 10 0H50C55.5228 0 60 4.47715 60 10V14C60 19.5228 55.5228 24 50 24H10C4.47715 24 0 19.5228 0 14V10Z" fill="#605F5F"/>
<path d="M19.5146 16.216C19.6359 16.244 19.6966 16.3187 19.6966 16.44V17H16.8126V16.44C16.8126 16.3187 16.8779 16.244 17.0086 16.216L17.5826 16.048L16.7986 14.032H12.4726L11.6886 16.048L12.2626 16.216C12.3839 16.244 12.4446 16.3187 12.4446 16.44V17H9.57461V16.44C9.57461 16.3187 9.63528 16.244 9.75661 16.216L10.3166 16.048L13.9566 6.976H15.3286L18.9546 16.048L19.5146 16.216ZM14.9366 9.202C14.8619 9.01533 14.7593 8.698 14.6286 8.25C14.5166 8.67933 14.4233 8.99667 14.3486 9.202L12.8506 13.052H16.4206L14.9366 9.202Z" fill="white"/>
<path d="M25.1143 16.02C26.0289 16.02 26.8549 15.824 27.5923 15.432V13.22H26.0383C25.945 13.22 25.8703 13.192 25.8143 13.136C25.7583 13.08 25.7303 13.0193 25.7303 12.954V12.184H28.8103V16.034C27.8116 16.7527 26.5423 17.112 25.0023 17.112C23.5369 17.112 22.3469 16.6407 21.4323 15.698C20.5083 14.746 20.0463 13.5093 20.0463 11.988C20.0463 10.4387 20.5036 9.20667 21.4183 8.292C22.3609 7.34 23.6116 6.864 25.1703 6.864C26.2343 6.864 27.4149 7.10667 28.7123 7.592V9.916H28.0403C27.8723 9.916 27.7743 9.84133 27.7463 9.692C27.7463 9.64533 27.7323 9.52867 27.7043 9.342C27.6856 9.15533 27.6623 8.84733 27.6343 8.418C27.3356 8.32467 27.1629 8.27333 27.1163 8.264C26.5469 8.11467 25.9449 8.04 25.3103 8.04C24.6289 8.04 24.0596 8.13333 23.6023 8.32C23.1543 8.50667 22.7669 8.768 22.4403 9.104C21.7776 9.804 21.4463 10.7653 21.4463 11.988C21.4463 13.248 21.7869 14.2373 22.4683 14.956C23.1496 15.6653 24.0316 16.02 25.1143 16.02Z" fill="white"/>
<path d="M32.1366 15.978L32.9906 16.146C33.1026 16.174 33.1586 16.258 33.1586 16.398V17H29.7846V16.398C29.7846 16.2487 29.8499 16.16 29.9806 16.132L30.7926 15.978V7.984L29.9526 7.816C29.8406 7.788 29.7846 7.704 29.7846 7.564V6.976H33.1586V7.564C33.1586 7.71333 33.0886 7.802 32.9486 7.83L32.1366 7.984V15.978Z" fill="white"/>
<path d="M34.0502 17V16.398C34.0502 16.3327 34.0689 16.2767 34.1062 16.23C34.1436 16.174 34.1949 16.1413 34.2602 16.132L35.0582 15.978V7.984L34.2602 7.83C34.1949 7.82067 34.1436 7.79267 34.1062 7.746C34.0689 7.69 34.0502 7.62933 34.0502 7.564V6.976H37.4102V7.564C37.4102 7.62933 37.3916 7.69 37.3542 7.746C37.3169 7.79267 37.2656 7.82067 37.2002 7.83L36.4022 7.984V15.852H40.0142C40.0422 15.4227 40.0702 15.1567 40.0982 15.054C40.1076 14.9887 40.1402 14.9327 40.1962 14.886C40.2522 14.8393 40.3176 14.816 40.3922 14.816H41.0782V17H34.0502Z" fill="white"/>
<path d="M49.2306 9.398H48.5586C48.3906 9.398 48.2926 9.31867 48.2646 9.16L48.1666 8.082H44.4146V11.414H48.1106V12.478H44.4146V15.908H48.1666L48.2506 14.9C48.2786 14.7507 48.3813 14.676 48.5586 14.676H49.2306V17H42.0346V16.412C42.0346 16.2627 42.1046 16.174 42.2446 16.146L43.0426 15.992V7.998C42.5946 7.914 42.3286 7.858 42.2446 7.83C42.1046 7.802 42.0346 7.71333 42.0346 7.564V6.976H49.2306V9.398Z" fill="white"/>
</svg>
