<svg width="60" height="24" viewBox="0 0 60 24" fill="none" xmlns="http://www.w3.org/2000/svg">
<path d="M0 10C0 4.47715 4.47715 0 10 0H50C55.5228 0 60 4.47715 60 10V14C60 19.5228 55.5228 24 50 24H10C4.47715 24 0 19.5228 0 14V10Z" fill="#605F5F"/>
<path d="M28.6142 16.216C28.7356 16.244 28.7962 16.3187 28.7962 16.44V17H25.9122V16.44C25.9122 16.3187 25.9776 16.244 26.1082 16.216L26.6822 16.048L25.8982 14.032H21.5722L20.7882 16.048L21.3622 16.216C21.4836 16.244 21.5442 16.3187 21.5442 16.44V17H18.6742V16.44C18.6742 16.3187 18.7349 16.244 18.8562 16.216L19.4162 16.048L23.0562 6.976H24.4282L28.0542 16.048L28.6142 16.216ZM24.0362 9.202C23.9616 9.01533 23.8589 8.698 23.7282 8.25C23.6162 8.67933 23.5229 8.99667 23.4482 9.202L21.9502 13.052H25.5202L24.0362 9.202Z" fill="white"/>
<path d="M35.0467 7.172C36.428 7.62 37.1187 8.59067 37.1187 10.084C37.1187 11.0453 36.8013 11.8013 36.1667 12.352C35.4853 12.9493 34.5613 13.248 33.3947 13.248H31.9667V15.978C32.0413 16.006 32.312 16.062 32.7787 16.146C32.9093 16.174 32.9747 16.2627 32.9747 16.412V17H29.6147V16.412C29.6147 16.2627 29.6847 16.174 29.8247 16.146L30.6227 15.992V7.998C30.1747 7.914 29.9087 7.858 29.8247 7.83C29.6847 7.802 29.6147 7.71333 29.6147 7.564V6.976H33.3947C34.02 6.976 34.5707 7.046 35.0467 7.186V7.172ZM35.7607 10.056C35.7607 9.43067 35.5647 8.936 35.1727 8.572C34.79 8.21733 34.1973 8.04 33.3947 8.04H31.9667V12.156H33.3947C34.1507 12.156 34.734 11.9693 35.1447 11.596C35.5647 11.2133 35.7747 10.7047 35.7747 10.07L35.7607 10.056Z" fill="white"/>
<path d="M40.2382 15.978L41.0922 16.146C41.2042 16.174 41.2602 16.258 41.2602 16.398V17H37.8862V16.398C37.8862 16.2487 37.9515 16.16 38.0822 16.132L38.8942 15.978V7.984L38.0542 7.816C37.9422 7.788 37.8862 7.704 37.8862 7.564V6.976H41.2602V7.564C41.2602 7.71333 41.1902 7.802 41.0502 7.83L40.2382 7.984V15.978Z" fill="white"/>
</svg>
