<svg width="120" height="24" viewBox="0 0 120 24" fill="none" xmlns="http://www.w3.org/2000/svg">
<path d="M0 10C0 4.47715 4.47715 0 10 0H110C115.523 0 120 4.47715 120 10V14C120 19.5228 115.523 24 110 24H10C4.47715 24 0 19.5228 0 14V10Z" fill="#605F5F"/>
<path d="M22.677 9.916H22.005C21.8277 9.916 21.725 9.832 21.697 9.664L21.585 8.404C20.801 8.152 20.0964 8.026 19.471 8.026C18.4164 8.026 17.5484 8.38067 16.867 9.09C16.1857 9.82733 15.845 10.7933 15.845 11.988C15.845 12.7627 15.985 13.4487 16.265 14.046C16.5544 14.6433 16.9604 15.11 17.483 15.446C18.015 15.7727 18.631 15.936 19.331 15.936C19.8724 15.936 20.3437 15.8707 20.745 15.74C21.1557 15.6 21.5384 15.3667 21.893 15.04C21.977 14.9653 22.061 14.928 22.145 14.928C22.2197 14.928 22.285 14.956 22.341 15.012L22.873 15.6C22.005 16.608 20.801 17.112 19.261 17.112C18.2904 17.112 17.441 16.8927 16.713 16.454C15.9944 16.006 15.439 15.3947 15.047 14.62C14.6644 13.8453 14.473 12.968 14.473 11.988C14.473 10.4853 14.9397 9.25333 15.873 8.292C16.797 7.34 18.0617 6.864 19.667 6.864C20.4137 6.864 21.417 7.09733 22.677 7.564V9.916Z" fill="white"/>
<path d="M31.8298 16.132C31.8951 16.1507 31.9464 16.1833 31.9838 16.23C32.0211 16.2673 32.0398 16.3187 32.0398 16.384V17H30.5838C30.3411 17 30.1638 16.902 30.0518 16.706L27.4478 13.122C27.3824 13.0287 27.2984 12.9493 27.1958 12.884C27.1118 12.828 26.9718 12.8 26.7758 12.8H25.8798V15.964L26.6638 16.132C26.7291 16.1507 26.7804 16.1833 26.8178 16.23C26.8644 16.2673 26.8878 16.3187 26.8878 16.384V16.986H23.5138V16.384C23.5138 16.3187 23.5324 16.2673 23.5698 16.23C23.6071 16.1833 23.6584 16.1507 23.7238 16.132L24.5358 15.964V7.984L23.7238 7.816C23.6584 7.79733 23.6071 7.76933 23.5698 7.732C23.5324 7.68533 23.5138 7.62933 23.5138 7.564V6.948H27.2238C27.8491 6.948 28.3998 7.01333 28.8758 7.144C29.3424 7.27467 29.7251 7.46133 30.0238 7.704C30.3318 7.956 30.5558 8.25 30.6958 8.586C30.8358 8.922 30.9058 9.30933 30.9058 9.748C30.9058 10.0933 30.8498 10.42 30.7378 10.728C30.6258 11.0267 30.4624 11.3067 30.2478 11.568C30.0331 11.8293 29.7764 12.0393 29.4778 12.198C29.1044 12.4033 28.7591 12.5387 28.4418 12.604C28.6098 12.7067 28.7591 12.8467 28.8898 13.024L31.0598 15.992C31.5078 16.0667 31.7691 16.1133 31.8438 16.132H31.8298ZM27.1398 11.82C27.5504 11.82 27.9004 11.7733 28.1898 11.68C28.4698 11.5867 28.7218 11.4467 28.9458 11.26C29.1511 11.0827 29.3051 10.8773 29.4078 10.644C29.5104 10.4107 29.5618 10.14 29.5618 9.832C29.5618 9.244 29.3658 8.796 28.9738 8.488C28.5911 8.18933 28.0078 8.04 27.2238 8.04H25.8658V11.82H27.1398Z" fill="white"/>
<path d="M40.089 9.398H39.417C39.249 9.398 39.151 9.31867 39.123 9.16L39.025 8.082H35.273V11.414H38.969V12.478H35.273V15.908H39.025L39.109 14.9C39.137 14.7507 39.2397 14.676 39.417 14.676H40.089V17H32.893V16.412C32.893 16.2627 32.963 16.174 33.103 16.146L33.901 15.992V7.998C33.453 7.914 33.187 7.858 33.103 7.83C32.963 7.802 32.893 7.71333 32.893 7.564V6.976H40.089V9.398Z" fill="white"/>
<path d="M45.8698 11.694C46.8778 12.142 47.3818 12.8933 47.3818 13.948C47.3818 14.872 47.0925 15.6233 46.5138 16.202C45.9071 16.8087 45.0765 17.112 44.0218 17.112C43.5831 17.112 43.1258 17.07 42.6498 16.986C42.2765 16.9207 41.9031 16.832 41.5298 16.72L41.1238 16.58V14.06H41.8098C41.9685 14.06 42.0618 14.1393 42.0898 14.298C42.1085 14.3727 42.1318 14.6013 42.1598 14.984L42.2018 15.6C42.9298 15.8613 43.4991 15.992 43.9098 15.992C44.3205 15.992 44.6658 15.9453 44.9458 15.852C45.2165 15.768 45.4311 15.642 45.5898 15.474C45.9445 15.1473 46.1218 14.704 46.1218 14.144C46.1218 13.6027 45.8698 13.192 45.3658 12.912C45.1418 12.772 44.8898 12.66 44.6098 12.576C43.6111 12.268 43.0231 12.072 42.8458 11.988C42.5751 11.8667 42.3185 11.6987 42.0758 11.484C41.5811 11.0453 41.3338 10.42 41.3338 9.608C41.3338 8.87067 41.5998 8.236 42.1318 7.704C42.7105 7.144 43.4571 6.864 44.3718 6.864C45.3425 6.864 46.2805 7.05067 47.1858 7.424V9.734H46.5138C46.3458 9.734 46.2478 9.65467 46.2198 9.496C46.2198 9.468 46.2105 9.37467 46.1918 9.216C46.1825 9.048 46.1591 8.726 46.1218 8.25C45.4685 8.07267 44.9178 7.984 44.4698 7.984C43.8631 7.984 43.3965 8.13333 43.0698 8.432C42.7525 8.72133 42.5938 9.09467 42.5938 9.552C42.5938 10.0467 42.8458 10.434 43.3498 10.714C43.5551 10.8447 43.8165 10.9613 44.1338 11.064C44.9738 11.344 45.5618 11.554 45.8978 11.694H45.8698Z" fill="white"/>
<path d="M56.2278 9.916H55.5558C55.3785 9.916 55.2758 9.832 55.2478 9.664L55.1358 8.404C54.3518 8.152 53.6472 8.026 53.0218 8.026C51.9672 8.026 51.0992 8.38067 50.4178 9.09C49.7365 9.82733 49.3958 10.7933 49.3958 11.988C49.3958 12.7627 49.5358 13.4487 49.8158 14.046C50.1052 14.6433 50.5112 15.11 51.0338 15.446C51.5658 15.7727 52.1818 15.936 52.8818 15.936C53.4232 15.936 53.8945 15.8707 54.2958 15.74C54.7065 15.6 55.0892 15.3667 55.4438 15.04C55.5278 14.9653 55.6118 14.928 55.6958 14.928C55.7705 14.928 55.8358 14.956 55.8918 15.012L56.4238 15.6C55.5558 16.608 54.3518 17.112 52.8118 17.112C51.8412 17.112 50.9918 16.8927 50.2638 16.454C49.5452 16.006 48.9898 15.3947 48.5978 14.62C48.2152 13.8453 48.0238 12.968 48.0238 11.988C48.0238 10.4853 48.4905 9.25333 49.4238 8.292C50.3478 7.34 51.6125 6.864 53.2178 6.864C53.9645 6.864 54.9678 7.09733 56.2278 7.564V9.916Z" fill="white"/>
<path d="M66.7945 12.016C66.7945 13.0147 66.5845 13.906 66.1645 14.69C65.7445 15.4647 65.1612 16.0667 64.4145 16.496C63.6679 16.9253 62.8185 17.14 61.8665 17.14C60.9052 17.14 60.0465 16.9207 59.2905 16.482C58.5345 16.0433 57.9465 15.4367 57.5265 14.662C57.1159 13.878 56.9105 12.9913 56.9105 12.002C56.9105 11.0127 57.1159 10.1307 57.5265 9.356C57.9465 8.572 58.5299 7.96067 59.2765 7.522C60.0325 7.08333 60.8959 6.864 61.8665 6.864C62.8372 6.864 63.6959 7.08333 64.4425 7.522C65.1892 7.95133 65.7679 8.55333 66.1785 9.328C66.5985 10.1027 66.8085 10.9893 66.8085 11.988L66.7945 12.016ZM65.3945 12.016C65.3945 10.812 65.0819 9.85533 64.4565 9.146C63.8405 8.42733 62.9679 8.068 61.8385 8.068C61.0825 8.068 60.4385 8.236 59.9065 8.572C59.3745 8.908 58.9685 9.37467 58.6885 9.972C58.4179 10.5693 58.2825 11.2507 58.2825 12.016C58.2825 12.8093 58.4272 13.5047 58.7165 14.102C59.0059 14.69 59.4165 15.1473 59.9485 15.474C60.4899 15.8007 61.1245 15.964 61.8525 15.964C62.5899 15.964 63.2245 15.8007 63.7565 15.474C64.2885 15.138 64.6945 14.6713 64.9745 14.074C65.2639 13.4767 65.4085 12.7907 65.4085 12.016H65.3945Z" fill="white"/>
<path d="M77.2092 11.988C77.2092 12.9773 77.0039 13.85 76.5932 14.606C76.1826 15.362 75.6039 15.95 74.8572 16.37C74.1106 16.79 73.2472 17 72.2672 17H67.6332V16.412C67.6332 16.2627 67.7079 16.174 67.8572 16.146L68.6412 15.992V7.998L67.8572 7.83C67.7079 7.802 67.6332 7.71333 67.6332 7.564V6.976H72.2672C73.2659 6.976 74.1386 7.19067 74.8852 7.62C75.6319 8.04 76.2059 8.628 76.6072 9.384C77.0086 10.14 77.2092 11.008 77.2092 11.988ZM75.8092 11.988C75.8092 10.7933 75.5012 9.84133 74.8852 9.132C74.2692 8.42267 73.3966 8.068 72.2672 8.068H70.0132V15.908H72.2672C73.3872 15.908 74.2552 15.558 74.8712 14.858C75.4966 14.158 75.8092 13.2013 75.8092 11.988Z" fill="white"/>
<path d="M87.5507 16.216C87.6721 16.244 87.7327 16.3187 87.7327 16.44V17H84.8487V16.44C84.8487 16.3187 84.9141 16.244 85.0447 16.216L85.6187 16.048L84.8347 14.032H80.5087L79.7247 16.048L80.2987 16.216C80.4201 16.244 80.4807 16.3187 80.4807 16.44V17H77.6107V16.44C77.6107 16.3187 77.6714 16.244 77.7927 16.216L78.3527 16.048L81.9927 6.976H83.3647L86.9907 16.048L87.5507 16.216ZM82.9727 9.202C82.8981 9.01533 82.7954 8.698 82.6647 8.25C82.5527 8.67933 82.4594 8.99667 82.3847 9.202L80.8867 13.052H84.4567L82.9727 9.202Z" fill="white"/>
<path d="M95.7135 9.188H95.0275C94.8782 9.188 94.7895 9.14133 94.7615 9.048C94.7148 8.88933 94.6682 8.58133 94.6215 8.124H92.2695V15.992L92.4375 16.02C92.8668 16.104 93.1002 16.1507 93.1375 16.16C93.2308 16.188 93.2775 16.272 93.2775 16.412V17H89.8895V16.412C89.8895 16.3373 89.9082 16.2767 89.9455 16.23C89.9922 16.174 90.0528 16.1413 90.1275 16.132L90.8975 15.978V8.11H88.5315C88.4755 8.63267 88.4335 8.94533 88.4055 9.048C88.3775 9.14133 88.2842 9.188 88.1255 9.188H87.4535V6.976H95.7135V9.188Z" fill="white"/>
<path d="M105.311 16.216C105.432 16.244 105.493 16.3187 105.493 16.44V17H102.609V16.44C102.609 16.3187 102.674 16.244 102.805 16.216L103.379 16.048L102.595 14.032H98.2685L97.4845 16.048L98.0585 16.216C98.1798 16.244 98.2405 16.3187 98.2405 16.44V17H95.3705V16.44C95.3705 16.3187 95.4312 16.244 95.5525 16.216L96.1125 16.048L99.7525 6.976H101.125L104.751 16.048L105.311 16.216ZM100.733 9.202C100.658 9.01533 100.555 8.698 100.425 8.25C100.313 8.67933 100.219 8.99667 100.145 9.202L98.6465 13.052H102.217L100.733 9.202Z" fill="white"/>
</svg>
