<svg width="250" height="48" viewBox="0 0 250 48" fill="none" xmlns="http://www.w3.org/2000/svg">
<path d="M0 10C0 4.47715 4.47715 0 10 0H240C245.523 0 250 4.47715 250 10V38C250 43.5228 245.523 48 240 48H10C4.47716 48 0 43.5228 0 38V10Z" fill="#605F5F"/>
<path d="M19.2775 29.398H18.6055C18.4375 29.398 18.3395 29.3187 18.3115 29.16L18.2135 28.082H14.4615V31.414H18.1575V32.478H14.4615V35.908H18.2135L18.2975 34.9C18.3255 34.7507 18.4281 34.676 18.6055 34.676H19.2775V37H12.0815V36.412C12.0815 36.2627 12.1515 36.174 12.2915 36.146L13.0895 35.992V27.998C12.6415 27.914 12.3755 27.858 12.2915 27.83C12.1515 27.802 12.0815 27.7133 12.0815 27.564V26.976H19.2775V29.398Z" fill="white"/>
<path d="M28.3343 29.916H27.6623C27.4849 29.916 27.3823 29.832 27.3543 29.664L27.2423 28.404C26.4583 28.152 25.7536 28.026 25.1283 28.026C24.0736 28.026 23.2056 28.3807 22.5243 29.09C21.8429 29.8273 21.5023 30.7933 21.5023 31.988C21.5023 32.7627 21.6423 33.4487 21.9223 34.046C22.2116 34.6433 22.6176 35.11 23.1403 35.446C23.6723 35.7727 24.2883 35.936 24.9883 35.936C25.5296 35.936 26.0009 35.8707 26.4023 35.74C26.8129 35.6 27.1956 35.3667 27.5503 35.04C27.6343 34.9653 27.7183 34.928 27.8023 34.928C27.8769 34.928 27.9423 34.956 27.9983 35.012L28.5303 35.6C27.6623 36.608 26.4583 37.112 24.9183 37.112C23.9476 37.112 23.0983 36.8927 22.3703 36.454C21.6516 36.006 21.0963 35.3947 20.7043 34.62C20.3216 33.8453 20.1303 32.968 20.1303 31.988C20.1303 30.4853 20.5969 29.2533 21.5303 28.292C22.4543 27.34 23.7189 26.864 25.3243 26.864C26.0709 26.864 27.0743 27.0973 28.3343 27.564V29.916Z" fill="white"/>
<path d="M38.901 32.016C38.901 33.0147 38.691 33.906 38.271 34.69C37.851 35.4647 37.2677 36.0667 36.521 36.496C35.7743 36.9253 34.925 37.14 33.973 37.14C33.0117 37.14 32.153 36.9207 31.397 36.482C30.641 36.0433 30.053 35.4367 29.633 34.662C29.2223 33.878 29.017 32.9913 29.017 32.002C29.017 31.0127 29.2223 30.1307 29.633 29.356C30.053 28.572 30.6363 27.9607 31.383 27.522C32.139 27.0833 33.0023 26.864 33.973 26.864C34.9437 26.864 35.8023 27.0833 36.549 27.522C37.2957 27.9513 37.8743 28.5533 38.285 29.328C38.705 30.1027 38.915 30.9893 38.915 31.988L38.901 32.016ZM37.501 32.016C37.501 30.812 37.1883 29.8553 36.563 29.146C35.947 28.4273 35.0743 28.068 33.945 28.068C33.189 28.068 32.545 28.236 32.013 28.572C31.481 28.908 31.075 29.3747 30.795 29.972C30.5243 30.5693 30.389 31.2507 30.389 32.016C30.389 32.8093 30.5337 33.5047 30.823 34.102C31.1123 34.69 31.523 35.1473 32.055 35.474C32.5963 35.8007 33.231 35.964 33.959 35.964C34.6963 35.964 35.331 35.8007 35.863 35.474C36.395 35.138 36.801 34.6713 37.081 34.074C37.3703 33.4767 37.515 32.7907 37.515 32.016H37.501Z" fill="white"/>
<path d="M51.1777 27.984V35.964C51.6257 36.048 51.8917 36.104 51.9757 36.132C52.125 36.16 52.1997 36.244 52.1997 36.384V37H48.8397V36.384C48.8397 36.244 48.9097 36.16 49.0497 36.132L49.9877 35.964V29.622C49.9877 29.3327 49.997 29.1133 50.0157 28.964L46.5717 35.236C46.4597 35.4507 46.301 35.558 46.0957 35.558H45.8997C45.6757 35.558 45.5077 35.4507 45.3957 35.236L41.9097 28.978C41.9377 29.2113 41.9517 29.4213 41.9517 29.608V35.964L42.9037 36.132C43.025 36.16 43.0857 36.244 43.0857 36.384V37H39.7397V36.384C39.7397 36.244 39.8143 36.16 39.9637 36.132L40.7477 35.964V27.984C40.3183 27.9 40.057 27.844 39.9637 27.816C39.8143 27.788 39.7397 27.704 39.7397 27.564V26.948H41.7557C41.8863 26.948 41.9797 26.962 42.0357 26.99C42.1197 27.0273 42.1803 27.088 42.2177 27.172L45.6757 33.36C45.7597 33.5093 45.867 33.752 45.9977 34.088C46.0723 33.8733 46.1797 33.626 46.3197 33.346L49.7077 27.172C49.745 27.0973 49.8103 27.0367 49.9037 26.99C49.9597 26.962 50.053 26.948 50.1837 26.948H52.1997V27.564C52.1997 27.704 52.125 27.788 51.9757 27.816L51.1777 27.984Z" fill="white"/>
<path d="M64.5351 27.984V35.964C64.9831 36.048 65.2491 36.104 65.3331 36.132C65.4824 36.16 65.5571 36.244 65.5571 36.384V37H62.1971V36.384C62.1971 36.244 62.2671 36.16 62.4071 36.132L63.3451 35.964V29.622C63.3451 29.3327 63.3544 29.1133 63.3731 28.964L59.9291 35.236C59.8171 35.4507 59.6584 35.558 59.4531 35.558H59.2571C59.0331 35.558 58.8651 35.4507 58.7531 35.236L55.2671 28.978C55.2951 29.2113 55.3091 29.4213 55.3091 29.608V35.964L56.2611 36.132C56.3824 36.16 56.4431 36.244 56.4431 36.384V37H53.0971V36.384C53.0971 36.244 53.1718 36.16 53.3211 36.132L54.1051 35.964V27.984C53.6758 27.9 53.4144 27.844 53.3211 27.816C53.1718 27.788 53.0971 27.704 53.0971 27.564V26.948H55.1131C55.2438 26.948 55.3371 26.962 55.3931 26.99C55.4771 27.0273 55.5378 27.088 55.5751 27.172L59.0331 33.36C59.1171 33.5093 59.2244 33.752 59.3551 34.088C59.4298 33.8733 59.5371 33.626 59.6771 33.346L63.0651 27.172C63.1024 27.0973 63.1678 27.0367 63.2611 26.99C63.3171 26.962 63.4104 26.948 63.5411 26.948H65.5571V27.564C65.5571 27.704 65.4824 27.788 65.3331 27.816L64.5351 27.984Z" fill="white"/>
<path d="M73.6505 29.398H72.9785C72.8105 29.398 72.7125 29.3187 72.6845 29.16L72.5865 28.082H68.8345V31.414H72.5305V32.478H68.8345V35.908H72.5865L72.6705 34.9C72.6985 34.7507 72.8012 34.676 72.9785 34.676H73.6505V37H66.4545V36.412C66.4545 36.2627 66.5245 36.174 66.6645 36.146L67.4625 35.992V27.998C67.0145 27.914 66.7485 27.858 66.6645 27.83C66.5245 27.802 66.4545 27.7133 66.4545 27.564V26.976H73.6505V29.398Z" fill="white"/>
<path d="M82.9733 36.132C83.0386 36.1507 83.09 36.1833 83.1273 36.23C83.1646 36.2673 83.1833 36.3187 83.1833 36.384V37H81.7273C81.4846 37 81.3073 36.902 81.1953 36.706L78.5913 33.122C78.526 33.0287 78.442 32.9493 78.3393 32.884C78.2553 32.828 78.1153 32.8 77.9193 32.8H77.0233V35.964L77.8073 36.132C77.8726 36.1507 77.924 36.1833 77.9613 36.23C78.008 36.2673 78.0313 36.3187 78.0313 36.384V36.986H74.6573V36.384C74.6573 36.3187 74.676 36.2673 74.7133 36.23C74.7506 36.1833 74.802 36.1507 74.8673 36.132L75.6793 35.964V27.984L74.8673 27.816C74.802 27.7973 74.7506 27.7693 74.7133 27.732C74.676 27.6853 74.6573 27.6293 74.6573 27.564V26.948H78.3673C78.9926 26.948 79.5433 27.0133 80.0193 27.144C80.486 27.2747 80.8686 27.4613 81.1673 27.704C81.4753 27.956 81.6993 28.25 81.8393 28.586C81.9793 28.922 82.0493 29.3093 82.0493 29.748C82.0493 30.0933 81.9933 30.42 81.8813 30.728C81.7693 31.0267 81.606 31.3067 81.3913 31.568C81.1766 31.8293 80.92 32.0393 80.6213 32.198C80.248 32.4033 79.9026 32.5387 79.5853 32.604C79.7533 32.7067 79.9026 32.8467 80.0333 33.024L82.2033 35.992C82.6513 36.0667 82.9126 36.1133 82.9873 36.132H82.9733ZM78.2833 31.82C78.694 31.82 79.044 31.7733 79.3333 31.68C79.6133 31.5867 79.8653 31.4467 80.0893 31.26C80.2946 31.0827 80.4486 30.8773 80.5513 30.644C80.654 30.4107 80.7053 30.14 80.7053 29.832C80.7053 29.244 80.5093 28.796 80.1173 28.488C79.7346 28.1893 79.1513 28.04 78.3673 28.04H77.0093V31.82H78.2833Z" fill="white"/>
<path d="M91.7444 29.916H91.0724C90.8951 29.916 90.7924 29.832 90.7644 29.664L90.6524 28.404C89.8684 28.152 89.1638 28.026 88.5384 28.026C87.4838 28.026 86.6158 28.3807 85.9344 29.09C85.2531 29.8273 84.9124 30.7933 84.9124 31.988C84.9124 32.7627 85.0524 33.4487 85.3324 34.046C85.6218 34.6433 86.0278 35.11 86.5504 35.446C87.0824 35.7727 87.6984 35.936 88.3984 35.936C88.9398 35.936 89.4111 35.8707 89.8124 35.74C90.2231 35.6 90.6058 35.3667 90.9604 35.04C91.0444 34.9653 91.1284 34.928 91.2124 34.928C91.2871 34.928 91.3524 34.956 91.4084 35.012L91.9404 35.6C91.0724 36.608 89.8684 37.112 88.3284 37.112C87.3578 37.112 86.5084 36.8927 85.7804 36.454C85.0618 36.006 84.5064 35.3947 84.1144 34.62C83.7318 33.8453 83.5404 32.968 83.5404 31.988C83.5404 30.4853 84.0071 29.2533 84.9404 28.292C85.8644 27.34 87.1291 26.864 88.7344 26.864C89.4811 26.864 90.4844 27.0973 91.7444 27.564V29.916Z" fill="white"/>
<path d="M99.7911 29.398H99.1191C98.9511 29.398 98.8531 29.3187 98.8251 29.16L98.7271 28.082H94.9751V31.414H98.6711V32.478H94.9751V35.908H98.7271L98.8111 34.9C98.8391 34.7507 98.9418 34.676 99.1191 34.676H99.7911V37H92.5951V36.412C92.5951 36.2627 92.6651 36.174 92.8051 36.146L93.6031 35.992V27.998C93.1551 27.914 92.8891 27.858 92.8051 27.83C92.6651 27.802 92.5951 27.7133 92.5951 27.564V26.976H99.7911V29.398Z" fill="white"/>
<path d="M109.252 27.172C110.633 27.62 111.324 28.5907 111.324 30.084C111.324 31.0453 111.006 31.8013 110.372 32.352C109.69 32.9493 108.766 33.248 107.6 33.248H106.172V35.978C106.246 36.006 106.517 36.062 106.984 36.146C107.114 36.174 107.18 36.2627 107.18 36.412V37H103.82V36.412C103.82 36.2627 103.89 36.174 104.03 36.146L104.828 35.992V27.998C104.38 27.914 104.114 27.858 104.03 27.83C103.89 27.802 103.82 27.7133 103.82 27.564V26.976H107.6C108.225 26.976 108.776 27.046 109.252 27.186V27.172ZM109.966 30.056C109.966 29.4307 109.77 28.936 109.378 28.572C108.995 28.2173 108.402 28.04 107.6 28.04H106.172V32.156H107.6C108.356 32.156 108.939 31.9693 109.35 31.596C109.77 31.2133 109.98 30.7047 109.98 30.07L109.966 30.056Z" fill="white"/>
<path d="M120.393 36.132C120.459 36.1507 120.51 36.1833 120.547 36.23C120.585 36.2673 120.603 36.3187 120.603 36.384V37H119.147C118.905 37 118.727 36.902 118.615 36.706L116.011 33.122C115.946 33.0287 115.862 32.9493 115.759 32.884C115.675 32.828 115.535 32.8 115.339 32.8H114.443V35.964L115.227 36.132C115.293 36.1507 115.344 36.1833 115.381 36.23C115.428 36.2673 115.451 36.3187 115.451 36.384V36.986H112.077V36.384C112.077 36.3187 112.096 36.2673 112.133 36.23C112.171 36.1833 112.222 36.1507 112.287 36.132L113.099 35.964V27.984L112.287 27.816C112.222 27.7973 112.171 27.7693 112.133 27.732C112.096 27.6853 112.077 27.6293 112.077 27.564V26.948H115.787C116.413 26.948 116.963 27.0133 117.439 27.144C117.906 27.2747 118.289 27.4613 118.587 27.704C118.895 27.956 119.119 28.25 119.259 28.586C119.399 28.922 119.469 29.3093 119.469 29.748C119.469 30.0933 119.413 30.42 119.301 30.728C119.189 31.0267 119.026 31.3067 118.811 31.568C118.597 31.8293 118.34 32.0393 118.041 32.198C117.668 32.4033 117.323 32.5387 117.005 32.604C117.173 32.7067 117.323 32.8467 117.453 33.024L119.623 35.992C120.071 36.0667 120.333 36.1133 120.407 36.132H120.393ZM115.703 31.82C116.114 31.82 116.464 31.7733 116.753 31.68C117.033 31.5867 117.285 31.4467 117.509 31.26C117.715 31.0827 117.869 30.8773 117.971 30.644C118.074 30.4107 118.125 30.14 118.125 29.832C118.125 29.244 117.929 28.796 117.537 28.488C117.155 28.1893 116.571 28.04 115.787 28.04H114.429V31.82H115.703Z" fill="white"/>
<path d="M130.667 32.016C130.667 33.0147 130.457 33.906 130.037 34.69C129.617 35.4647 129.033 36.0667 128.287 36.496C127.54 36.9253 126.691 37.14 125.739 37.14C124.777 37.14 123.919 36.9207 123.163 36.482C122.407 36.0433 121.819 35.4367 121.399 34.662C120.988 33.878 120.783 32.9913 120.783 32.002C120.783 31.0127 120.988 30.1307 121.399 29.356C121.819 28.572 122.402 27.9607 123.149 27.522C123.905 27.0833 124.768 26.864 125.739 26.864C126.709 26.864 127.568 27.0833 128.315 27.522C129.061 27.9513 129.64 28.5533 130.051 29.328C130.471 30.1027 130.681 30.9893 130.681 31.988L130.667 32.016ZM129.267 32.016C129.267 30.812 128.954 29.8553 128.329 29.146C127.713 28.4273 126.84 28.068 125.711 28.068C124.955 28.068 124.311 28.236 123.779 28.572C123.247 28.908 122.841 29.3747 122.561 29.972C122.29 30.5693 122.155 31.2507 122.155 32.016C122.155 32.8093 122.299 33.5047 122.589 34.102C122.878 34.69 123.289 35.1473 123.821 35.474C124.362 35.8007 124.997 35.964 125.725 35.964C126.462 35.964 127.097 35.8007 127.629 35.474C128.161 35.138 128.567 34.6713 128.847 34.074C129.136 33.4767 129.281 32.7907 129.281 32.016H129.267Z" fill="white"/>
<path d="M132.422 35.992C133.719 35.992 134.368 35.1847 134.368 33.57V27.998C133.817 27.914 133.504 27.858 133.43 27.83C133.299 27.802 133.234 27.7133 133.234 27.564V26.976H136.734V27.564C136.734 27.7133 136.659 27.802 136.51 27.83L135.726 27.984V33.528C135.726 35.2453 135.119 36.356 133.906 36.86C133.514 37.028 133.08 37.112 132.604 37.112C132.09 37.112 131.605 37.0467 131.148 36.916C131.194 36.3187 131.246 35.992 131.302 35.936C131.358 35.88 131.432 35.852 131.526 35.852C131.628 35.852 131.74 35.8707 131.862 35.908C132.02 35.9547 132.207 35.978 132.422 35.978V35.992Z" fill="white"/>
<path d="M144.635 29.398H143.963C143.795 29.398 143.697 29.3187 143.669 29.16L143.571 28.082H139.819V31.414H143.515V32.478H139.819V35.908H143.571L143.655 34.9C143.683 34.7507 143.786 34.676 143.963 34.676H144.635V37H137.439V36.412C137.439 36.2627 137.509 36.174 137.649 36.146L138.447 35.992V27.998C137.999 27.914 137.733 27.858 137.649 27.83C137.509 27.802 137.439 27.7133 137.439 27.564V26.976H144.635V29.398Z" fill="white"/>
<path d="M153.692 29.916H153.02C152.842 29.916 152.74 29.832 152.712 29.664L152.6 28.404C151.816 28.152 151.111 28.026 150.486 28.026C149.431 28.026 148.563 28.3807 147.882 29.09C147.2 29.8273 146.86 30.7933 146.86 31.988C146.86 32.7627 147 33.4487 147.28 34.046C147.569 34.6433 147.975 35.11 148.498 35.446C149.03 35.7727 149.646 35.936 150.346 35.936C150.887 35.936 151.358 35.8707 151.76 35.74C152.17 35.6 152.553 35.3667 152.908 35.04C152.992 34.9653 153.076 34.928 153.16 34.928C153.234 34.928 153.3 34.956 153.356 35.012L153.888 35.6C153.02 36.608 151.816 37.112 150.276 37.112C149.305 37.112 148.456 36.8927 147.728 36.454C147.009 36.006 146.454 35.3947 146.062 34.62C145.679 33.8453 145.488 32.968 145.488 31.988C145.488 30.4853 145.954 29.2533 146.888 28.292C147.812 27.34 149.076 26.864 150.682 26.864C151.428 26.864 152.432 27.0973 153.692 27.564V29.916Z" fill="white"/>
<path d="M162.634 29.188H161.948C161.799 29.188 161.71 29.1413 161.682 29.048C161.636 28.8893 161.589 28.5813 161.542 28.124H159.19V35.992L159.358 36.02C159.788 36.104 160.021 36.1507 160.058 36.16C160.152 36.188 160.198 36.272 160.198 36.412V37H156.81V36.412C156.81 36.3373 156.829 36.2767 156.866 36.23C156.913 36.174 156.974 36.1413 157.048 36.132L157.818 35.978V28.11H155.452C155.396 28.6327 155.354 28.9453 155.326 29.048C155.298 29.1413 155.205 29.188 155.046 29.188H154.374V26.976H162.634V29.188Z" fill="white"/>
<path d="M177.793 27.984V35.964C178.241 36.048 178.507 36.104 178.591 36.132C178.74 36.16 178.815 36.244 178.815 36.384V37H175.455V36.384C175.455 36.244 175.525 36.16 175.665 36.132L176.603 35.964V29.622C176.603 29.3327 176.612 29.1133 176.631 28.964L173.187 35.236C173.075 35.4507 172.916 35.558 172.711 35.558H172.515C172.291 35.558 172.123 35.4507 172.011 35.236L168.525 28.978C168.553 29.2113 168.567 29.4213 168.567 29.608V35.964L169.519 36.132C169.64 36.16 169.701 36.244 169.701 36.384V37H166.355V36.384C166.355 36.244 166.43 36.16 166.579 36.132L167.363 35.964V27.984C166.934 27.9 166.672 27.844 166.579 27.816C166.43 27.788 166.355 27.704 166.355 27.564V26.948H168.371C168.502 26.948 168.595 26.962 168.651 26.99C168.735 27.0273 168.796 27.088 168.833 27.172L172.291 33.36C172.375 33.5093 172.482 33.752 172.613 34.088C172.688 33.8733 172.795 33.626 172.935 33.346L176.323 27.172C176.36 27.0973 176.426 27.0367 176.519 26.99C176.575 26.962 176.668 26.948 176.799 26.948H178.815V27.564C178.815 27.704 178.74 27.788 178.591 27.816L177.793 27.984Z" fill="white"/>
<path d="M189.526 36.216C189.648 36.244 189.708 36.3187 189.708 36.44V37H186.824V36.44C186.824 36.3187 186.89 36.244 187.02 36.216L187.594 36.048L186.81 34.032H182.484L181.7 36.048L182.274 36.216C182.396 36.244 182.456 36.3187 182.456 36.44V37H179.586V36.44C179.586 36.3187 179.647 36.244 179.768 36.216L180.328 36.048L183.968 26.976H185.34L188.966 36.048L189.526 36.216ZM184.948 29.202C184.874 29.0153 184.771 28.698 184.64 28.25C184.528 28.6793 184.435 28.9967 184.36 29.202L182.862 33.052H186.432L184.948 29.202Z" fill="white"/>
<path d="M200.691 27.592C200.691 27.732 200.616 27.816 200.467 27.844L199.669 28.012V37.014H198.983C198.796 37.014 198.637 36.9347 198.507 36.776L192.697 29.216C192.715 29.3747 192.725 29.5893 192.725 29.86V35.992C192.986 36.0293 193.299 36.0853 193.663 36.16C193.793 36.188 193.859 36.272 193.859 36.412V37.014H190.527V36.412C190.527 36.272 190.597 36.188 190.737 36.16L191.535 35.992V28.012C191.087 27.928 190.821 27.872 190.737 27.844C190.597 27.816 190.527 27.7273 190.527 27.578V26.976H192.235C192.356 26.976 192.445 26.99 192.501 27.018C192.538 27.0367 192.608 27.0973 192.711 27.2L198.507 34.76C198.488 34.6293 198.479 34.4053 198.479 34.088V28.012C198.208 27.9747 197.993 27.942 197.835 27.914C197.676 27.8767 197.583 27.8533 197.555 27.844C197.405 27.816 197.331 27.732 197.331 27.592V26.976H200.691V27.592Z" fill="white"/>
<path d="M211.019 36.216C211.14 36.244 211.201 36.3187 211.201 36.44V37H208.317V36.44C208.317 36.3187 208.382 36.244 208.513 36.216L209.087 36.048L208.303 34.032H203.977L203.193 36.048L203.767 36.216C203.888 36.244 203.949 36.3187 203.949 36.44V37H201.079V36.44C201.079 36.3187 201.139 36.244 201.261 36.216L201.821 36.048L205.461 26.976H206.833L210.459 36.048L211.019 36.216ZM206.441 29.202C206.366 29.0153 206.263 28.698 206.133 28.25C206.021 28.6793 205.927 28.9967 205.853 29.202L204.355 33.052H207.925L206.441 29.202Z" fill="white"/>
<path d="M216.618 36.02C217.533 36.02 218.359 35.824 219.096 35.432V33.22H217.542C217.449 33.22 217.374 33.192 217.318 33.136C217.262 33.08 217.234 33.0193 217.234 32.954V32.184H220.314V36.034C219.316 36.7527 218.046 37.112 216.506 37.112C215.041 37.112 213.851 36.6407 212.936 35.698C212.012 34.746 211.55 33.5093 211.55 31.988C211.55 30.4387 212.008 29.2067 212.922 28.292C213.865 27.34 215.116 26.864 216.674 26.864C217.738 26.864 218.919 27.1067 220.216 27.592V29.916H219.544C219.376 29.916 219.278 29.8413 219.25 29.692C219.25 29.6453 219.236 29.5287 219.208 29.342C219.19 29.1553 219.166 28.8473 219.138 28.418C218.84 28.3247 218.667 28.2733 218.62 28.264C218.051 28.1147 217.449 28.04 216.814 28.04C216.133 28.04 215.564 28.1333 215.106 28.32C214.658 28.5067 214.271 28.768 213.944 29.104C213.282 29.804 212.95 30.7653 212.95 31.988C212.95 33.248 213.291 34.2373 213.972 34.956C214.654 35.6653 215.536 36.02 216.618 36.02Z" fill="white"/>
<path d="M228.484 29.398H227.812C227.645 29.398 227.546 29.3187 227.518 29.16L227.421 28.082H223.669V31.414H227.365V32.478H223.669V35.908H227.421L227.505 34.9C227.533 34.7507 227.635 34.676 227.812 34.676H228.484V37H221.288V36.412C221.288 36.2627 221.359 36.174 221.499 36.146L222.296 35.992V27.998C221.848 27.914 221.583 27.858 221.499 27.83C221.359 27.802 221.288 27.7133 221.288 27.564V26.976H228.484V29.398Z" fill="white"/>
<path d="M237.807 36.132C237.873 36.1507 237.924 36.1833 237.961 36.23C237.999 36.2673 238.017 36.3187 238.017 36.384V37H236.561C236.319 37 236.141 36.902 236.029 36.706L233.425 33.122C233.36 33.0287 233.276 32.9493 233.173 32.884C233.089 32.828 232.949 32.8 232.753 32.8H231.857V35.964L232.641 36.132C232.707 36.1507 232.758 36.1833 232.795 36.23C232.842 36.2673 232.865 36.3187 232.865 36.384V36.986H229.491V36.384C229.491 36.3187 229.51 36.2673 229.547 36.23C229.585 36.1833 229.636 36.1507 229.701 36.132L230.513 35.964V27.984L229.701 27.816C229.636 27.7973 229.585 27.7693 229.547 27.732C229.51 27.6853 229.491 27.6293 229.491 27.564V26.948H233.201C233.827 26.948 234.377 27.0133 234.853 27.144C235.32 27.2747 235.703 27.4613 236.001 27.704C236.309 27.956 236.533 28.25 236.673 28.586C236.813 28.922 236.883 29.3093 236.883 29.748C236.883 30.0933 236.827 30.42 236.715 30.728C236.603 31.0267 236.44 31.3067 236.225 31.568C236.011 31.8293 235.754 32.0393 235.455 32.198C235.082 32.4033 234.737 32.5387 234.419 32.604C234.587 32.7067 234.737 32.8467 234.867 33.024L237.037 35.992C237.485 36.0667 237.747 36.1133 237.821 36.132H237.807ZM233.117 31.82C233.528 31.82 233.878 31.7733 234.167 31.68C234.447 31.5867 234.699 31.4467 234.923 31.26C235.129 31.0827 235.283 30.8773 235.385 30.644C235.488 30.4107 235.539 30.14 235.539 29.832C235.539 29.244 235.343 28.796 234.951 28.488C234.569 28.1893 233.985 28.04 233.201 28.04H231.843V31.82H233.117Z" fill="white"/>
<path d="M91.9903 20V19.58C91.9903 19.5053 92.009 19.412 92.0463 19.3C92.0743 19.216 92.1303 19.132 92.2143 19.048L95.4343 15.828C95.761 15.492 96.0036 15.2307 96.1623 15.044C96.3676 14.8107 96.5543 14.5587 96.7223 14.288C96.853 14.0733 96.9696 13.812 97.0723 13.504C97.1563 13.252 97.1983 12.9767 97.1983 12.678C97.1983 12.4167 97.1516 12.16 97.0583 11.908C96.965 11.6747 96.839 11.488 96.6803 11.348C96.4936 11.1987 96.3023 11.0913 96.1063 11.026C95.901 10.9607 95.6676 10.928 95.4063 10.928C95.1356 10.928 94.9023 10.9653 94.7063 11.04C94.4543 11.1333 94.263 11.236 94.1323 11.348C93.955 11.4973 93.815 11.656 93.7123 11.824C93.6096 11.992 93.5303 12.188 93.4743 12.412C93.4463 12.5613 93.3903 12.664 93.3063 12.72C93.2223 12.776 93.1196 12.804 92.9983 12.804H92.9423L92.8443 12.79L92.1863 12.678C92.2423 12.23 92.373 11.824 92.5783 11.46C92.7743 11.1147 93.0076 10.8253 93.2783 10.592C93.5676 10.3493 93.899 10.1627 94.2723 10.032C94.627 9.91067 95.0236 9.85 95.4623 9.85C95.9103 9.85 96.3116 9.91067 96.6663 10.032C97.021 10.1533 97.3383 10.34 97.6183 10.592C97.8983 10.844 98.113 11.1333 98.2623 11.46C98.4116 11.7867 98.4863 12.1787 98.4863 12.636C98.4863 13.0187 98.4303 13.364 98.3183 13.672C98.1876 14.0173 98.0383 14.3207 97.8703 14.582C97.6836 14.862 97.4596 15.1467 97.1983 15.436C96.9463 15.716 96.6803 15.996 96.4003 16.276L93.7543 18.964C93.8943 18.9267 94.0856 18.8893 94.3283 18.852C94.5243 18.824 94.7063 18.81 94.8743 18.81H97.6183C97.637 18.5767 97.6556 18.3947 97.6743 18.264C97.693 18.1333 97.7023 18.0493 97.7023 18.012C97.721 17.9373 97.7583 17.8767 97.8143 17.83C97.8703 17.7833 97.931 17.76 97.9963 17.76H98.6823V19.132L98.6683 20H91.9903Z" fill="white"/>
<path d="M106.848 14.988C106.848 15.8933 106.754 16.654 106.568 17.27C106.362 17.9513 106.106 18.4833 105.798 18.866C105.443 19.3047 105.056 19.6173 104.636 19.804C104.169 20.0093 103.693 20.112 103.208 20.112C102.722 20.112 102.246 20.0093 101.78 19.804C101.36 19.6173 100.972 19.3047 100.618 18.866C100.31 18.4833 100.053 17.9513 99.8478 17.27C99.6611 16.654 99.5678 15.8933 99.5678 14.988C99.5678 14.0827 99.6611 13.322 99.8478 12.706C100.053 12.0247 100.31 11.4927 100.618 11.11C100.972 10.6713 101.36 10.3587 101.78 10.172C102.246 9.96667 102.722 9.864 103.208 9.864C103.693 9.864 104.169 9.96667 104.636 10.172C105.056 10.3587 105.443 10.6713 105.798 11.11C106.106 11.4927 106.362 12.0247 106.568 12.706C106.764 13.35 106.862 14.1107 106.862 14.988H106.848ZM105.56 15.002C105.56 14.2647 105.494 13.6253 105.364 13.084C105.233 12.5333 105.06 12.1133 104.846 11.824C104.612 11.4973 104.36 11.2687 104.09 11.138C103.81 10.998 103.516 10.928 103.208 10.928C102.89 10.928 102.592 10.998 102.312 11.138C102.041 11.2687 101.789 11.4973 101.556 11.824C101.35 12.104 101.182 12.5193 101.052 13.07C100.921 13.6113 100.856 14.2507 100.856 14.988C100.856 15.7347 100.921 16.3787 101.052 16.92C101.192 17.4893 101.36 17.9093 101.556 18.18C101.78 18.488 102.032 18.712 102.312 18.852C102.592 18.992 102.89 19.062 103.208 19.062C103.525 19.062 103.824 18.992 104.104 18.852C104.374 18.7213 104.626 18.4927 104.86 18.166C105.065 17.886 105.233 17.4707 105.364 16.92C105.494 16.3787 105.56 15.7393 105.56 15.002Z" fill="white"/>
<path d="M107.672 20V19.58C107.672 19.5053 107.691 19.412 107.728 19.3C107.756 19.216 107.812 19.132 107.896 19.048L111.116 15.828C111.443 15.492 111.685 15.2307 111.844 15.044C112.049 14.8107 112.236 14.5587 112.404 14.288C112.535 14.0733 112.651 13.812 112.754 13.504C112.838 13.252 112.88 12.9767 112.88 12.678C112.88 12.4167 112.833 12.16 112.74 11.908C112.647 11.6747 112.521 11.488 112.362 11.348C112.175 11.1987 111.984 11.0913 111.788 11.026C111.583 10.9607 111.349 10.928 111.088 10.928C110.817 10.928 110.584 10.9653 110.388 11.04C110.136 11.1333 109.945 11.236 109.814 11.348C109.637 11.4973 109.497 11.656 109.394 11.824C109.291 11.992 109.212 12.188 109.156 12.412C109.128 12.5613 109.072 12.664 108.988 12.72C108.904 12.776 108.801 12.804 108.68 12.804H108.624L108.526 12.79L107.868 12.678C107.924 12.23 108.055 11.824 108.26 11.46C108.456 11.1147 108.689 10.8253 108.96 10.592C109.249 10.3493 109.581 10.1627 109.954 10.032C110.309 9.91067 110.705 9.85 111.144 9.85C111.592 9.85 111.993 9.91067 112.348 10.032C112.703 10.1533 113.02 10.34 113.3 10.592C113.58 10.844 113.795 11.1333 113.944 11.46C114.093 11.7867 114.168 12.1787 114.168 12.636C114.168 13.0187 114.112 13.364 114 13.672C113.869 14.0173 113.72 14.3207 113.552 14.582C113.365 14.862 113.141 15.1467 112.88 15.436C112.628 15.716 112.362 15.996 112.082 16.276L109.436 18.964C109.576 18.9267 109.767 18.8893 110.01 18.852C110.206 18.824 110.388 18.81 110.556 18.81H113.3C113.319 18.5767 113.337 18.3947 113.356 18.264C113.375 18.1333 113.384 18.0493 113.384 18.012C113.403 17.9373 113.44 17.8767 113.496 17.83C113.552 17.7833 113.613 17.76 113.678 17.76H114.364V19.132L114.35 20H107.672Z" fill="white"/>
<path d="M122.529 14.988C122.529 15.8933 122.436 16.654 122.249 17.27C122.044 17.9513 121.787 18.4833 121.479 18.866C121.125 19.3047 120.737 19.6173 120.317 19.804C119.851 20.0093 119.375 20.112 118.889 20.112C118.404 20.112 117.928 20.0093 117.461 19.804C117.041 19.6173 116.654 19.3047 116.299 18.866C115.991 18.4833 115.735 17.9513 115.529 17.27C115.343 16.654 115.249 15.8933 115.249 14.988C115.249 14.0827 115.343 13.322 115.529 12.706C115.735 12.0247 115.991 11.4927 116.299 11.11C116.654 10.6713 117.041 10.3587 117.461 10.172C117.928 9.96667 118.404 9.864 118.889 9.864C119.375 9.864 119.851 9.96667 120.317 10.172C120.737 10.3587 121.125 10.6713 121.479 11.11C121.787 11.4927 122.044 12.0247 122.249 12.706C122.445 13.35 122.543 14.1107 122.543 14.988H122.529ZM121.241 15.002C121.241 14.2647 121.176 13.6253 121.045 13.084C120.915 12.5333 120.742 12.1133 120.527 11.824C120.294 11.4973 120.042 11.2687 119.771 11.138C119.491 10.998 119.197 10.928 118.889 10.928C118.572 10.928 118.273 10.998 117.993 11.138C117.723 11.2687 117.471 11.4973 117.237 11.824C117.032 12.104 116.864 12.5193 116.733 13.07C116.603 13.6113 116.537 14.2507 116.537 14.988C116.537 15.7347 116.603 16.3787 116.733 16.92C116.873 17.4893 117.041 17.9093 117.237 18.18C117.461 18.488 117.713 18.712 117.993 18.852C118.273 18.992 118.572 19.062 118.889 19.062C119.207 19.062 119.505 18.992 119.785 18.852C120.056 18.7213 120.308 18.4927 120.541 18.166C120.747 17.886 120.915 17.4707 121.045 16.92C121.176 16.3787 121.241 15.7393 121.241 15.002Z" fill="white"/>
<path d="M127.134 16.332H123.69V15.268H127.134V16.332Z" fill="white"/>
<path d="M128.125 20V19.58C128.125 19.5053 128.144 19.412 128.181 19.3C128.209 19.216 128.265 19.132 128.349 19.048L131.569 15.828C131.896 15.492 132.138 15.2307 132.297 15.044C132.502 14.8107 132.689 14.5587 132.857 14.288C132.988 14.0733 133.104 13.812 133.207 13.504C133.291 13.252 133.333 12.9767 133.333 12.678C133.333 12.4167 133.286 12.16 133.193 11.908C133.1 11.6747 132.974 11.488 132.815 11.348C132.628 11.1987 132.437 11.0913 132.241 11.026C132.036 10.9607 131.802 10.928 131.541 10.928C131.27 10.928 131.037 10.9653 130.841 11.04C130.589 11.1333 130.398 11.236 130.267 11.348C130.09 11.4973 129.95 11.656 129.847 11.824C129.744 11.992 129.665 12.188 129.609 12.412C129.581 12.5613 129.525 12.664 129.441 12.72C129.357 12.776 129.254 12.804 129.133 12.804H129.077L128.979 12.79L128.321 12.678C128.377 12.23 128.508 11.824 128.713 11.46C128.909 11.1147 129.142 10.8253 129.413 10.592C129.702 10.3493 130.034 10.1627 130.407 10.032C130.762 9.91067 131.158 9.85 131.597 9.85C132.045 9.85 132.446 9.91067 132.801 10.032C133.156 10.1533 133.473 10.34 133.753 10.592C134.033 10.844 134.248 11.1333 134.397 11.46C134.546 11.7867 134.621 12.1787 134.621 12.636C134.621 13.0187 134.565 13.364 134.453 13.672C134.322 14.0173 134.173 14.3207 134.005 14.582C133.818 14.862 133.594 15.1467 133.333 15.436C133.081 15.716 132.815 15.996 132.535 16.276L129.889 18.964C130.029 18.9267 130.22 18.8893 130.463 18.852C130.659 18.824 130.841 18.81 131.009 18.81H133.753C133.772 18.5767 133.79 18.3947 133.809 18.264C133.828 18.1333 133.837 18.0493 133.837 18.012C133.856 17.9373 133.893 17.8767 133.949 17.83C134.005 17.7833 134.066 17.76 134.131 17.76H134.817V19.132L134.803 20H128.125Z" fill="white"/>
<path d="M142.983 14.988C142.983 15.8933 142.889 16.654 142.703 17.27C142.497 17.9513 142.241 18.4833 141.933 18.866C141.578 19.3047 141.191 19.6173 140.771 19.804C140.304 20.0093 139.828 20.112 139.343 20.112C138.857 20.112 138.381 20.0093 137.915 19.804C137.495 19.6173 137.107 19.3047 136.753 18.866C136.445 18.4833 136.188 17.9513 135.983 17.27C135.796 16.654 135.703 15.8933 135.703 14.988C135.703 14.0827 135.796 13.322 135.983 12.706C136.188 12.0247 136.445 11.4927 136.753 11.11C137.107 10.6713 137.495 10.3587 137.915 10.172C138.381 9.96667 138.857 9.864 139.343 9.864C139.828 9.864 140.304 9.96667 140.771 10.172C141.191 10.3587 141.578 10.6713 141.933 11.11C142.241 11.4927 142.497 12.0247 142.703 12.706C142.899 13.35 142.997 14.1107 142.997 14.988H142.983ZM141.695 15.002C141.695 14.2647 141.629 13.6253 141.499 13.084C141.368 12.5333 141.195 12.1133 140.981 11.824C140.747 11.4973 140.495 11.2687 140.225 11.138C139.945 10.998 139.651 10.928 139.343 10.928C139.025 10.928 138.727 10.998 138.447 11.138C138.176 11.2687 137.924 11.4973 137.691 11.824C137.485 12.104 137.317 12.5193 137.187 13.07C137.056 13.6113 136.991 14.2507 136.991 14.988C136.991 15.7347 137.056 16.3787 137.187 16.92C137.327 17.4893 137.495 17.9093 137.691 18.18C137.915 18.488 138.167 18.712 138.447 18.852C138.727 18.992 139.025 19.062 139.343 19.062C139.66 19.062 139.959 18.992 140.239 18.852C140.509 18.7213 140.761 18.4927 140.995 18.166C141.2 17.886 141.368 17.4707 141.499 16.92C141.629 16.3787 141.695 15.7393 141.695 15.002Z" fill="white"/>
<path d="M143.807 20V19.58C143.807 19.5053 143.825 19.412 143.863 19.3C143.891 19.216 143.947 19.132 144.031 19.048L147.251 15.828C147.577 15.492 147.82 15.2307 147.979 15.044C148.184 14.8107 148.371 14.5587 148.539 14.288C148.669 14.0733 148.786 13.812 148.889 13.504C148.973 13.252 149.015 12.9767 149.015 12.678C149.015 12.4167 148.968 12.16 148.875 11.908C148.781 11.6747 148.655 11.488 148.497 11.348C148.31 11.1987 148.119 11.0913 147.923 11.026C147.717 10.9607 147.484 10.928 147.223 10.928C146.952 10.928 146.719 10.9653 146.523 11.04C146.271 11.1333 146.079 11.236 145.949 11.348C145.771 11.4973 145.631 11.656 145.529 11.824C145.426 11.992 145.347 12.188 145.291 12.412C145.263 12.5613 145.207 12.664 145.123 12.72C145.039 12.776 144.936 12.804 144.815 12.804H144.759L144.661 12.79L144.003 12.678C144.059 12.23 144.189 11.824 144.395 11.46C144.591 11.1147 144.824 10.8253 145.095 10.592C145.384 10.3493 145.715 10.1627 146.089 10.032C146.443 9.91067 146.84 9.85 147.279 9.85C147.727 9.85 148.128 9.91067 148.483 10.032C148.837 10.1533 149.155 10.34 149.435 10.592C149.715 10.844 149.929 11.1333 150.079 11.46C150.228 11.7867 150.303 12.1787 150.303 12.636C150.303 13.0187 150.247 13.364 150.135 13.672C150.004 14.0173 149.855 14.3207 149.687 14.582C149.5 14.862 149.276 15.1467 149.015 15.436C148.763 15.716 148.497 15.996 148.217 16.276L145.571 18.964C145.711 18.9267 145.902 18.8893 146.145 18.852C146.341 18.824 146.523 18.81 146.691 18.81H149.435C149.453 18.5767 149.472 18.3947 149.491 18.264C149.509 18.1333 149.519 18.0493 149.519 18.012C149.537 17.9373 149.575 17.8767 149.631 17.83C149.687 17.7833 149.747 17.76 149.813 17.76H150.499V19.132L150.485 20H143.807Z" fill="white"/>
<path d="M151.244 20V19.58C151.244 19.5053 151.263 19.412 151.3 19.3C151.328 19.216 151.384 19.132 151.468 19.048L154.688 15.828C155.015 15.492 155.258 15.2307 155.416 15.044C155.622 14.8107 155.808 14.5587 155.976 14.288C156.107 14.0733 156.224 13.812 156.326 13.504C156.41 13.252 156.452 12.9767 156.452 12.678C156.452 12.4167 156.406 12.16 156.312 11.908C156.219 11.6747 156.093 11.488 155.934 11.348C155.748 11.1987 155.556 11.0913 155.36 11.026C155.155 10.9607 154.922 10.928 154.66 10.928C154.39 10.928 154.156 10.9653 153.96 11.04C153.708 11.1333 153.517 11.236 153.386 11.348C153.209 11.4973 153.069 11.656 152.966 11.824C152.864 11.992 152.784 12.188 152.728 12.412C152.7 12.5613 152.644 12.664 152.56 12.72C152.476 12.776 152.374 12.804 152.252 12.804H152.196L152.098 12.79L151.44 12.678C151.496 12.23 151.627 11.824 151.832 11.46C152.028 11.1147 152.262 10.8253 152.532 10.592C152.822 10.3493 153.153 10.1627 153.526 10.032C153.881 9.91067 154.278 9.85 154.716 9.85C155.164 9.85 155.566 9.91067 155.92 10.032C156.275 10.1533 156.592 10.34 156.872 10.592C157.152 10.844 157.367 11.1333 157.516 11.46C157.666 11.7867 157.74 12.1787 157.74 12.636C157.74 13.0187 157.684 13.364 157.572 13.672C157.442 14.0173 157.292 14.3207 157.124 14.582C156.938 14.862 156.714 15.1467 156.452 15.436C156.2 15.716 155.934 15.996 155.654 16.276L153.008 18.964C153.148 18.9267 153.34 18.8893 153.582 18.852C153.778 18.824 153.96 18.81 154.128 18.81H156.872C156.891 18.5767 156.91 18.3947 156.928 18.264C156.947 18.1333 156.956 18.0493 156.956 18.012C156.975 17.9373 157.012 17.8767 157.068 17.83C157.124 17.7833 157.185 17.76 157.25 17.76H157.936V19.132L157.922 20H151.244Z" fill="white"/>
</svg>
