<svg width="100" height="24" viewBox="0 0 100 24" fill="none" xmlns="http://www.w3.org/2000/svg">
<path d="M0 10C0 4.47715 4.47715 0 10 0H90C95.5229 0 100 4.47715 100 10V14C100 19.5228 95.5229 24 90 24H10C4.47715 24 0 19.5228 0 14V10Z" fill="#605F5F"/>
<path d="M24.227 15.978L25.067 16.146C25.179 16.174 25.235 16.258 25.235 16.398V17H21.847V16.398C21.847 16.2487 21.9217 16.16 22.071 16.132L22.855 15.978V12.436H17.451V15.978C18.123 16.118 18.459 16.258 18.459 16.398V17H15.085V16.398C15.085 16.2487 15.155 16.16 15.295 16.132L16.093 15.978V7.984L15.253 7.816C15.141 7.788 15.085 7.704 15.085 7.564V6.976H18.459V7.564C18.459 7.704 18.4124 7.788 18.319 7.816C18.2164 7.844 17.9317 7.9 17.465 7.984V11.442H22.869V7.984L22.029 7.816C21.917 7.788 21.861 7.704 21.861 7.564V6.976H25.249V7.564C25.249 7.71333 25.179 7.802 25.039 7.83L24.227 7.984V15.978Z" fill="white"/>
<path d="M34.2379 9.188H33.5519C33.4026 9.188 33.3139 9.14133 33.2859 9.048C33.2393 8.88933 33.1926 8.58133 33.1459 8.124H30.7939V15.992L30.9619 16.02C31.3913 16.104 31.6246 16.1507 31.6619 16.16C31.7553 16.188 31.8019 16.272 31.8019 16.412V17H28.4139V16.412C28.4139 16.3373 28.4326 16.2767 28.4699 16.23C28.5166 16.174 28.5773 16.1413 28.6519 16.132L29.4219 15.978V8.11H27.0559C26.9999 8.63267 26.9579 8.94533 26.9299 9.048C26.9019 9.14133 26.8086 9.188 26.6499 9.188H25.9779V6.976H34.2379V9.188Z" fill="white"/>
<path d="M46.3886 7.984V15.964C46.8366 16.048 47.1026 16.104 47.1866 16.132C47.3359 16.16 47.4106 16.244 47.4106 16.384V17H44.0506V16.384C44.0506 16.244 44.1206 16.16 44.2606 16.132L45.1986 15.964V9.622C45.1986 9.33267 45.2079 9.11333 45.2266 8.964L41.7826 15.236C41.6706 15.4507 41.5119 15.558 41.3066 15.558H41.1106C40.8866 15.558 40.7186 15.4507 40.6066 15.236L37.1206 8.978C37.1486 9.21133 37.1626 9.42133 37.1626 9.608V15.964L38.1146 16.132C38.2359 16.16 38.2966 16.244 38.2966 16.384V17H34.9506V16.384C34.9506 16.244 35.0253 16.16 35.1746 16.132L35.9586 15.964V7.984C35.5293 7.9 35.2679 7.844 35.1746 7.816C35.0253 7.788 34.9506 7.704 34.9506 7.564V6.948H36.9666C37.0973 6.948 37.1906 6.962 37.2466 6.99C37.3306 7.02733 37.3913 7.088 37.4286 7.172L40.8866 13.36C40.9706 13.5093 41.0779 13.752 41.2086 14.088C41.2833 13.8733 41.3906 13.626 41.5306 13.346L44.9186 7.172C44.9559 7.09733 45.0213 7.03667 45.1146 6.99C45.1706 6.962 45.2639 6.948 45.3946 6.948H47.4106V7.564C47.4106 7.704 47.3359 7.788 47.1866 7.816L46.3886 7.984Z" fill="white"/>
<path d="M48.308 17V16.398C48.308 16.3327 48.3267 16.2767 48.364 16.23C48.4014 16.174 48.4527 16.1413 48.518 16.132L49.316 15.978V7.984L48.518 7.83C48.4527 7.82067 48.4014 7.79267 48.364 7.746C48.3267 7.69 48.308 7.62933 48.308 7.564V6.976H51.668V7.564C51.668 7.62933 51.6494 7.69 51.612 7.746C51.5747 7.79267 51.5234 7.82067 51.458 7.83L50.66 7.984V15.852H54.272C54.3 15.4227 54.328 15.1567 54.356 15.054C54.3654 14.9887 54.398 14.9327 54.454 14.886C54.51 14.8393 54.5754 14.816 54.65 14.816H55.336V17H48.308Z" fill="white"/>
<path d="M57.2444 17.14C57.1977 17.2893 57.1044 17.4107 56.9644 17.504C56.8524 17.5787 56.7217 17.616 56.5724 17.616H56.0404L60.2544 7.144C60.3104 7.01333 60.3991 6.90133 60.5204 6.808C60.6231 6.73333 60.7537 6.696 60.9124 6.696H61.4444L57.2584 17.14H57.2444Z" fill="white"/>
<path d="M69.8382 9.916H69.1662C68.9888 9.916 68.8862 9.832 68.8582 9.664L68.7462 8.404C67.9622 8.152 67.2575 8.026 66.6322 8.026C65.5775 8.026 64.7095 8.38067 64.0282 9.09C63.3468 9.82733 63.0062 10.7933 63.0062 11.988C63.0062 12.7627 63.1462 13.4487 63.4262 14.046C63.7155 14.6433 64.1215 15.11 64.6442 15.446C65.1762 15.7727 65.7922 15.936 66.4922 15.936C67.0335 15.936 67.5048 15.8707 67.9062 15.74C68.3168 15.6 68.6995 15.3667 69.0542 15.04C69.1382 14.9653 69.2222 14.928 69.3062 14.928C69.3808 14.928 69.4462 14.956 69.5022 15.012L70.0342 15.6C69.1662 16.608 67.9622 17.112 66.4222 17.112C65.4515 17.112 64.6022 16.8927 63.8742 16.454C63.1555 16.006 62.6002 15.3947 62.2082 14.62C61.8255 13.8453 61.6342 12.968 61.6342 11.988C61.6342 10.4853 62.1008 9.25333 63.0342 8.292C63.9582 7.34 65.2228 6.864 66.8282 6.864C67.5748 6.864 68.5782 7.09733 69.8382 7.564V9.916Z" fill="white"/>
<path d="M75.4489 11.694C76.4569 12.142 76.9609 12.8933 76.9609 13.948C76.9609 14.872 76.6716 15.6233 76.0929 16.202C75.4862 16.8087 74.6556 17.112 73.6009 17.112C73.1622 17.112 72.7049 17.07 72.2289 16.986C71.8556 16.9207 71.4822 16.832 71.1089 16.72L70.7029 16.58V14.06H71.3889C71.5476 14.06 71.6409 14.1393 71.6689 14.298C71.6876 14.3727 71.7109 14.6013 71.7389 14.984L71.7809 15.6C72.5089 15.8613 73.0782 15.992 73.4889 15.992C73.8996 15.992 74.2449 15.9453 74.5249 15.852C74.7956 15.768 75.0102 15.642 75.1689 15.474C75.5236 15.1473 75.7009 14.704 75.7009 14.144C75.7009 13.6027 75.4489 13.192 74.9449 12.912C74.7209 12.772 74.4689 12.66 74.1889 12.576C73.1902 12.268 72.6022 12.072 72.4249 11.988C72.1542 11.8667 71.8976 11.6987 71.6549 11.484C71.1602 11.0453 70.9129 10.42 70.9129 9.608C70.9129 8.87067 71.1789 8.236 71.7109 7.704C72.2896 7.144 73.0362 6.864 73.9509 6.864C74.9216 6.864 75.8596 7.05067 76.7649 7.424V9.734H76.0929C75.9249 9.734 75.8269 9.65467 75.7989 9.496C75.7989 9.468 75.7896 9.37467 75.7709 9.216C75.7616 9.048 75.7382 8.726 75.7009 8.25C75.0476 8.07267 74.4969 7.984 74.0489 7.984C73.4422 7.984 72.9756 8.13333 72.6489 8.432C72.3316 8.72133 72.1729 9.09467 72.1729 9.552C72.1729 10.0467 72.4249 10.434 72.9289 10.714C73.1342 10.8447 73.3956 10.9613 73.7129 11.064C74.5529 11.344 75.1409 11.554 75.4769 11.694H75.4489Z" fill="white"/>
<path d="M82.5309 11.694C83.5389 12.142 84.0429 12.8933 84.0429 13.948C84.0429 14.872 83.7536 15.6233 83.1749 16.202C82.5683 16.8087 81.7376 17.112 80.6829 17.112C80.2443 17.112 79.7869 17.07 79.3109 16.986C78.9376 16.9207 78.5643 16.832 78.1909 16.72L77.7849 16.58V14.06H78.4709C78.6296 14.06 78.7229 14.1393 78.7509 14.298C78.7696 14.3727 78.7929 14.6013 78.8209 14.984L78.8629 15.6C79.5909 15.8613 80.1603 15.992 80.5709 15.992C80.9816 15.992 81.3269 15.9453 81.6069 15.852C81.8776 15.768 82.0923 15.642 82.2509 15.474C82.6056 15.1473 82.7829 14.704 82.7829 14.144C82.7829 13.6027 82.5309 13.192 82.0269 12.912C81.8029 12.772 81.5509 12.66 81.2709 12.576C80.2723 12.268 79.6842 12.072 79.5069 11.988C79.2363 11.8667 78.9796 11.6987 78.7369 11.484C78.2423 11.0453 77.9949 10.42 77.9949 9.608C77.9949 8.87067 78.2609 8.236 78.7929 7.704C79.3716 7.144 80.1183 6.864 81.0329 6.864C82.0036 6.864 82.9416 7.05067 83.8469 7.424V9.734H83.1749C83.0069 9.734 82.9089 9.65467 82.8809 9.496C82.8809 9.468 82.8716 9.37467 82.8529 9.216C82.8436 9.048 82.8203 8.726 82.7829 8.25C82.1296 8.07267 81.5789 7.984 81.1309 7.984C80.5243 7.984 80.0576 8.13333 79.7309 8.432C79.4136 8.72133 79.2549 9.09467 79.2549 9.552C79.2549 10.0467 79.5069 10.434 80.0109 10.714C80.2163 10.8447 80.4776 10.9613 80.7949 11.064C81.6349 11.344 82.2229 11.554 82.5589 11.694H82.5309Z" fill="white"/>
</svg>
