<svg width="100" height="24" viewBox="0 0 100 24" fill="none" xmlns="http://www.w3.org/2000/svg">
<path d="M0 10C0 4.47715 4.47715 0 10 0H90C95.5228 0 100 4.47715 100 10V14C100 19.5228 95.5228 24 90 24H10C4.47715 24 0 19.5228 0 14V10Z" fill="#605F5F"/>
<path d="M15.9198 15.978L16.7738 16.146C16.8858 16.174 16.9418 16.258 16.9418 16.398V17H13.5678V16.398C13.5678 16.2487 13.6331 16.16 13.7638 16.132L14.5758 15.978V7.984L13.7358 7.816C13.6238 7.788 13.5678 7.704 13.5678 7.564V6.976H16.9418V7.564C16.9418 7.71333 16.8718 7.802 16.7318 7.83L15.9198 7.984V15.978Z" fill="white"/>
<path d="M27.9974 7.592C27.9974 7.732 27.9228 7.816 27.7734 7.844L26.9754 8.012V17.014H26.2894C26.1028 17.014 25.9441 16.9347 25.8134 16.776L20.0034 9.216C20.0221 9.37467 20.0314 9.58933 20.0314 9.86V15.992C20.2928 16.0293 20.6054 16.0853 20.9694 16.16C21.1001 16.188 21.1654 16.272 21.1654 16.412V17.014H17.8334V16.412C17.8334 16.272 17.9034 16.188 18.0434 16.16L18.8414 15.992V8.012C18.3934 7.928 18.1274 7.872 18.0434 7.844C17.9034 7.816 17.8334 7.72733 17.8334 7.578V6.976H19.5414C19.6628 6.976 19.7514 6.99 19.8074 7.018C19.8448 7.03667 19.9148 7.09733 20.0174 7.2L25.8134 14.76C25.7948 14.6293 25.7854 14.4053 25.7854 14.088V8.012C25.5148 7.97467 25.3001 7.942 25.1414 7.914C24.9828 7.87667 24.8894 7.85333 24.8614 7.844C24.7121 7.816 24.6374 7.732 24.6374 7.592V6.976H27.9974V7.592Z" fill="white"/>
<path d="M36.9039 9.188H36.2179C36.0686 9.188 35.9799 9.14133 35.9519 9.048C35.9053 8.88933 35.8586 8.58133 35.8119 8.124H33.4599V15.992L33.6279 16.02C34.0573 16.104 34.2906 16.1507 34.3279 16.16C34.4213 16.188 34.4679 16.272 34.4679 16.412V17H31.0799V16.412C31.0799 16.3373 31.0986 16.2767 31.1359 16.23C31.1826 16.174 31.2433 16.1413 31.3179 16.132L32.0879 15.978V8.11H29.7219C29.6659 8.63267 29.6239 8.94533 29.5959 9.048C29.5679 9.14133 29.4746 9.188 29.3159 9.188H28.6439V6.976H36.9039V9.188Z" fill="white"/>
<path d="M44.8126 9.398H44.1406C43.9726 9.398 43.8746 9.31867 43.8466 9.16L43.7486 8.082H39.9966V11.414H43.6926V12.478H39.9966V15.908H43.7486L43.8326 14.9C43.8606 14.7507 43.9633 14.676 44.1406 14.676H44.8126V17H37.6166V16.412C37.6166 16.2627 37.6866 16.174 37.8266 16.146L38.6246 15.992V7.998C38.1766 7.914 37.9106 7.858 37.8266 7.83C37.6866 7.802 37.6166 7.71333 37.6166 7.564V6.976H44.8126V9.398Z" fill="white"/>
<path d="M54.1354 16.132C54.2008 16.1507 54.2521 16.1833 54.2894 16.23C54.3268 16.2673 54.3454 16.3187 54.3454 16.384V17H52.8894C52.6468 17 52.4694 16.902 52.3574 16.706L49.7534 13.122C49.6881 13.0287 49.6041 12.9493 49.5014 12.884C49.4174 12.828 49.2774 12.8 49.0814 12.8H48.1854V15.964L48.9694 16.132C49.0348 16.1507 49.0861 16.1833 49.1234 16.23C49.1701 16.2673 49.1934 16.3187 49.1934 16.384V16.986H45.8194V16.384C45.8194 16.3187 45.8381 16.2673 45.8754 16.23C45.9128 16.1833 45.9641 16.1507 46.0294 16.132L46.8414 15.964V7.984L46.0294 7.816C45.9641 7.79733 45.9128 7.76933 45.8754 7.732C45.8381 7.68533 45.8194 7.62933 45.8194 7.564V6.948H49.5294C50.1548 6.948 50.7054 7.01333 51.1814 7.144C51.6481 7.27467 52.0308 7.46133 52.3294 7.704C52.6374 7.956 52.8614 8.25 53.0014 8.586C53.1414 8.922 53.2114 9.30933 53.2114 9.748C53.2114 10.0933 53.1554 10.42 53.0434 10.728C52.9314 11.0267 52.7681 11.3067 52.5534 11.568C52.3388 11.8293 52.0821 12.0393 51.7834 12.198C51.4101 12.4033 51.0648 12.5387 50.7474 12.604C50.9154 12.7067 51.0648 12.8467 51.1954 13.024L53.3654 15.992C53.8134 16.0667 54.0748 16.1133 54.1494 16.132H54.1354ZM49.4454 11.82C49.8561 11.82 50.2061 11.7733 50.4954 11.68C50.7754 11.5867 51.0274 11.4467 51.2514 11.26C51.4568 11.0827 51.6108 10.8773 51.7134 10.644C51.8161 10.4107 51.8674 10.14 51.8674 9.832C51.8674 9.244 51.6714 8.796 51.2794 8.488C50.8968 8.18933 50.3134 8.04 49.5294 8.04H48.1714V11.82H49.4454Z" fill="white"/>
<path d="M62.3947 9.398H61.7227C61.5547 9.398 61.4567 9.31867 61.4287 9.16L61.3307 8.082H57.5787V11.414H61.2747V12.478H57.5787V15.908H61.3307L61.4147 14.9C61.4427 14.7507 61.5453 14.676 61.7227 14.676H62.3947V17H55.1987V16.412C55.1987 16.2627 55.2687 16.174 55.4087 16.146L56.2067 15.992V7.998C55.7587 7.914 55.4927 7.858 55.4087 7.83C55.2687 7.802 55.1987 7.71333 55.1987 7.564V6.976H62.3947V9.398Z" fill="white"/>
<path d="M68.1755 11.694C69.1835 12.142 69.6875 12.8933 69.6875 13.948C69.6875 14.872 69.3981 15.6233 68.8195 16.202C68.2128 16.8087 67.3821 17.112 66.3275 17.112C65.8888 17.112 65.4315 17.07 64.9555 16.986C64.5821 16.9207 64.2088 16.832 63.8355 16.72L63.4295 16.58V14.06H64.1155C64.2741 14.06 64.3675 14.1393 64.3955 14.298C64.4141 14.3727 64.4375 14.6013 64.4655 14.984L64.5075 15.6C65.2355 15.8613 65.8048 15.992 66.2155 15.992C66.6261 15.992 66.9715 15.9453 67.2515 15.852C67.5221 15.768 67.7368 15.642 67.8955 15.474C68.2501 15.1473 68.4275 14.704 68.4275 14.144C68.4275 13.6027 68.1755 13.192 67.6715 12.912C67.4475 12.772 67.1955 12.66 66.9155 12.576C65.9168 12.268 65.3288 12.072 65.1515 11.988C64.8808 11.8667 64.6241 11.6987 64.3815 11.484C63.8868 11.0453 63.6395 10.42 63.6395 9.608C63.6395 8.87067 63.9055 8.236 64.4375 7.704C65.0161 7.144 65.7628 6.864 66.6775 6.864C67.6481 6.864 68.5861 7.05067 69.4915 7.424V9.734H68.8195C68.6515 9.734 68.5535 9.65467 68.5255 9.496C68.5255 9.468 68.5161 9.37467 68.4975 9.216C68.4881 9.048 68.4648 8.726 68.4275 8.25C67.7741 8.07267 67.2235 7.984 66.7755 7.984C66.1688 7.984 65.7021 8.13333 65.3755 8.432C65.0581 8.72133 64.8995 9.09467 64.8995 9.552C64.8995 10.0467 65.1515 10.434 65.6555 10.714C65.8608 10.8447 66.1221 10.9613 66.4395 11.064C67.2795 11.344 67.8675 11.554 68.2035 11.694H68.1755Z" fill="white"/>
<path d="M78.5895 9.188H77.9035C77.7542 9.188 77.6655 9.14133 77.6375 9.048C77.5908 8.88933 77.5441 8.58133 77.4975 8.124H75.1455V15.992L75.3135 16.02C75.7428 16.104 75.9761 16.1507 76.0135 16.16C76.1068 16.188 76.1535 16.272 76.1535 16.412V17H72.7655V16.412C72.7655 16.3373 72.7842 16.2767 72.8215 16.23C72.8682 16.174 72.9288 16.1413 73.0035 16.132L73.7735 15.978V8.11H71.4075C71.3515 8.63267 71.3095 8.94533 71.2815 9.048C71.2535 9.14133 71.1602 9.188 71.0015 9.188H70.3295V6.976H78.5895V9.188Z" fill="white"/>
<path d="M84.0622 11.694C85.0702 12.142 85.5742 12.8933 85.5742 13.948C85.5742 14.872 85.2848 15.6233 84.7062 16.202C84.0995 16.8087 83.2688 17.112 82.2142 17.112C81.7755 17.112 81.3182 17.07 80.8422 16.986C80.4688 16.9207 80.0955 16.832 79.7222 16.72L79.3162 16.58V14.06H80.0022C80.1608 14.06 80.2542 14.1393 80.2822 14.298C80.3008 14.3727 80.3242 14.6013 80.3522 14.984L80.3942 15.6C81.1222 15.8613 81.6915 15.992 82.1022 15.992C82.5128 15.992 82.8582 15.9453 83.1382 15.852C83.4088 15.768 83.6235 15.642 83.7822 15.474C84.1368 15.1473 84.3142 14.704 84.3142 14.144C84.3142 13.6027 84.0622 13.192 83.5582 12.912C83.3342 12.772 83.0822 12.66 82.8022 12.576C81.8035 12.268 81.2155 12.072 81.0382 11.988C80.7675 11.8667 80.5108 11.6987 80.2682 11.484C79.7735 11.0453 79.5262 10.42 79.5262 9.608C79.5262 8.87067 79.7922 8.236 80.3242 7.704C80.9028 7.144 81.6495 6.864 82.5642 6.864C83.5348 6.864 84.4728 7.05067 85.3782 7.424V9.734H84.7062C84.5382 9.734 84.4402 9.65467 84.4122 9.496C84.4122 9.468 84.4028 9.37467 84.3842 9.216C84.3748 9.048 84.3515 8.726 84.3142 8.25C83.6608 8.07267 83.1102 7.984 82.6622 7.984C82.0555 7.984 81.5888 8.13333 81.2622 8.432C80.9448 8.72133 80.7862 9.09467 80.7862 9.552C80.7862 10.0467 81.0382 10.434 81.5422 10.714C81.7475 10.8447 82.0088 10.9613 82.3262 11.064C83.1662 11.344 83.7542 11.554 84.0902 11.694H84.0622Z" fill="white"/>
</svg>
