<svg width="100" height="24" viewBox="0 0 100 24" fill="none" xmlns="http://www.w3.org/2000/svg">
<path d="M0 10C0 4.47715 4.47715 0 10 0H90C95.5229 0 100 4.47715 100 10V14C100 19.5228 95.5229 24 90 24H10C4.47715 24 0 19.5228 0 14V10Z" fill="#605F5F"/>
<path d="M10.82 15.992C12.1173 15.992 12.766 15.1847 12.766 13.57V7.998C12.2153 7.914 11.9026 7.858 11.828 7.83C11.6973 7.802 11.632 7.71333 11.632 7.564V6.976H15.132V7.564C15.132 7.71333 15.0573 7.802 14.908 7.83L14.124 7.984V13.528C14.124 15.2453 13.5173 16.356 12.304 16.86C11.912 17.028 11.478 17.112 11.002 17.112C10.4886 17.112 10.0033 17.0467 9.54597 16.916C9.59264 16.3187 9.64397 15.992 9.69997 15.936C9.75597 15.88 9.83064 15.852 9.92397 15.852C10.0266 15.852 10.1386 15.8707 10.26 15.908C10.4186 15.9547 10.6053 15.978 10.82 15.978V15.992Z" fill="white"/>
<path d="M25.2548 16.216C25.3762 16.244 25.4368 16.3187 25.4368 16.44V17H22.5528V16.44C22.5528 16.3187 22.6182 16.244 22.7488 16.216L23.3228 16.048L22.5388 14.032H18.2128L17.4288 16.048L18.0028 16.216C18.1242 16.244 18.1848 16.3187 18.1848 16.44V17H15.3148V16.44C15.3148 16.3187 15.3755 16.244 15.4968 16.216L16.0568 16.048L19.6968 6.976H21.0688L24.6948 16.048L25.2548 16.216ZM20.6768 9.202C20.6022 9.01533 20.4995 8.698 20.3688 8.25C20.2568 8.67933 20.1635 8.99667 20.0888 9.202L18.5908 13.052H22.1608L20.6768 9.202Z" fill="white"/>
<path d="M34.3412 7.592C34.3412 7.732 34.2758 7.816 34.1452 7.844L33.4452 8.012L29.7632 17.028H28.5452L24.8772 8.012C24.4852 7.928 24.2472 7.872 24.1632 7.844C24.0232 7.816 23.9532 7.732 23.9532 7.592V6.976H27.2852V7.592C27.2852 7.74133 27.1918 7.83 27.0052 7.858L26.6972 7.928L26.2772 8.012L28.8392 14.382C28.9418 14.606 29.0538 14.97 29.1752 15.474C29.3058 14.9327 29.4132 14.564 29.4972 14.368L32.0312 7.998C31.5832 7.914 31.3172 7.858 31.2332 7.83C31.0932 7.802 31.0232 7.71333 31.0232 7.564V6.976L34.3412 6.99V7.592Z" fill="white"/>
<path d="M42.6318 16.216C42.7531 16.244 42.8138 16.3187 42.8138 16.44V17H39.9298V16.44C39.9298 16.3187 39.9951 16.244 40.1258 16.216L40.6998 16.048L39.9158 14.032H35.5898L34.8058 16.048L35.3798 16.216C35.5011 16.244 35.5618 16.3187 35.5618 16.44V17H32.6918V16.44C32.6918 16.3187 32.7525 16.244 32.8738 16.216L33.4338 16.048L37.0738 6.976H38.4458L42.0718 16.048L42.6318 16.216ZM38.0538 9.202C37.9791 9.01533 37.8765 8.698 37.7458 8.25C37.6338 8.67933 37.5405 8.99667 37.4658 9.202L35.9678 13.052H39.5378L38.0538 9.202Z" fill="white"/>
<path d="M48.3923 11.694C49.4002 12.142 49.9043 12.8933 49.9043 13.948C49.9043 14.872 49.6149 15.6233 49.0363 16.202C48.4296 16.8087 47.5989 17.112 46.5443 17.112C46.1056 17.112 45.6483 17.07 45.1722 16.986C44.7989 16.9207 44.4256 16.832 44.0522 16.72L43.6463 16.58V14.06H44.3322C44.4909 14.06 44.5843 14.1393 44.6123 14.298C44.6309 14.3727 44.6543 14.6013 44.6823 14.984L44.7243 15.6C45.4523 15.8613 46.0216 15.992 46.4323 15.992C46.8429 15.992 47.1883 15.9453 47.4683 15.852C47.7389 15.768 47.9536 15.642 48.1123 15.474C48.4669 15.1473 48.6442 14.704 48.6442 14.144C48.6442 13.6027 48.3923 13.192 47.8883 12.912C47.6643 12.772 47.4123 12.66 47.1323 12.576C46.1336 12.268 45.5456 12.072 45.3683 11.988C45.0976 11.8667 44.8409 11.6987 44.5983 11.484C44.1036 11.0453 43.8563 10.42 43.8563 9.608C43.8563 8.87067 44.1222 8.236 44.6543 7.704C45.2329 7.144 45.9796 6.864 46.8942 6.864C47.8649 6.864 48.8029 7.05067 49.7083 7.424V9.734H49.0363C48.8683 9.734 48.7702 9.65467 48.7422 9.496C48.7422 9.468 48.7329 9.37467 48.7142 9.216C48.7049 9.048 48.6816 8.726 48.6442 8.25C47.9909 8.07267 47.4403 7.984 46.9922 7.984C46.3856 7.984 45.9189 8.13333 45.5923 8.432C45.2749 8.72133 45.1162 9.09467 45.1162 9.552C45.1162 10.0467 45.3682 10.434 45.8722 10.714C46.0776 10.8447 46.3389 10.9613 46.6562 11.064C47.4963 11.344 48.0843 11.554 48.4202 11.694H48.3923Z" fill="white"/>
<path d="M58.7503 9.916H58.0783C57.9009 9.916 57.7983 9.832 57.7703 9.664L57.6583 8.404C56.8743 8.152 56.1696 8.026 55.5443 8.026C54.4896 8.026 53.6216 8.38067 52.9403 9.09C52.2589 9.82733 51.9183 10.7933 51.9183 11.988C51.9183 12.7627 52.0583 13.4487 52.3383 14.046C52.6276 14.6433 53.0336 15.11 53.5563 15.446C54.0883 15.7727 54.7043 15.936 55.4043 15.936C55.9456 15.936 56.417 15.8707 56.8183 15.74C57.229 15.6 57.6116 15.3667 57.9663 15.04C58.0503 14.9653 58.1343 14.928 58.2183 14.928C58.2929 14.928 58.3583 14.956 58.4143 15.012L58.9463 15.6C58.0783 16.608 56.8743 17.112 55.3343 17.112C54.3636 17.112 53.5143 16.8927 52.7863 16.454C52.0676 16.006 51.5123 15.3947 51.1203 14.62C50.7376 13.8453 50.5463 12.968 50.5463 11.988C50.5463 10.4853 51.0129 9.25333 51.9463 8.292C52.8703 7.34 54.1349 6.864 55.7403 6.864C56.4869 6.864 57.4903 7.09733 58.7503 7.564V9.916Z" fill="white"/>
<path d="M67.903 16.132C67.9683 16.1507 68.0197 16.1833 68.057 16.23C68.0943 16.2673 68.113 16.3187 68.113 16.384V17H66.657C66.4143 17 66.237 16.902 66.125 16.706L63.521 13.122C63.4557 13.0287 63.3717 12.9493 63.269 12.884C63.185 12.828 63.045 12.8 62.849 12.8H61.953V15.964L62.737 16.132C62.8023 16.1507 62.8537 16.1833 62.891 16.23C62.9377 16.2673 62.961 16.3187 62.961 16.384V16.986H59.587V16.384C59.587 16.3187 59.6057 16.2673 59.643 16.23C59.6803 16.1833 59.7317 16.1507 59.797 16.132L60.609 15.964V7.984L59.797 7.816C59.7317 7.79733 59.6803 7.76933 59.643 7.732C59.6057 7.68533 59.587 7.62933 59.587 7.564V6.948H63.297C63.9223 6.948 64.473 7.01333 64.949 7.144C65.4157 7.27467 65.7983 7.46133 66.097 7.704C66.405 7.956 66.629 8.25 66.769 8.586C66.909 8.922 66.979 9.30933 66.979 9.748C66.979 10.0933 66.923 10.42 66.811 10.728C66.699 11.0267 66.5357 11.3067 66.321 11.568C66.1063 11.8293 65.8497 12.0393 65.551 12.198C65.1777 12.4033 64.8323 12.5387 64.515 12.604C64.683 12.7067 64.8323 12.8467 64.963 13.024L67.133 15.992C67.581 16.0667 67.8423 16.1133 67.917 16.132H67.903ZM63.213 11.82C63.6237 11.82 63.9737 11.7733 64.263 11.68C64.543 11.5867 64.795 11.4467 65.019 11.26C65.2243 11.0827 65.3783 10.8773 65.481 10.644C65.5837 10.4107 65.635 10.14 65.635 9.832C65.635 9.244 65.439 8.796 65.047 8.488C64.6643 8.18933 64.081 8.04 63.297 8.04H61.939V11.82H63.213Z" fill="white"/>
<path d="M71.3182 15.978L72.1722 16.146C72.2842 16.174 72.3402 16.258 72.3402 16.398V17H68.9662V16.398C68.9662 16.2487 69.0316 16.16 69.1622 16.132L69.9742 15.978V7.984L69.1342 7.816C69.0222 7.788 68.9662 7.704 68.9662 7.564V6.976H72.3402V7.564C72.3402 7.71333 72.2702 7.802 72.1302 7.83L71.3182 7.984V15.978Z" fill="white"/>
<path d="M78.6639 7.172C80.0452 7.62 80.7359 8.59067 80.7359 10.084C80.7359 11.0453 80.4185 11.8013 79.7839 12.352C79.1025 12.9493 78.1785 13.248 77.0119 13.248H75.5839V15.978C75.6585 16.006 75.9292 16.062 76.3959 16.146C76.5265 16.174 76.5919 16.2627 76.5919 16.412V17H73.2319V16.412C73.2319 16.2627 73.3019 16.174 73.4419 16.146L74.2399 15.992V7.998C73.7919 7.914 73.5259 7.858 73.4419 7.83C73.3019 7.802 73.2319 7.71333 73.2319 7.564V6.976H77.0119C77.6372 6.976 78.1879 7.046 78.6639 7.186V7.172ZM79.3779 10.056C79.3779 9.43067 79.1819 8.936 78.7899 8.572C78.4072 8.21733 77.8145 8.04 77.0119 8.04H75.5839V12.156H77.0119C77.7679 12.156 78.3512 11.9693 78.7619 11.596C79.1819 11.2133 79.3919 10.7047 79.3919 10.07L79.3779 10.056Z" fill="white"/>
<path d="M89.5953 9.188H88.9093C88.76 9.188 88.6713 9.14133 88.6433 9.048C88.5967 8.88933 88.55 8.58133 88.5033 8.124H86.1513V15.992L86.3193 16.02C86.7487 16.104 86.982 16.1507 87.0193 16.16C87.1127 16.188 87.1593 16.272 87.1593 16.412V17H83.7713V16.412C83.7713 16.3373 83.79 16.2767 83.8273 16.23C83.874 16.174 83.9347 16.1413 84.0093 16.132L84.7793 15.978V8.11H82.4133C82.3573 8.63267 82.3153 8.94533 82.2873 9.048C82.2593 9.14133 82.166 9.188 82.0073 9.188H81.3353V6.976H89.5953V9.188Z" fill="white"/>
</svg>
