<svg width="120" height="48" viewBox="0 0 120 48" fill="none" xmlns="http://www.w3.org/2000/svg">
<path d="M0 10C0 4.47715 4.47715 0 10 0H110C115.523 0 120 4.47715 120 10V38C120 43.5228 115.523 48 110 48H10C4.47715 48 0 43.5228 0 38V10Z" fill="#605F5F"/>
<path d="M6.10979 37V36.398C6.10979 36.3327 6.12846 36.2767 6.16579 36.23C6.20312 36.174 6.25446 36.1413 6.31979 36.132L7.11779 35.978V27.984L6.31979 27.83C6.25446 27.8207 6.20312 27.7927 6.16579 27.746C6.12846 27.69 6.10979 27.6293 6.10979 27.564V26.976H9.46979V27.564C9.46979 27.6293 9.45112 27.69 9.41379 27.746C9.37646 27.7927 9.32512 27.8207 9.25979 27.83L8.46179 27.984V35.852H12.0738C12.1018 35.4227 12.1298 35.1567 12.1578 35.054C12.1671 34.9887 12.1998 34.9327 12.2558 34.886C12.3118 34.8393 12.3771 34.816 12.4518 34.816H13.1378V37H6.10979Z" fill="white"/>
<path d="M23.2496 32.016C23.2496 33.0147 23.0396 33.906 22.6196 34.69C22.1996 35.4647 21.6163 36.0667 20.8696 36.496C20.123 36.9253 19.2736 37.14 18.3216 37.14C17.3603 37.14 16.5016 36.9207 15.7456 36.482C14.9896 36.0433 14.4016 35.4367 13.9816 34.662C13.571 33.878 13.3656 32.9913 13.3656 32.002C13.3656 31.0127 13.571 30.1307 13.9816 29.356C14.4016 28.572 14.985 27.9607 15.7316 27.522C16.4876 27.0833 17.351 26.864 18.3216 26.864C19.2923 26.864 20.151 27.0833 20.8976 27.522C21.6443 27.9513 22.223 28.5533 22.6336 29.328C23.0536 30.1027 23.2636 30.9893 23.2636 31.988L23.2496 32.016ZM21.8496 32.016C21.8496 30.812 21.537 29.8553 20.9116 29.146C20.2956 28.4273 19.423 28.068 18.2936 28.068C17.5376 28.068 16.8936 28.236 16.3616 28.572C15.8296 28.908 15.4236 29.3747 15.1436 29.972C14.873 30.5693 14.7376 31.2507 14.7376 32.016C14.7376 32.8093 14.8823 33.5047 15.1716 34.102C15.461 34.69 15.8716 35.1473 16.4036 35.474C16.945 35.8007 17.5796 35.964 18.3076 35.964C19.045 35.964 19.6796 35.8007 20.2116 35.474C20.7436 35.138 21.1496 34.6713 21.4296 34.074C21.719 33.4767 21.8636 32.7907 21.8636 32.016H21.8496Z" fill="white"/>
<path d="M29.3574 36.02C30.2721 36.02 31.0981 35.824 31.8354 35.432V33.22H30.2814C30.1881 33.22 30.1134 33.192 30.0574 33.136C30.0014 33.08 29.9734 33.0193 29.9734 32.954V32.184H33.0534V36.034C32.0548 36.7527 30.7854 37.112 29.2454 37.112C27.7801 37.112 26.5901 36.6407 25.6754 35.698C24.7514 34.746 24.2894 33.5093 24.2894 31.988C24.2894 30.4387 24.7468 29.2067 25.6614 28.292C26.6041 27.34 27.8548 26.864 29.4134 26.864C30.4774 26.864 31.6581 27.1067 32.9554 27.592V29.916H32.2834C32.1154 29.916 32.0174 29.8413 31.9894 29.692C31.9894 29.6453 31.9754 29.5287 31.9474 29.342C31.9288 29.1553 31.9054 28.8473 31.8774 28.418C31.5788 28.3247 31.4061 28.2733 31.3594 28.264C30.7901 28.1147 30.1881 28.04 29.5534 28.04C28.8721 28.04 28.3028 28.1333 27.8454 28.32C27.3974 28.5067 27.0101 28.768 26.6834 29.104C26.0208 29.804 25.6894 30.7653 25.6894 31.988C25.6894 33.248 26.0301 34.2373 26.7114 34.956C27.3928 35.6653 28.2748 36.02 29.3574 36.02Z" fill="white"/>
<path d="M36.3798 35.978L37.2338 36.146C37.3458 36.174 37.4018 36.258 37.4018 36.398V37H34.0278V36.398C34.0278 36.2487 34.0931 36.16 34.2238 36.132L35.0358 35.978V27.984L34.1958 27.816C34.0838 27.788 34.0278 27.704 34.0278 27.564V26.976H37.4018V27.564C37.4018 27.7133 37.3318 27.802 37.1918 27.83L36.3798 27.984V35.978Z" fill="white"/>
<path d="M43.0534 31.694C44.0614 32.142 44.5654 32.8933 44.5654 33.948C44.5654 34.872 44.2761 35.6233 43.6974 36.202C43.0907 36.8087 42.2601 37.112 41.2054 37.112C40.7667 37.112 40.3094 37.07 39.8334 36.986C39.46 36.9207 39.0867 36.832 38.7134 36.72L38.3074 36.58V34.06H38.9934C39.152 34.06 39.2454 34.1393 39.2734 34.298C39.2921 34.3727 39.3154 34.6013 39.3434 34.984L39.3854 35.6C40.1134 35.8613 40.6827 35.992 41.0934 35.992C41.5041 35.992 41.8494 35.9453 42.1294 35.852C42.4 35.768 42.6147 35.642 42.7734 35.474C43.1281 35.1473 43.3054 34.704 43.3054 34.144C43.3054 33.6027 43.0534 33.192 42.5494 32.912C42.3254 32.772 42.0734 32.66 41.7934 32.576C40.7947 32.268 40.2067 32.072 40.0294 31.988C39.7587 31.8667 39.5021 31.6987 39.2594 31.484C38.7647 31.0453 38.5174 30.42 38.5174 29.608C38.5174 28.8707 38.7834 28.236 39.3154 27.704C39.8941 27.144 40.6407 26.864 41.5554 26.864C42.526 26.864 43.4641 27.0507 44.3694 27.424V29.734H43.6974C43.5294 29.734 43.4314 29.6547 43.4034 29.496C43.4034 29.468 43.394 29.3747 43.3754 29.216C43.366 29.048 43.3427 28.726 43.3054 28.25C42.652 28.0727 42.1014 27.984 41.6534 27.984C41.0467 27.984 40.5801 28.1333 40.2534 28.432C39.9361 28.7213 39.7774 29.0947 39.7774 29.552C39.7774 30.0467 40.0294 30.434 40.5334 30.714C40.7387 30.8447 41 30.9613 41.3174 31.064C42.1574 31.344 42.7454 31.554 43.0814 31.694H43.0534Z" fill="white"/>
<path d="M53.4674 29.188H52.7814C52.6321 29.188 52.5434 29.1413 52.5154 29.048C52.4687 28.8893 52.4221 28.5813 52.3754 28.124H50.0234V35.992L50.1914 36.02C50.6207 36.104 50.8541 36.1507 50.8914 36.16C50.9847 36.188 51.0314 36.272 51.0314 36.412V37H47.6434V36.412C47.6434 36.3373 47.6621 36.2767 47.6994 36.23C47.7461 36.174 47.8067 36.1413 47.8814 36.132L48.6514 35.978V28.11H46.2854C46.2294 28.6327 46.1874 28.9453 46.1594 29.048C46.1314 29.1413 46.0381 29.188 45.8794 29.188H45.2074V26.976H53.4674V29.188Z" fill="white"/>
<path d="M56.5321 35.978L57.3861 36.146C57.4981 36.174 57.5541 36.258 57.5541 36.398V37H54.1801V36.398C54.1801 36.2487 54.2454 36.16 54.3761 36.132L55.1881 35.978V27.984L54.3481 27.816C54.2361 27.788 54.1801 27.704 54.1801 27.564V26.976H57.5541V27.564C57.5541 27.7133 57.4841 27.802 57.3441 27.83L56.5321 27.984V35.978Z" fill="white"/>
<path d="M66.4817 29.916H65.8097C65.6324 29.916 65.5297 29.832 65.5017 29.664L65.3897 28.404C64.6057 28.152 63.9011 28.026 63.2757 28.026C62.2211 28.026 61.3531 28.3807 60.6717 29.09C59.9904 29.8273 59.6497 30.7933 59.6497 31.988C59.6497 32.7627 59.7897 33.4487 60.0697 34.046C60.3591 34.6433 60.7651 35.11 61.2877 35.446C61.8197 35.7727 62.4357 35.936 63.1357 35.936C63.6771 35.936 64.1484 35.8707 64.5497 35.74C64.9604 35.6 65.3431 35.3667 65.6977 35.04C65.7817 34.9653 65.8657 34.928 65.9497 34.928C66.0244 34.928 66.0897 34.956 66.1457 35.012L66.6777 35.6C65.8097 36.608 64.6057 37.112 63.0657 37.112C62.0951 37.112 61.2457 36.8927 60.5177 36.454C59.7991 36.006 59.2437 35.3947 58.8517 34.62C58.4691 33.8453 58.2777 32.968 58.2777 31.988C58.2777 30.4853 58.7444 29.2533 59.6777 28.292C60.6017 27.34 61.8664 26.864 63.4717 26.864C64.2184 26.864 65.2217 27.0973 66.4817 27.564V29.916Z" fill="white"/>
<path d="M72.0924 31.694C73.1004 32.142 73.6044 32.8933 73.6044 33.948C73.6044 34.872 73.3151 35.6233 72.7364 36.202C72.1298 36.8087 71.2991 37.112 70.2444 37.112C69.8058 37.112 69.3484 37.07 68.8724 36.986C68.4991 36.9207 68.1258 36.832 67.7524 36.72L67.3464 36.58V34.06H68.0324C68.1911 34.06 68.2844 34.1393 68.3124 34.298C68.3311 34.3727 68.3544 34.6013 68.3824 34.984L68.4244 35.6C69.1524 35.8613 69.7218 35.992 70.1324 35.992C70.5431 35.992 70.8884 35.9453 71.1684 35.852C71.4391 35.768 71.6538 35.642 71.8124 35.474C72.1671 35.1473 72.3444 34.704 72.3444 34.144C72.3444 33.6027 72.0924 33.192 71.5884 32.912C71.3644 32.772 71.1124 32.66 70.8324 32.576C69.8338 32.268 69.2458 32.072 69.0684 31.988C68.7978 31.8667 68.5411 31.6987 68.2984 31.484C67.8038 31.0453 67.5564 30.42 67.5564 29.608C67.5564 28.8707 67.8224 28.236 68.3544 27.704C68.9331 27.144 69.6798 26.864 70.5944 26.864C71.5651 26.864 72.5031 27.0507 73.4084 27.424V29.734H72.7364C72.5684 29.734 72.4704 29.6547 72.4424 29.496C72.4424 29.468 72.4331 29.3747 72.4144 29.216C72.4051 29.048 72.3818 28.726 72.3444 28.25C71.6911 28.0727 71.1404 27.984 70.6924 27.984C70.0858 27.984 69.6191 28.1333 69.2924 28.432C68.9751 28.7213 68.8164 29.0947 68.8164 29.552C68.8164 30.0467 69.0684 30.434 69.5724 30.714C69.7778 30.8447 70.0391 30.9613 70.3564 31.064C71.1964 31.344 71.7844 31.554 72.1204 31.694H72.0924Z" fill="white"/>
<path d="M77.4223 37V36.398C77.4223 36.3327 77.441 36.2767 77.4783 36.23C77.5156 36.174 77.567 36.1413 77.6323 36.132L78.4303 35.978V27.984L77.6323 27.83C77.567 27.8207 77.5156 27.7927 77.4783 27.746C77.441 27.69 77.4223 27.6293 77.4223 27.564V26.976H80.7823V27.564C80.7823 27.6293 80.7636 27.69 80.7263 27.746C80.689 27.7927 80.6376 27.8207 80.5723 27.83L79.7743 27.984V35.852H83.3863C83.4143 35.4227 83.4423 35.1567 83.4703 35.054C83.4796 34.9887 83.5123 34.9327 83.5683 34.886C83.6243 34.8393 83.6896 34.816 83.7643 34.816H84.4503V37H77.4223Z" fill="white"/>
<path d="M92.6027 29.398H91.9307C91.7627 29.398 91.6647 29.3187 91.6367 29.16L91.5387 28.082H87.7867V31.414H91.4827V32.478H87.7867V35.908H91.5387L91.6227 34.9C91.6507 34.7507 91.7533 34.676 91.9307 34.676H92.6027V37H85.4067V36.412C85.4067 36.2627 85.4767 36.174 85.6167 36.146L86.4147 35.992V27.998C85.9667 27.914 85.7007 27.858 85.6167 27.83C85.4767 27.802 85.4067 27.7133 85.4067 27.564V26.976H92.6027V29.398Z" fill="white"/>
<path d="M103.437 36.216C103.559 36.244 103.619 36.3187 103.619 36.44V37H100.735V36.44C100.735 36.3187 100.801 36.244 100.931 36.216L101.505 36.048L100.721 34.032H96.3955L95.6115 36.048L96.1855 36.216C96.3068 36.244 96.3675 36.3187 96.3675 36.44V37H93.4975V36.44C93.4975 36.3187 93.5581 36.244 93.6795 36.216L94.2395 36.048L97.8795 26.976H99.2515L102.877 36.048L103.437 36.216ZM98.8595 29.202C98.7848 29.0153 98.6821 28.698 98.5515 28.25C98.4395 28.6793 98.3461 28.9967 98.2715 29.202L96.7735 33.052H100.343L98.8595 29.202Z" fill="white"/>
<path d="M114.014 31.988C114.014 32.9773 113.809 33.85 113.398 34.606C112.987 35.362 112.409 35.95 111.662 36.37C110.915 36.79 110.052 37 109.072 37H104.438V36.412C104.438 36.2627 104.513 36.174 104.662 36.146L105.446 35.992V27.998L104.662 27.83C104.513 27.802 104.438 27.7133 104.438 27.564V26.976H109.072C110.071 26.976 110.943 27.1907 111.69 27.62C112.437 28.04 113.011 28.628 113.412 29.384C113.813 30.14 114.014 31.008 114.014 31.988ZM112.614 31.988C112.614 30.7933 112.306 29.8413 111.69 29.132C111.074 28.4227 110.201 28.068 109.072 28.068H106.818V35.908H109.072C110.192 35.908 111.06 35.558 111.676 34.858C112.301 34.158 112.614 33.2013 112.614 31.988Z" fill="white"/>
<path d="M27.4141 20V19.58C27.4141 19.5053 27.4328 19.412 27.4701 19.3C27.4981 19.216 27.5541 19.132 27.6381 19.048L30.8581 15.828C31.1848 15.492 31.4275 15.2307 31.5861 15.044C31.7915 14.8107 31.9781 14.5587 32.1461 14.288C32.2768 14.0733 32.3935 13.812 32.4961 13.504C32.5801 13.252 32.6221 12.9767 32.6221 12.678C32.6221 12.4167 32.5755 12.16 32.4821 11.908C32.3888 11.6747 32.2628 11.488 32.1041 11.348C31.9175 11.1987 31.7261 11.0913 31.5301 11.026C31.3248 10.9607 31.0915 10.928 30.8301 10.928C30.5595 10.928 30.3261 10.9653 30.1301 11.04C29.8781 11.1333 29.6868 11.236 29.5561 11.348C29.3788 11.4973 29.2388 11.656 29.1361 11.824C29.0335 11.992 28.9541 12.188 28.8981 12.412C28.8701 12.5613 28.8141 12.664 28.7301 12.72C28.6461 12.776 28.5435 12.804 28.4221 12.804H28.3661L28.2681 12.79L27.6101 12.678C27.6661 12.23 27.7968 11.824 28.0021 11.46C28.1981 11.1147 28.4315 10.8253 28.7021 10.592C28.9915 10.3493 29.3228 10.1627 29.6961 10.032C30.0508 9.91067 30.4475 9.85 30.8861 9.85C31.3341 9.85 31.7355 9.91067 32.0901 10.032C32.4448 10.1533 32.7621 10.34 33.0421 10.592C33.3221 10.844 33.5368 11.1333 33.6861 11.46C33.8355 11.7867 33.9101 12.1787 33.9101 12.636C33.9101 13.0187 33.8541 13.364 33.7421 13.672C33.6115 14.0173 33.4621 14.3207 33.2941 14.582C33.1075 14.862 32.8835 15.1467 32.6221 15.436C32.3701 15.716 32.1041 15.996 31.8241 16.276L29.1781 18.964C29.3181 18.9267 29.5095 18.8893 29.7521 18.852C29.9481 18.824 30.1301 18.81 30.2981 18.81H33.0421C33.0608 18.5767 33.0795 18.3947 33.0981 18.264C33.1168 18.1333 33.1261 18.0493 33.1261 18.012C33.1448 17.9373 33.1821 17.8767 33.2381 17.83C33.2941 17.7833 33.3548 17.76 33.4201 17.76H34.1061V19.132L34.0921 20H27.4141Z" fill="white"/>
<path d="M42.2716 14.988C42.2716 15.8933 42.1783 16.654 41.9916 17.27C41.7863 17.9513 41.5296 18.4833 41.2216 18.866C40.867 19.3047 40.4796 19.6173 40.0596 19.804C39.593 20.0093 39.117 20.112 38.6316 20.112C38.1463 20.112 37.6703 20.0093 37.2036 19.804C36.7836 19.6173 36.3963 19.3047 36.0416 18.866C35.7336 18.4833 35.477 17.9513 35.2716 17.27C35.085 16.654 34.9916 15.8933 34.9916 14.988C34.9916 14.0827 35.085 13.322 35.2716 12.706C35.477 12.0247 35.7336 11.4927 36.0416 11.11C36.3963 10.6713 36.7836 10.3587 37.2036 10.172C37.6703 9.96667 38.1463 9.864 38.6316 9.864C39.117 9.864 39.593 9.96667 40.0596 10.172C40.4796 10.3587 40.867 10.6713 41.2216 11.11C41.5296 11.4927 41.7863 12.0247 41.9916 12.706C42.1876 13.35 42.2856 14.1107 42.2856 14.988H42.2716ZM40.9836 15.002C40.9836 14.2647 40.9183 13.6253 40.7876 13.084C40.657 12.5333 40.4843 12.1133 40.2696 11.824C40.0363 11.4973 39.7843 11.2687 39.5136 11.138C39.2336 10.998 38.9396 10.928 38.6316 10.928C38.3143 10.928 38.0156 10.998 37.7356 11.138C37.465 11.2687 37.213 11.4973 36.9796 11.824C36.7743 12.104 36.6063 12.5193 36.4756 13.07C36.345 13.6113 36.2796 14.2507 36.2796 14.988C36.2796 15.7347 36.345 16.3787 36.4756 16.92C36.6156 17.4893 36.7836 17.9093 36.9796 18.18C37.2036 18.488 37.4556 18.712 37.7356 18.852C38.0156 18.992 38.3143 19.062 38.6316 19.062C38.949 19.062 39.2476 18.992 39.5276 18.852C39.7983 18.7213 40.0503 18.4927 40.2836 18.166C40.489 17.886 40.657 17.4707 40.7876 16.92C40.9183 16.3787 40.9836 15.7393 40.9836 15.002Z" fill="white"/>
<path d="M48.8078 19.188C48.9384 19.216 49.0038 19.3 49.0038 19.44V20H43.6278V19.44C43.6278 19.3 43.6931 19.216 43.8238 19.188L45.7838 19.048V12.216C45.7838 11.936 45.7884 11.726 45.7978 11.586L44.0058 13.112C43.9218 13.1867 43.8238 13.224 43.7118 13.224C43.5811 13.224 43.4831 13.1727 43.4178 13.07L43.0258 12.524L46.0078 9.948H47.0158V19.048L48.8078 19.188Z" fill="white"/>
<path d="M53.0196 20.14C52.5062 20.14 52.0536 20.0747 51.6616 19.944C51.2416 19.804 50.8822 19.6127 50.5836 19.37C50.3036 19.1367 50.0749 18.838 49.8976 18.474C49.7389 18.1473 49.6596 17.7507 49.6596 17.284C49.6596 16.64 49.8276 16.108 50.1636 15.688C50.5089 15.2587 50.9849 14.96 51.5916 14.792C51.0782 14.6053 50.6862 14.3113 50.4156 13.91C50.1449 13.5087 50.0096 13.042 50.0096 12.51C50.0096 12.1367 50.0796 11.7913 50.2196 11.474C50.3596 11.1567 50.5649 10.8767 50.8356 10.634C51.0782 10.41 51.4002 10.2233 51.8016 10.074C52.1656 9.934 52.5809 9.864 53.0476 9.864C53.5049 9.864 53.9156 9.934 54.2796 10.074C54.6622 10.2233 54.9796 10.41 55.2316 10.634C55.5022 10.8767 55.7076 11.1567 55.8476 11.474C55.9969 11.8193 56.0716 12.1647 56.0716 12.51C56.0716 13.0513 55.9362 13.5133 55.6656 13.896C55.3669 14.3067 54.9702 14.6053 54.4756 14.792C55.0916 14.96 55.5676 15.254 55.9036 15.674C56.2396 16.094 56.4076 16.626 56.4076 17.27C56.4076 17.7087 56.3236 18.1053 56.1556 18.46C55.9876 18.8053 55.7589 19.104 55.4696 19.356C55.2082 19.58 54.8536 19.7667 54.4056 19.916C54.0136 20.0467 53.5609 20.112 53.0476 20.112L53.0196 20.14ZM52.9776 14.344C53.3136 14.344 53.5889 14.2973 53.8036 14.204C54.0462 14.092 54.2376 13.9567 54.3776 13.798C54.5456 13.5927 54.6529 13.4013 54.6996 13.224C54.7556 13 54.7836 12.776 54.7836 12.552C54.7836 12.3 54.7462 12.0853 54.6716 11.908C54.5689 11.6653 54.4569 11.4833 54.3356 11.362C54.1676 11.194 53.9809 11.0727 53.7756 10.998C53.5516 10.914 53.2902 10.872 52.9916 10.872C52.6929 10.872 52.4316 10.914 52.2076 10.998C51.9836 11.082 51.7922 11.2033 51.6336 11.362C51.4936 11.4927 51.3769 11.6747 51.2836 11.908C51.2089 12.0853 51.1716 12.3 51.1716 12.552C51.1716 12.7013 51.2089 12.9253 51.2836 13.224C51.3302 13.42 51.4329 13.6113 51.5916 13.798C51.7316 13.966 51.9182 14.1013 52.1516 14.204C52.3662 14.2973 52.6416 14.344 52.9776 14.344ZM52.9916 19.16C53.3089 19.16 53.6076 19.1133 53.8876 19.02C54.1209 18.9453 54.3356 18.8147 54.5316 18.628C54.7182 18.46 54.8582 18.264 54.9516 18.04C55.0542 17.8067 55.1056 17.55 55.1056 17.27C55.1056 16.934 55.0496 16.64 54.9376 16.388C54.8256 16.1453 54.6716 15.9447 54.4756 15.786C54.2796 15.6273 54.0556 15.5153 53.8036 15.45C53.5702 15.3847 53.3089 15.352 53.0196 15.352C52.7209 15.352 52.4549 15.3847 52.2216 15.45C51.9696 15.5153 51.7456 15.6273 51.5496 15.786C51.3536 15.9447 51.1996 16.1453 51.0876 16.388C50.9756 16.64 50.9196 16.9293 50.9196 17.256C50.9196 17.5547 50.9662 17.8113 51.0596 18.026C51.1622 18.2687 51.3022 18.4693 51.4796 18.628C51.6569 18.7867 51.8809 18.9127 52.1516 19.006C52.4036 19.09 52.6929 19.132 53.0196 19.132L52.9916 19.16Z" fill="white"/>
<path d="M60.9031 16.332H57.4591V15.268H60.9031V16.332Z" fill="white"/>
<path d="M61.8946 20V19.58C61.8946 19.5053 61.9133 19.412 61.9506 19.3C61.9786 19.216 62.0346 19.132 62.1186 19.048L65.3386 15.828C65.6653 15.492 65.9079 15.2307 66.0666 15.044C66.2719 14.8107 66.4586 14.5587 66.6266 14.288C66.7573 14.0733 66.8739 13.812 66.9766 13.504C67.0606 13.252 67.1026 12.9767 67.1026 12.678C67.1026 12.4167 67.0559 12.16 66.9626 11.908C66.8693 11.6747 66.7433 11.488 66.5846 11.348C66.3979 11.1987 66.2066 11.0913 66.0106 11.026C65.8053 10.9607 65.5719 10.928 65.3106 10.928C65.0399 10.928 64.8066 10.9653 64.6106 11.04C64.3586 11.1333 64.1673 11.236 64.0366 11.348C63.8593 11.4973 63.7193 11.656 63.6166 11.824C63.5139 11.992 63.4346 12.188 63.3786 12.412C63.3506 12.5613 63.2946 12.664 63.2106 12.72C63.1266 12.776 63.0239 12.804 62.9026 12.804H62.8466L62.7486 12.79L62.0906 12.678C62.1466 12.23 62.2773 11.824 62.4826 11.46C62.6786 11.1147 62.9119 10.8253 63.1826 10.592C63.4719 10.3493 63.8033 10.1627 64.1766 10.032C64.5313 9.91067 64.9279 9.85 65.3666 9.85C65.8146 9.85 66.2159 9.91067 66.5706 10.032C66.9253 10.1533 67.2426 10.34 67.5226 10.592C67.8026 10.844 68.0173 11.1333 68.1666 11.46C68.3159 11.7867 68.3906 12.1787 68.3906 12.636C68.3906 13.0187 68.3346 13.364 68.2226 13.672C68.0919 14.0173 67.9426 14.3207 67.7746 14.582C67.5879 14.862 67.3639 15.1467 67.1026 15.436C66.8506 15.716 66.5846 15.996 66.3046 16.276L63.6586 18.964C63.7986 18.9267 63.9899 18.8893 64.2326 18.852C64.4286 18.824 64.6106 18.81 64.7786 18.81H67.5226C67.5413 18.5767 67.5599 18.3947 67.5786 18.264C67.5973 18.1333 67.6066 18.0493 67.6066 18.012C67.6253 17.9373 67.6626 17.8767 67.7186 17.83C67.7746 17.7833 67.8353 17.76 67.9006 17.76H68.5866V19.132L68.5726 20H61.8946Z" fill="white"/>
<path d="M76.7521 14.988C76.7521 15.8933 76.6588 16.654 76.4721 17.27C76.2668 17.9513 76.0101 18.4833 75.7021 18.866C75.3474 19.3047 74.9601 19.6173 74.5401 19.804C74.0734 20.0093 73.5974 20.112 73.1121 20.112C72.6268 20.112 72.1508 20.0093 71.6841 19.804C71.2641 19.6173 70.8768 19.3047 70.5221 18.866C70.2141 18.4833 69.9574 17.9513 69.7521 17.27C69.5654 16.654 69.4721 15.8933 69.4721 14.988C69.4721 14.0827 69.5654 13.322 69.7521 12.706C69.9574 12.0247 70.2141 11.4927 70.5221 11.11C70.8768 10.6713 71.2641 10.3587 71.6841 10.172C72.1508 9.96667 72.6268 9.864 73.1121 9.864C73.5974 9.864 74.0734 9.96667 74.5401 10.172C74.9601 10.3587 75.3474 10.6713 75.7021 11.11C76.0101 11.4927 76.2668 12.0247 76.4721 12.706C76.6681 13.35 76.7661 14.1107 76.7661 14.988H76.7521ZM75.4641 15.002C75.4641 14.2647 75.3988 13.6253 75.2681 13.084C75.1374 12.5333 74.9648 12.1133 74.7501 11.824C74.5168 11.4973 74.2648 11.2687 73.9941 11.138C73.7141 10.998 73.4201 10.928 73.1121 10.928C72.7948 10.928 72.4961 10.998 72.2161 11.138C71.9454 11.2687 71.6934 11.4973 71.4601 11.824C71.2548 12.104 71.0868 12.5193 70.9561 13.07C70.8254 13.6113 70.7601 14.2507 70.7601 14.988C70.7601 15.7347 70.8254 16.3787 70.9561 16.92C71.0961 17.4893 71.2641 17.9093 71.4601 18.18C71.6841 18.488 71.9361 18.712 72.2161 18.852C72.4961 18.992 72.7948 19.062 73.1121 19.062C73.4294 19.062 73.7281 18.992 74.0081 18.852C74.2788 18.7213 74.5308 18.4927 74.7641 18.166C74.9694 17.886 75.1374 17.4707 75.2681 16.92C75.3988 16.3787 75.4641 15.7393 75.4641 15.002Z" fill="white"/>
<path d="M77.5762 20V19.58C77.5762 19.5053 77.5949 19.412 77.6322 19.3C77.6602 19.216 77.7162 19.132 77.8002 19.048L81.0202 15.828C81.3469 15.492 81.5896 15.2307 81.7482 15.044C81.9536 14.8107 82.1402 14.5587 82.3082 14.288C82.4389 14.0733 82.5556 13.812 82.6582 13.504C82.7422 13.252 82.7842 12.9767 82.7842 12.678C82.7842 12.4167 82.7376 12.16 82.6442 11.908C82.5509 11.6747 82.4249 11.488 82.2662 11.348C82.0796 11.1987 81.8882 11.0913 81.6922 11.026C81.4869 10.9607 81.2536 10.928 80.9922 10.928C80.7216 10.928 80.4882 10.9653 80.2922 11.04C80.0402 11.1333 79.8489 11.236 79.7182 11.348C79.5409 11.4973 79.4009 11.656 79.2982 11.824C79.1956 11.992 79.1162 12.188 79.0602 12.412C79.0322 12.5613 78.9762 12.664 78.8922 12.72C78.8082 12.776 78.7056 12.804 78.5842 12.804H78.5282L78.4302 12.79L77.7722 12.678C77.8282 12.23 77.9589 11.824 78.1642 11.46C78.3602 11.1147 78.5936 10.8253 78.8642 10.592C79.1536 10.3493 79.4849 10.1627 79.8582 10.032C80.2129 9.91067 80.6096 9.85 81.0482 9.85C81.4962 9.85 81.8976 9.91067 82.2522 10.032C82.6069 10.1533 82.9242 10.34 83.2042 10.592C83.4842 10.844 83.6989 11.1333 83.8482 11.46C83.9976 11.7867 84.0722 12.1787 84.0722 12.636C84.0722 13.0187 84.0162 13.364 83.9042 13.672C83.7736 14.0173 83.6242 14.3207 83.4562 14.582C83.2696 14.862 83.0456 15.1467 82.7842 15.436C82.5322 15.716 82.2662 15.996 81.9862 16.276L79.3402 18.964C79.4802 18.9267 79.6716 18.8893 79.9142 18.852C80.1102 18.824 80.2922 18.81 80.4602 18.81H83.2042C83.2229 18.5767 83.2416 18.3947 83.2602 18.264C83.2789 18.1333 83.2882 18.0493 83.2882 18.012C83.3069 17.9373 83.3442 17.8767 83.4002 17.83C83.4562 17.7833 83.5169 17.76 83.5822 17.76H84.2682V19.132L84.2542 20H77.5762Z" fill="white"/>
<path d="M92.4337 14.988C92.4337 15.8933 92.3404 16.654 92.1537 17.27C91.9484 17.9513 91.6917 18.4833 91.3837 18.866C91.0291 19.3047 90.6417 19.6173 90.2217 19.804C89.7551 20.0093 89.2791 20.112 88.7937 20.112C88.3084 20.112 87.8324 20.0093 87.3657 19.804C86.9457 19.6173 86.5584 19.3047 86.2037 18.866C85.8957 18.4833 85.6391 17.9513 85.4337 17.27C85.2471 16.654 85.1537 15.8933 85.1537 14.988C85.1537 14.0827 85.2471 13.322 85.4337 12.706C85.6391 12.0247 85.8957 11.4927 86.2037 11.11C86.5584 10.6713 86.9457 10.3587 87.3657 10.172C87.8324 9.96667 88.3084 9.864 88.7937 9.864C89.2791 9.864 89.7551 9.96667 90.2217 10.172C90.6417 10.3587 91.0291 10.6713 91.3837 11.11C91.6917 11.4927 91.9484 12.0247 92.1537 12.706C92.3497 13.35 92.4477 14.1107 92.4477 14.988H92.4337ZM91.1457 15.002C91.1457 14.2647 91.0804 13.6253 90.9497 13.084C90.8191 12.5333 90.6464 12.1133 90.4317 11.824C90.1984 11.4973 89.9464 11.2687 89.6757 11.138C89.3957 10.998 89.1017 10.928 88.7937 10.928C88.4764 10.928 88.1777 10.998 87.8977 11.138C87.6271 11.2687 87.3751 11.4973 87.1417 11.824C86.9364 12.104 86.7684 12.5193 86.6377 13.07C86.5071 13.6113 86.4417 14.2507 86.4417 14.988C86.4417 15.7347 86.5071 16.3787 86.6377 16.92C86.7777 17.4893 86.9457 17.9093 87.1417 18.18C87.3657 18.488 87.6177 18.712 87.8977 18.852C88.1777 18.992 88.4764 19.062 88.7937 19.062C89.1111 19.062 89.4097 18.992 89.6897 18.852C89.9604 18.7213 90.2124 18.4927 90.4457 18.166C90.6511 17.886 90.8191 17.4707 90.9497 16.92C91.0804 16.3787 91.1457 15.7393 91.1457 15.002Z" fill="white"/>
</svg>
