<svg width="60" height="24" viewBox="0 0 60 24" fill="none" xmlns="http://www.w3.org/2000/svg">
<path d="M0 10C0 4.47715 4.47715 0 10 0H50C55.5228 0 60 4.47715 60 10V14C60 19.5228 55.5228 24 50 24H10C4.47715 24 0 19.5228 0 14V10Z" fill="#605F5F"/>
<path d="M20.4578 7.172C21.8391 7.62 22.5298 8.59067 22.5298 10.084C22.5298 11.0453 22.2125 11.8013 21.5778 12.352C20.8965 12.9493 19.9725 13.248 18.8058 13.248H17.3778V15.978C17.4525 16.006 17.7231 16.062 18.1898 16.146C18.3205 16.174 18.3858 16.2627 18.3858 16.412V17H15.0258V16.412C15.0258 16.2627 15.0958 16.174 15.2358 16.146L16.0338 15.992V7.998C15.5858 7.914 15.3198 7.858 15.2358 7.83C15.0958 7.802 15.0258 7.71333 15.0258 7.564V6.976H18.8058C19.4311 6.976 19.9818 7.046 20.4578 7.186V7.172ZM21.1718 10.056C21.1718 9.43067 20.9758 8.936 20.5838 8.572C20.2011 8.21733 19.6085 8.04 18.8058 8.04H17.3778V12.156H18.8058C19.5618 12.156 20.1451 11.9693 20.5558 11.596C20.9758 11.2133 21.1858 10.7047 21.1858 10.07L21.1718 10.056Z" fill="white"/>
<path d="M34.7353 7.984V15.964C35.1833 16.048 35.4493 16.104 35.5333 16.132C35.6826 16.16 35.7573 16.244 35.7573 16.384V17H32.3973V16.384C32.3973 16.244 32.4673 16.16 32.6073 16.132L33.5453 15.964V9.622C33.5453 9.33267 33.5546 9.11333 33.5733 8.964L30.1293 15.236C30.0173 15.4507 29.8586 15.558 29.6533 15.558H29.4573C29.2333 15.558 29.0653 15.4507 28.9533 15.236L25.4673 8.978C25.4953 9.21133 25.5093 9.42133 25.5093 9.608V15.964L26.4613 16.132C26.5826 16.16 26.6433 16.244 26.6433 16.384V17H23.2973V16.384C23.2973 16.244 23.372 16.16 23.5213 16.132L24.3053 15.964V7.984C23.876 7.9 23.6146 7.844 23.5213 7.816C23.372 7.788 23.2973 7.704 23.2973 7.564V6.948H25.3133C25.444 6.948 25.5373 6.962 25.5933 6.99C25.6773 7.02733 25.738 7.088 25.7753 7.172L29.2333 13.36C29.3173 13.5093 29.4246 13.752 29.5553 14.088C29.63 13.8733 29.7373 13.626 29.8773 13.346L33.2653 7.172C33.3026 7.09733 33.368 7.03667 33.4613 6.99C33.5173 6.962 33.6106 6.948 33.7413 6.948H35.7573V7.564C35.7573 7.704 35.6826 7.788 35.5333 7.816L34.7353 7.984Z" fill="white"/>
<path d="M42.0867 7.172C43.468 7.62 44.1587 8.59067 44.1587 10.084C44.1587 11.0453 43.8414 11.8013 43.2067 12.352C42.5254 12.9493 41.6014 13.248 40.4347 13.248H39.0067V15.978C39.0814 16.006 39.352 16.062 39.8187 16.146C39.9494 16.174 40.0147 16.2627 40.0147 16.412V17H36.6547V16.412C36.6547 16.2627 36.7247 16.174 36.8647 16.146L37.6627 15.992V7.998C37.2147 7.914 36.9487 7.858 36.8647 7.83C36.7247 7.802 36.6547 7.71333 36.6547 7.564V6.976H40.4347C41.06 6.976 41.6107 7.046 42.0867 7.186V7.172ZM42.8007 10.056C42.8007 9.43067 42.6047 8.936 42.2127 8.572C41.83 8.21733 41.2374 8.04 40.4347 8.04H39.0067V12.156H40.4347C41.1907 12.156 41.774 11.9693 42.1847 11.596C42.6047 11.2133 42.8147 10.7047 42.8147 10.07L42.8007 10.056Z" fill="white"/>
</svg>
