<svg width="100" height="24" viewBox="0 0 100 24" fill="none" xmlns="http://www.w3.org/2000/svg">
<path d="M0 10C0 4.47715 4.47715 0 10 0H90C95.5229 0 100 4.47715 100 10V14C100 19.5228 95.5229 24 90 24H10C4.47715 24 0 19.5228 0 14V10Z" fill="#605F5F"/>
<path d="M20.5721 7.172C21.9534 7.62 22.6441 8.59067 22.6441 10.084C22.6441 11.0453 22.3267 11.8013 21.6921 12.352C21.0107 12.9493 20.0867 13.248 18.9201 13.248H17.4921V15.978C17.5667 16.006 17.8374 16.062 18.3041 16.146C18.4347 16.174 18.5001 16.2627 18.5001 16.412V17H15.1401V16.412C15.1401 16.2627 15.2101 16.174 15.3501 16.146L16.1481 15.992V7.998C15.7001 7.914 15.4341 7.858 15.3501 7.83C15.2101 7.802 15.1401 7.71333 15.1401 7.564V6.976H18.9201C19.5454 6.976 20.0961 7.046 20.5721 7.186V7.172ZM21.2861 10.056C21.2861 9.43067 21.0901 8.936 20.6981 8.572C20.3154 8.21733 19.7227 8.04 18.9201 8.04H17.4921V12.156H18.9201C19.6761 12.156 20.2594 11.9693 20.6701 11.596C21.0901 11.2133 21.3001 10.7047 21.3001 10.07L21.2861 10.056Z" fill="white"/>
<path d="M34.8495 7.984V15.964C35.2976 16.048 35.5635 16.104 35.6475 16.132C35.7969 16.16 35.8715 16.244 35.8715 16.384V17H32.5115V16.384C32.5115 16.244 32.5815 16.16 32.7215 16.132L33.6595 15.964V9.622C33.6595 9.33267 33.6689 9.11333 33.6875 8.964L30.2435 15.236C30.1315 15.4507 29.9729 15.558 29.7675 15.558H29.5715C29.3475 15.558 29.1795 15.4507 29.0675 15.236L25.5815 8.978C25.6095 9.21133 25.6235 9.42133 25.6235 9.608V15.964L26.5755 16.132C26.6969 16.16 26.7575 16.244 26.7575 16.384V17H23.4115V16.384C23.4115 16.244 23.4862 16.16 23.6355 16.132L24.4195 15.964V7.984C23.9902 7.9 23.7289 7.844 23.6355 7.816C23.4862 7.788 23.4115 7.704 23.4115 7.564V6.948H25.4275C25.5582 6.948 25.6515 6.962 25.7075 6.99C25.7915 7.02733 25.8522 7.088 25.8895 7.172L29.3475 13.36C29.4315 13.5093 29.5389 13.752 29.6695 14.088C29.7442 13.8733 29.8515 13.626 29.9915 13.346L33.3795 7.172C33.4169 7.09733 33.4822 7.03667 33.5755 6.99C33.6315 6.962 33.7249 6.948 33.8555 6.948H35.8715V7.564C35.8715 7.704 35.7969 7.788 35.6475 7.816L34.8495 7.984Z" fill="white"/>
<path d="M47.8688 9.188H47.1828C47.0334 9.188 46.9448 9.14133 46.9168 9.048C46.8701 8.88933 46.8234 8.58133 46.7768 8.124H44.4248V15.992L44.5928 16.02C45.0221 16.104 45.2554 16.1507 45.2928 16.16C45.3861 16.188 45.4328 16.272 45.4328 16.412V17H42.0448V16.412C42.0448 16.3373 42.0634 16.2767 42.1008 16.23C42.1474 16.174 42.2081 16.1413 42.2828 16.132L43.0528 15.978V8.11H40.6868C40.6308 8.63267 40.5888 8.94533 40.5608 9.048C40.5328 9.14133 40.4394 9.188 40.2808 9.188H39.6088V6.976H47.8688V9.188Z" fill="white"/>
<path d="M57.983 12.016C57.983 13.0147 57.773 13.906 57.353 14.69C56.933 15.4647 56.3497 16.0667 55.603 16.496C54.8563 16.9253 54.007 17.14 53.055 17.14C52.0937 17.14 51.235 16.9207 50.479 16.482C49.723 16.0433 49.135 15.4367 48.715 14.662C48.3043 13.878 48.099 12.9913 48.099 12.002C48.099 11.0127 48.3043 10.1307 48.715 9.356C49.135 8.572 49.7183 7.96067 50.465 7.522C51.221 7.08333 52.0844 6.864 53.055 6.864C54.0257 6.864 54.8843 7.08333 55.631 7.522C56.3777 7.95133 56.9563 8.55333 57.367 9.328C57.787 10.1027 57.997 10.9893 57.997 11.988L57.983 12.016ZM56.583 12.016C56.583 10.812 56.2703 9.85533 55.645 9.146C55.029 8.42733 54.1563 8.068 53.027 8.068C52.271 8.068 51.627 8.236 51.095 8.572C50.563 8.908 50.157 9.37467 49.877 9.972C49.6063 10.5693 49.471 11.2507 49.471 12.016C49.471 12.8093 49.6157 13.5047 49.905 14.102C50.1943 14.69 50.605 15.1473 51.137 15.474C51.6783 15.8007 52.313 15.964 53.041 15.964C53.7784 15.964 54.413 15.8007 54.945 15.474C55.477 15.138 55.883 14.6713 56.163 14.074C56.4524 13.4767 56.597 12.7907 56.597 12.016H56.583Z" fill="white"/>
<path d="M68.9068 12.016C68.9068 13.0147 68.6968 13.906 68.2768 14.69C67.8568 15.4647 67.2735 16.0667 66.5268 16.496C65.7802 16.9253 64.9308 17.14 63.9788 17.14C63.0175 17.14 62.1588 16.9207 61.4028 16.482C60.6468 16.0433 60.0588 15.4367 59.6388 14.662C59.2282 13.878 59.0228 12.9913 59.0228 12.002C59.0228 11.0127 59.2282 10.1307 59.6388 9.356C60.0588 8.572 60.6422 7.96067 61.3888 7.522C62.1448 7.08333 63.0082 6.864 63.9788 6.864C64.9495 6.864 65.8082 7.08333 66.5548 7.522C67.3015 7.95133 67.8802 8.55333 68.2908 9.328C68.7108 10.1027 68.9208 10.9893 68.9208 11.988L68.9068 12.016ZM67.5068 12.016C67.5068 10.812 67.1942 9.85533 66.5688 9.146C65.9529 8.42733 65.0802 8.068 63.9508 8.068C63.1948 8.068 62.5508 8.236 62.0188 8.572C61.4868 8.908 61.0808 9.37467 60.8008 9.972C60.5302 10.5693 60.3948 11.2507 60.3948 12.016C60.3948 12.8093 60.5395 13.5047 60.8288 14.102C61.1182 14.69 61.5288 15.1473 62.0608 15.474C62.6022 15.8007 63.2368 15.964 63.9648 15.964C64.7022 15.964 65.3368 15.8007 65.8688 15.474C66.4008 15.138 66.8068 14.6713 67.0868 14.074C67.3762 13.4767 67.5208 12.7907 67.5208 12.016H67.5068Z" fill="white"/>
<path d="M69.7455 17V16.398C69.7455 16.3327 69.7642 16.2767 69.8015 16.23C69.8389 16.174 69.8902 16.1413 69.9555 16.132L70.7535 15.978V7.984L69.9555 7.83C69.8902 7.82067 69.8389 7.79267 69.8015 7.746C69.7642 7.69 69.7455 7.62933 69.7455 7.564V6.976H73.1055V7.564C73.1055 7.62933 73.0869 7.69 73.0495 7.746C73.0122 7.79267 72.9609 7.82067 72.8955 7.83L72.0975 7.984V15.852H75.7095C75.7375 15.4227 75.7655 15.1567 75.7935 15.054C75.8029 14.9887 75.8355 14.9327 75.8915 14.886C75.9475 14.8393 76.0129 14.816 76.0875 14.816H76.7735V17H69.7455Z" fill="white"/>
<path d="M82.4899 11.694C83.4979 12.142 84.0019 12.8933 84.0019 13.948C84.0019 14.872 83.7126 15.6233 83.1339 16.202C82.5272 16.8087 81.6966 17.112 80.6419 17.112C80.2032 17.112 79.7459 17.07 79.2699 16.986C78.8966 16.9207 78.5232 16.832 78.1499 16.72L77.7439 16.58V14.06H78.4299C78.5886 14.06 78.6819 14.1393 78.7099 14.298C78.7286 14.3727 78.7519 14.6013 78.7799 14.984L78.8219 15.6C79.5499 15.8613 80.1192 15.992 80.5299 15.992C80.9406 15.992 81.2859 15.9453 81.5659 15.852C81.8366 15.768 82.0512 15.642 82.2099 15.474C82.5646 15.1473 82.7419 14.704 82.7419 14.144C82.7419 13.6027 82.4899 13.192 81.9859 12.912C81.7619 12.772 81.5099 12.66 81.2299 12.576C80.2312 12.268 79.6432 12.072 79.4659 11.988C79.1952 11.8667 78.9386 11.6987 78.6959 11.484C78.2012 11.0453 77.9539 10.42 77.9539 9.608C77.9539 8.87067 78.2199 8.236 78.7519 7.704C79.3306 7.144 80.0772 6.864 80.9919 6.864C81.9626 6.864 82.9006 7.05067 83.8059 7.424V9.734H83.1339C82.9659 9.734 82.8679 9.65467 82.8399 9.496C82.8399 9.468 82.8306 9.37467 82.8119 9.216C82.8026 9.048 82.7792 8.726 82.7419 8.25C82.0886 8.07267 81.5379 7.984 81.0899 7.984C80.4832 7.984 80.0166 8.13333 79.6899 8.432C79.3726 8.72133 79.2139 9.09467 79.2139 9.552C79.2139 10.0467 79.4659 10.434 79.9699 10.714C80.1752 10.8447 80.4366 10.9613 80.7539 11.064C81.5939 11.344 82.1819 11.554 82.5179 11.694H82.4899Z" fill="white"/>
</svg>
