<svg width="80" height="24" viewBox="0 0 80 24" fill="none" xmlns="http://www.w3.org/2000/svg">
<path d="M0 10C0 4.47715 4.47715 0 10 0H70C75.5229 0 80 4.47715 80 10V14C80 19.5228 75.5229 24 70 24H10C4.47715 24 0 19.5228 0 14V10Z" fill="#605F5F"/>
<path d="M16.7185 7.172C18.0999 7.62 18.7905 8.59067 18.7905 10.084C18.7905 11.0453 18.4732 11.8013 17.8385 12.352C17.1572 12.9493 16.2332 13.248 15.0665 13.248H13.6385V15.978C13.7132 16.006 13.9839 16.062 14.4505 16.146C14.5812 16.174 14.6465 16.2627 14.6465 16.412V17H11.2865V16.412C11.2865 16.2627 11.3565 16.174 11.4965 16.146L12.2945 15.992V7.998C11.8465 7.914 11.5805 7.858 11.4965 7.83C11.3565 7.802 11.2865 7.71333 11.2865 7.564V6.976H15.0665C15.6919 6.976 16.2425 7.046 16.7185 7.186V7.172ZM17.4325 10.056C17.4325 9.43067 17.2365 8.936 16.8445 8.572C16.4619 8.21733 15.8692 8.04 15.0665 8.04H13.6385V12.156H15.0665C15.8225 12.156 16.4059 11.9693 16.8165 11.596C17.2365 11.2133 17.4465 10.7047 17.4465 10.07L17.4325 10.056Z" fill="white"/>
<path d="M29.274 12.016C29.274 13.0147 29.064 13.906 28.644 14.69C28.224 15.4647 27.6407 16.0667 26.894 16.496C26.1474 16.9253 25.298 17.14 24.346 17.14C23.3847 17.14 22.526 16.9207 21.77 16.482C21.014 16.0433 20.426 15.4367 20.006 14.662C19.5954 13.878 19.39 12.9913 19.39 12.002C19.39 11.0127 19.5954 10.1307 20.006 9.356C20.426 8.572 21.0094 7.96067 21.756 7.522C22.512 7.08333 23.3754 6.864 24.346 6.864C25.3167 6.864 26.1754 7.08333 26.922 7.522C27.6687 7.95133 28.2474 8.55333 28.658 9.328C29.078 10.1027 29.288 10.9893 29.288 11.988L29.274 12.016ZM27.874 12.016C27.874 10.812 27.5614 9.85533 26.936 9.146C26.32 8.42733 25.4474 8.068 24.318 8.068C23.562 8.068 22.918 8.236 22.386 8.572C21.854 8.908 21.448 9.37467 21.168 9.972C20.8974 10.5693 20.762 11.2507 20.762 12.016C20.762 12.8093 20.9067 13.5047 21.196 14.102C21.4854 14.69 21.896 15.1473 22.428 15.474C22.9694 15.8007 23.604 15.964 24.332 15.964C25.0694 15.964 25.704 15.8007 26.236 15.474C26.768 15.138 27.174 14.6713 27.454 14.074C27.7434 13.4767 27.888 12.7907 27.888 12.016H27.874Z" fill="white"/>
<path d="M41.5507 7.984V15.964C41.9987 16.048 42.2647 16.104 42.3487 16.132C42.4981 16.16 42.5727 16.244 42.5727 16.384V17H39.2127V16.384C39.2127 16.244 39.2827 16.16 39.4227 16.132L40.3607 15.964V9.622C40.3607 9.33267 40.3701 9.11333 40.3887 8.964L36.9447 15.236C36.8327 15.4507 36.6741 15.558 36.4687 15.558H36.2727C36.0487 15.558 35.8807 15.4507 35.7687 15.236L32.2827 8.978C32.3107 9.21133 32.3247 9.42133 32.3247 9.608V15.964L33.2767 16.132C33.3981 16.16 33.4587 16.244 33.4587 16.384V17H30.1127V16.384C30.1127 16.244 30.1874 16.16 30.3367 16.132L31.1207 15.964V7.984C30.6914 7.9 30.4301 7.844 30.3367 7.816C30.1874 7.788 30.1127 7.704 30.1127 7.564V6.948H32.1287C32.2594 6.948 32.3527 6.962 32.4087 6.99C32.4927 7.02733 32.5534 7.088 32.5907 7.172L36.0487 13.36C36.1327 13.5093 36.2401 13.752 36.3707 14.088C36.4454 13.8733 36.5527 13.626 36.6927 13.346L40.0807 7.172C40.1181 7.09733 40.1834 7.03667 40.2767 6.99C40.3327 6.962 40.4261 6.948 40.5567 6.948H42.5727V7.564C42.5727 7.704 42.4981 7.788 42.3487 7.816L41.5507 7.984Z" fill="white"/>
<path d="M50.6661 9.398H49.9941C49.8261 9.398 49.7281 9.31867 49.7001 9.16L49.6021 8.082H45.8501V11.414H49.5461V12.478H45.8501V15.908H49.6021L49.6861 14.9C49.7141 14.7507 49.8168 14.676 49.9941 14.676H50.6661V17H43.4701V16.412C43.4701 16.2627 43.5401 16.174 43.6801 16.146L44.4781 15.992V7.998C44.0301 7.914 43.7641 7.858 43.6801 7.83C43.5401 7.802 43.4701 7.71333 43.4701 7.564V6.976H50.6661V9.398Z" fill="white"/>
<path d="M51.6869 17V16.398C51.6869 16.3327 51.7056 16.2767 51.7429 16.23C51.7803 16.174 51.8316 16.1413 51.8969 16.132L52.6949 15.978V7.984L51.8969 7.83C51.8316 7.82067 51.7803 7.79267 51.7429 7.746C51.7056 7.69 51.6869 7.62933 51.6869 7.564V6.976H55.0469V7.564C55.0469 7.62933 55.0283 7.69 54.9909 7.746C54.9536 7.79267 54.9023 7.82067 54.8369 7.83L54.0389 7.984V15.852H57.6509C57.6789 15.4227 57.7069 15.1567 57.7349 15.054C57.7443 14.9887 57.7769 14.9327 57.8329 14.886C57.8889 14.8393 57.9543 14.816 58.0289 14.816H58.7149V17H51.6869Z" fill="white"/>
<path d="M68.8268 12.016C68.8268 13.0147 68.6168 13.906 68.1968 14.69C67.7768 15.4647 67.1934 16.0667 66.4468 16.496C65.7001 16.9253 64.8508 17.14 63.8988 17.14C62.9374 17.14 62.0788 16.9207 61.3228 16.482C60.5668 16.0433 59.9788 15.4367 59.5588 14.662C59.1481 13.878 58.9428 12.9913 58.9428 12.002C58.9428 11.0127 59.1481 10.1307 59.5588 9.356C59.9788 8.572 60.5621 7.96067 61.3088 7.522C62.0648 7.08333 62.9281 6.864 63.8988 6.864C64.8694 6.864 65.7281 7.08333 66.4748 7.522C67.2214 7.95133 67.8001 8.55333 68.2108 9.328C68.6308 10.1027 68.8408 10.9893 68.8408 11.988L68.8268 12.016ZM67.4268 12.016C67.4268 10.812 67.1141 9.85533 66.4888 9.146C65.8728 8.42733 65.0001 8.068 63.8708 8.068C63.1148 8.068 62.4708 8.236 61.9388 8.572C61.4068 8.908 61.0008 9.37467 60.7208 9.972C60.4501 10.5693 60.3148 11.2507 60.3148 12.016C60.3148 12.8093 60.4594 13.5047 60.7488 14.102C61.0381 14.69 61.4488 15.1473 61.9808 15.474C62.5221 15.8007 63.1568 15.964 63.8848 15.964C64.6221 15.964 65.2568 15.8007 65.7888 15.474C66.3208 15.138 66.7268 14.6713 67.0068 14.074C67.2961 13.4767 67.4408 12.7907 67.4408 12.016H67.4268Z" fill="white"/>
</svg>
