<svg width="200" height="24" viewBox="0 0 200 24" fill="none" xmlns="http://www.w3.org/2000/svg">
<path d="M0 10C0 4.47715 4.47715 0 10 0H190C195.523 0 200 4.47715 200 10V14C200 19.5228 195.523 24 190 24H10C4.47715 24 0 19.5228 0 14V10Z" fill="#605F5F"/>
<path d="M21.8865 7.172C23.2679 7.62 23.9585 8.59067 23.9585 10.084C23.9585 11.0453 23.6412 11.8013 23.0065 12.352C22.3252 12.9493 21.4012 13.248 20.2345 13.248H18.8065V15.978C18.8812 16.006 19.1518 16.062 19.6185 16.146C19.7492 16.174 19.8145 16.2627 19.8145 16.412V17H16.4545V16.412C16.4545 16.2627 16.5245 16.174 16.6645 16.146L17.4625 15.992V7.998C17.0145 7.914 16.7485 7.858 16.6645 7.83C16.5245 7.802 16.4545 7.71333 16.4545 7.564V6.976H20.2345C20.8598 6.976 21.4105 7.046 21.8865 7.186V7.172ZM22.6005 10.056C22.6005 9.43067 22.4045 8.936 22.0125 8.572C21.6298 8.21733 21.0372 8.04 20.2345 8.04H18.8065V12.156H20.2345C20.9905 12.156 21.5738 11.9693 21.9845 11.596C22.4045 11.2133 22.6145 10.7047 22.6145 10.07L22.6005 10.056Z" fill="white"/>
<path d="M33.028 16.132C33.0933 16.1507 33.1447 16.1833 33.182 16.23C33.2193 16.2673 33.238 16.3187 33.238 16.384V17H31.782C31.5393 17 31.362 16.902 31.25 16.706L28.646 13.122C28.5807 13.0287 28.4967 12.9493 28.394 12.884C28.31 12.828 28.17 12.8 27.974 12.8H27.078V15.964L27.862 16.132C27.9273 16.1507 27.9787 16.1833 28.016 16.23C28.0627 16.2673 28.086 16.3187 28.086 16.384V16.986H24.712V16.384C24.712 16.3187 24.7307 16.2673 24.768 16.23C24.8053 16.1833 24.8567 16.1507 24.922 16.132L25.734 15.964V7.984L24.922 7.816C24.8567 7.79733 24.8053 7.76933 24.768 7.732C24.7307 7.68533 24.712 7.62933 24.712 7.564V6.948H28.422C29.0473 6.948 29.598 7.01333 30.074 7.144C30.5407 7.27467 30.9233 7.46133 31.222 7.704C31.53 7.956 31.754 8.25 31.894 8.586C32.034 8.922 32.104 9.30933 32.104 9.748C32.104 10.0933 32.048 10.42 31.936 10.728C31.824 11.0267 31.6607 11.3067 31.446 11.568C31.2313 11.8293 30.9747 12.0393 30.676 12.198C30.3027 12.4033 29.9573 12.5387 29.64 12.604C29.808 12.7067 29.9573 12.8467 30.088 13.024L32.258 15.992C32.706 16.0667 32.9673 16.1133 33.042 16.132H33.028ZM28.338 11.82C28.7487 11.82 29.0987 11.7733 29.388 11.68C29.668 11.5867 29.92 11.4467 30.144 11.26C30.3493 11.0827 30.5033 10.8773 30.606 10.644C30.7087 10.4107 30.76 10.14 30.76 9.832C30.76 9.244 30.564 8.796 30.172 8.488C29.7893 8.18933 29.206 8.04 28.422 8.04H27.064V11.82H28.338Z" fill="white"/>
<path d="M43.3014 12.016C43.3014 13.0147 43.0914 13.906 42.6714 14.69C42.2514 15.4647 41.668 16.0667 40.9214 16.496C40.1747 16.9253 39.3254 17.14 38.3734 17.14C37.412 17.14 36.5534 16.9207 35.7974 16.482C35.0414 16.0433 34.4534 15.4367 34.0334 14.662C33.6227 13.878 33.4174 12.9913 33.4174 12.002C33.4174 11.0127 33.6227 10.1307 34.0334 9.356C34.4534 8.572 35.0367 7.96067 35.7834 7.522C36.5394 7.08333 37.4027 6.864 38.3734 6.864C39.344 6.864 40.2027 7.08333 40.9494 7.522C41.696 7.95133 42.2747 8.55333 42.6854 9.328C43.1054 10.1027 43.3154 10.9893 43.3154 11.988L43.3014 12.016ZM41.9014 12.016C41.9014 10.812 41.5887 9.85533 40.9634 9.146C40.3474 8.42733 39.4747 8.068 38.3454 8.068C37.5894 8.068 36.9454 8.236 36.4134 8.572C35.8814 8.908 35.4754 9.37467 35.1954 9.972C34.9247 10.5693 34.7894 11.2507 34.7894 12.016C34.7894 12.8093 34.934 13.5047 35.2234 14.102C35.5127 14.69 35.9234 15.1473 36.4554 15.474C36.9967 15.8007 37.6314 15.964 38.3594 15.964C39.0967 15.964 39.7314 15.8007 40.2634 15.474C40.7954 15.138 41.2014 14.6713 41.4814 14.074C41.7707 13.4767 41.9154 12.7907 41.9154 12.016H41.9014Z" fill="white"/>
<path d="M45.0563 15.992C46.3536 15.992 47.0023 15.1847 47.0023 13.57V7.998C46.4516 7.914 46.139 7.858 46.0643 7.83C45.9336 7.802 45.8683 7.71333 45.8683 7.564V6.976H49.3683V7.564C49.3683 7.71333 49.2936 7.802 49.1443 7.83L48.3603 7.984V13.528C48.3603 15.2453 47.7536 16.356 46.5403 16.86C46.1483 17.028 45.7143 17.112 45.2383 17.112C44.725 17.112 44.2396 17.0467 43.7823 16.916C43.829 16.3187 43.8803 15.992 43.9363 15.936C43.9923 15.88 44.067 15.852 44.1603 15.852C44.263 15.852 44.375 15.8707 44.4963 15.908C44.655 15.9547 44.8416 15.978 45.0563 15.978V15.992Z" fill="white"/>
<path d="M57.2697 9.398H56.5977C56.4297 9.398 56.3317 9.31867 56.3037 9.16L56.2057 8.082H52.4537V11.414H56.1497V12.478H52.4537V15.908H56.2057L56.2897 14.9C56.3177 14.7507 56.4203 14.676 56.5977 14.676H57.2697V17H50.0737V16.412C50.0737 16.2627 50.1437 16.174 50.2837 16.146L51.0817 15.992V7.998C50.6337 7.914 50.3677 7.858 50.2837 7.83C50.1437 7.802 50.0737 7.71333 50.0737 7.564V6.976H57.2697V9.398Z" fill="white"/>
<path d="M66.3265 9.916H65.6544C65.4771 9.916 65.3745 9.832 65.3465 9.664L65.2345 8.404C64.4505 8.152 63.7458 8.026 63.1205 8.026C62.0658 8.026 61.1978 8.38067 60.5165 9.09C59.8351 9.82733 59.4945 10.7933 59.4945 11.988C59.4945 12.7627 59.6345 13.4487 59.9145 14.046C60.2038 14.6433 60.6098 15.11 61.1325 15.446C61.6645 15.7727 62.2805 15.936 62.9805 15.936C63.5218 15.936 63.9931 15.8707 64.3945 15.74C64.8051 15.6 65.1878 15.3667 65.5424 15.04C65.6264 14.9653 65.7105 14.928 65.7945 14.928C65.8691 14.928 65.9345 14.956 65.9905 15.012L66.5225 15.6C65.6545 16.608 64.4505 17.112 62.9105 17.112C61.9398 17.112 61.0905 16.8927 60.3625 16.454C59.6438 16.006 59.0885 15.3947 58.6965 14.62C58.3138 13.8453 58.1225 12.968 58.1225 11.988C58.1225 10.4853 58.5891 9.25333 59.5225 8.292C60.4465 7.34 61.7111 6.864 63.3165 6.864C64.0631 6.864 65.0665 7.09733 66.3265 7.564V9.916Z" fill="white"/>
<path d="M75.2692 9.188H74.5832C74.4338 9.188 74.3452 9.14133 74.3172 9.048C74.2705 8.88933 74.2238 8.58133 74.1772 8.124H71.8252V15.992L71.9932 16.02C72.4225 16.104 72.6558 16.1507 72.6932 16.16C72.7865 16.188 72.8332 16.272 72.8332 16.412V17H69.4452V16.412C69.4452 16.3373 69.4638 16.2767 69.5012 16.23C69.5478 16.174 69.6085 16.1413 69.6832 16.132L70.4532 15.978V8.11H68.0872C68.0312 8.63267 67.9892 8.94533 67.9612 9.048C67.9332 9.14133 67.8398 9.188 67.6812 9.188H67.0092V6.976H75.2692V9.188Z" fill="white"/>
<path d="M90.4277 7.984V15.964C90.8757 16.048 91.1417 16.104 91.2257 16.132C91.375 16.16 91.4497 16.244 91.4497 16.384V17H88.0897V16.384C88.0897 16.244 88.1597 16.16 88.2997 16.132L89.2377 15.964V9.622C89.2377 9.33267 89.247 9.11333 89.2657 8.964L85.8217 15.236C85.7097 15.4507 85.551 15.558 85.3457 15.558H85.1497C84.9257 15.558 84.7577 15.4507 84.6457 15.236L81.1597 8.978C81.1877 9.21133 81.2017 9.42133 81.2017 9.608V15.964L82.1537 16.132C82.275 16.16 82.3357 16.244 82.3357 16.384V17H78.9897V16.384C78.9897 16.244 79.0643 16.16 79.2137 16.132L79.9977 15.964V7.984C79.5683 7.9 79.307 7.844 79.2137 7.816C79.0643 7.788 78.9897 7.704 78.9897 7.564V6.948H81.0057C81.1363 6.948 81.2297 6.962 81.2857 6.99C81.3697 7.02733 81.4303 7.088 81.4677 7.172L84.9257 13.36C85.0097 13.5093 85.117 13.752 85.2477 14.088C85.3223 13.8733 85.4297 13.626 85.5697 13.346L88.9577 7.172C88.995 7.09733 89.0603 7.03667 89.1537 6.99C89.2097 6.962 89.303 6.948 89.4337 6.948H91.4497V7.564C91.4497 7.704 91.375 7.788 91.2257 7.816L90.4277 7.984Z" fill="white"/>
<path d="M102.161 16.216C102.282 16.244 102.343 16.3187 102.343 16.44V17H99.4591V16.44C99.4591 16.3187 99.5244 16.244 99.6551 16.216L100.229 16.048L99.4451 14.032H95.1191L94.3351 16.048L94.9091 16.216C95.0304 16.244 95.0911 16.3187 95.0911 16.44V17H92.2211V16.44C92.2211 16.3187 92.2818 16.244 92.4031 16.216L92.9631 16.048L96.6031 6.976H97.9751L101.601 16.048L102.161 16.216ZM97.5831 9.202C97.5084 9.01533 97.4058 8.698 97.2751 8.25C97.1631 8.67933 97.0698 8.99667 96.9951 9.202L95.4971 13.052H99.0671L97.5831 9.202Z" fill="white"/>
<path d="M113.326 7.592C113.326 7.732 113.251 7.816 113.102 7.844L112.304 8.012V17.014H111.618C111.431 17.014 111.272 16.9347 111.142 16.776L105.332 9.216C105.35 9.37467 105.36 9.58933 105.36 9.86V15.992C105.621 16.0293 105.934 16.0853 106.298 16.16C106.428 16.188 106.494 16.272 106.494 16.412V17.014H103.162V16.412C103.162 16.272 103.232 16.188 103.372 16.16L104.17 15.992V8.012C103.722 7.928 103.456 7.872 103.372 7.844C103.232 7.816 103.162 7.72733 103.162 7.578V6.976H104.87C104.991 6.976 105.08 6.99 105.136 7.018C105.173 7.03667 105.243 7.09733 105.346 7.2L111.142 14.76C111.123 14.6293 111.114 14.4053 111.114 14.088V8.012C110.843 7.97467 110.628 7.942 110.47 7.914C110.311 7.87667 110.218 7.85333 110.19 7.844C110.04 7.816 109.966 7.732 109.966 7.592V6.976H113.326V7.592Z" fill="white"/>
<path d="M123.653 16.216C123.775 16.244 123.835 16.3187 123.835 16.44V17H120.951V16.44C120.951 16.3187 121.017 16.244 121.147 16.216L121.721 16.048L120.937 14.032H116.611L115.827 16.048L116.401 16.216C116.523 16.244 116.583 16.3187 116.583 16.44V17H113.713V16.44C113.713 16.3187 113.774 16.244 113.895 16.216L114.455 16.048L118.095 6.976H119.467L123.093 16.048L123.653 16.216ZM119.075 9.202C119.001 9.01533 118.898 8.698 118.767 8.25C118.655 8.67933 118.562 8.99667 118.487 9.202L116.989 13.052H120.559L119.075 9.202Z" fill="white"/>
<path d="M129.253 16.02C130.168 16.02 130.994 15.824 131.731 15.432V13.22H130.177C130.084 13.22 130.009 13.192 129.953 13.136C129.897 13.08 129.869 13.0193 129.869 12.954V12.184H132.949V16.034C131.95 16.7527 130.681 17.112 129.141 17.112C127.676 17.112 126.486 16.6407 125.571 15.698C124.647 14.746 124.185 13.5093 124.185 11.988C124.185 10.4387 124.642 9.20667 125.557 8.292C126.5 7.34 127.75 6.864 129.309 6.864C130.373 6.864 131.554 7.10667 132.851 7.592V9.916H132.179C132.011 9.916 131.913 9.84133 131.885 9.692C131.885 9.64533 131.871 9.52867 131.843 9.342C131.824 9.15533 131.801 8.84733 131.773 8.418C131.474 8.32467 131.302 8.27333 131.255 8.264C130.686 8.11467 130.084 8.04 129.449 8.04C128.768 8.04 128.198 8.13333 127.741 8.32C127.293 8.50667 126.906 8.768 126.579 9.104C125.916 9.804 125.585 10.7653 125.585 11.988C125.585 13.248 125.926 14.2373 126.607 14.956C127.288 15.6653 128.17 16.02 129.253 16.02Z" fill="white"/>
<path d="M141.119 9.398H140.447C140.279 9.398 140.181 9.31867 140.153 9.16L140.055 8.082H136.303V11.414H139.999V12.478H136.303V15.908H140.055L140.139 14.9C140.167 14.7507 140.27 14.676 140.447 14.676H141.119V17H133.923V16.412C133.923 16.2627 133.993 16.174 134.133 16.146L134.931 15.992V7.998C134.483 7.914 134.217 7.858 134.133 7.83C133.993 7.802 133.923 7.71333 133.923 7.564V6.976H141.119V9.398Z" fill="white"/>
<path d="M153.578 7.984V15.964C154.026 16.048 154.292 16.104 154.376 16.132C154.525 16.16 154.6 16.244 154.6 16.384V17H151.24V16.384C151.24 16.244 151.31 16.16 151.45 16.132L152.388 15.964V9.622C152.388 9.33267 152.397 9.11333 152.416 8.964L148.972 15.236C148.86 15.4507 148.701 15.558 148.496 15.558H148.3C148.076 15.558 147.908 15.4507 147.796 15.236L144.31 8.978C144.338 9.21133 144.352 9.42133 144.352 9.608V15.964L145.304 16.132C145.425 16.16 145.486 16.244 145.486 16.384V17H142.14V16.384C142.14 16.244 142.215 16.16 142.364 16.132L143.148 15.964V7.984C142.719 7.9 142.457 7.844 142.364 7.816C142.215 7.788 142.14 7.704 142.14 7.564V6.948H144.156C144.287 6.948 144.38 6.962 144.436 6.99C144.52 7.02733 144.581 7.088 144.618 7.172L148.076 13.36C148.16 13.5093 148.267 13.752 148.398 14.088C148.473 13.8733 148.58 13.626 148.72 13.346L152.108 7.172C152.145 7.09733 152.211 7.03667 152.304 6.99C152.36 6.962 152.453 6.948 152.584 6.948H154.6V7.564C154.6 7.704 154.525 7.788 154.376 7.816L153.578 7.984Z" fill="white"/>
<path d="M162.693 9.398H162.021C161.853 9.398 161.755 9.31867 161.727 9.16L161.629 8.082H157.877V11.414H161.573V12.478H157.877V15.908H161.629L161.713 14.9C161.741 14.7507 161.844 14.676 162.021 14.676H162.693V17H155.497V16.412C155.497 16.2627 155.567 16.174 155.707 16.146L156.505 15.992V7.998C156.057 7.914 155.791 7.858 155.707 7.83C155.567 7.802 155.497 7.71333 155.497 7.564V6.976H162.693V9.398Z" fill="white"/>
<path d="M173.878 7.592C173.878 7.732 173.804 7.816 173.654 7.844L172.856 8.012V17.014H172.17C171.984 17.014 171.825 16.9347 171.694 16.776L165.884 9.216C165.903 9.37467 165.912 9.58933 165.912 9.86V15.992C166.174 16.0293 166.486 16.0853 166.85 16.16C166.981 16.188 167.046 16.272 167.046 16.412V17.014H163.714V16.412C163.714 16.272 163.784 16.188 163.924 16.16L164.722 15.992V8.012C164.274 7.928 164.008 7.872 163.924 7.844C163.784 7.816 163.714 7.72733 163.714 7.578V6.976H165.422C165.544 6.976 165.632 6.99 165.688 7.018C165.726 7.03667 165.796 7.09733 165.898 7.2L171.694 14.76C171.676 14.6293 171.666 14.4053 171.666 14.088V8.012C171.396 7.97467 171.181 7.942 171.022 7.914C170.864 7.87667 170.77 7.85333 170.742 7.844C170.593 7.816 170.518 7.732 170.518 7.592V6.976H173.878V7.592Z" fill="white"/>
<path d="M182.785 9.188H182.099C181.949 9.188 181.861 9.14133 181.833 9.048C181.786 8.88933 181.739 8.58133 181.693 8.124H179.341V15.992L179.509 16.02C179.938 16.104 180.171 16.1507 180.209 16.16C180.302 16.188 180.349 16.272 180.349 16.412V17H176.961V16.412C176.961 16.3373 176.979 16.2767 177.017 16.23C177.063 16.174 177.124 16.1413 177.199 16.132L177.969 15.978V8.11H175.603C175.547 8.63267 175.505 8.94533 175.477 9.048C175.449 9.14133 175.355 9.188 175.197 9.188H174.525V6.976H182.785V9.188Z" fill="white"/>
</svg>
