<svg width="80" height="24" viewBox="0 0 80 24" fill="none" xmlns="http://www.w3.org/2000/svg">
<path d="M0 10C0 4.47715 4.47715 0 10 0H70C75.5229 0 80 4.47715 80 10V14C80 19.5228 75.5229 24 70 24H10C4.47715 24 0 19.5228 0 14V10Z" fill="#605F5F"/>
<path d="M25.569 16.132C25.6343 16.1507 25.6857 16.1833 25.723 16.23C25.7603 16.2673 25.779 16.3187 25.779 16.384V17H24.323C24.0804 17 23.903 16.902 23.791 16.706L21.187 13.122C21.1217 13.0287 21.0377 12.9493 20.935 12.884C20.851 12.828 20.711 12.8 20.515 12.8H19.619V15.964L20.403 16.132C20.4683 16.1507 20.5197 16.1833 20.557 16.23C20.6037 16.2673 20.627 16.3187 20.627 16.384V16.986H17.253V16.384C17.253 16.3187 17.2717 16.2673 17.309 16.23C17.3463 16.1833 17.3977 16.1507 17.463 16.132L18.275 15.964V7.984L17.463 7.816C17.3977 7.79733 17.3463 7.76933 17.309 7.732C17.2717 7.68533 17.253 7.62933 17.253 7.564V6.948H20.963C21.5884 6.948 22.139 7.01333 22.615 7.144C23.0817 7.27467 23.4643 7.46133 23.763 7.704C24.071 7.956 24.295 8.25 24.435 8.586C24.575 8.922 24.645 9.30933 24.645 9.748C24.645 10.0933 24.589 10.42 24.477 10.728C24.365 11.0267 24.2017 11.3067 23.987 11.568C23.7723 11.8293 23.5157 12.0393 23.217 12.198C22.8437 12.4033 22.4983 12.5387 22.181 12.604C22.349 12.7067 22.4984 12.8467 22.629 13.024L24.799 15.992C25.247 16.0667 25.5083 16.1133 25.583 16.132H25.569ZM20.879 11.82C21.2897 11.82 21.6397 11.7733 21.929 11.68C22.209 11.5867 22.461 11.4467 22.685 11.26C22.8904 11.0827 23.0443 10.8773 23.147 10.644C23.2497 10.4107 23.301 10.14 23.301 9.832C23.301 9.244 23.105 8.796 22.713 8.488C22.3304 8.18933 21.747 8.04 20.963 8.04H19.605V11.82H20.879Z" fill="white"/>
<path d="M33.8283 9.398H33.1562C32.9883 9.398 32.8903 9.31867 32.8623 9.16L32.7643 8.082H29.0123V11.414H32.7083V12.478H29.0123V15.908H32.7643L32.8483 14.9C32.8763 14.7507 32.9789 14.676 33.1562 14.676H33.8283V17H26.6322V16.412C26.6322 16.2627 26.7023 16.174 26.8423 16.146L27.6402 15.992V7.998C27.1922 7.914 26.9263 7.858 26.8423 7.83C26.7023 7.802 26.6322 7.71333 26.6322 7.564V6.976H33.8283V9.398Z" fill="white"/>
<path d="M44.663 16.216C44.7844 16.244 44.845 16.3187 44.845 16.44V17H41.961V16.44C41.961 16.3187 42.0264 16.244 42.157 16.216L42.731 16.048L41.947 14.032H37.621L36.837 16.048L37.411 16.216C37.5324 16.244 37.593 16.3187 37.593 16.44V17H34.723V16.44C34.723 16.3187 34.7837 16.244 34.905 16.216L35.465 16.048L39.105 6.976H40.477L44.103 16.048L44.663 16.216ZM40.085 9.202C40.0104 9.01533 39.9077 8.698 39.777 8.25C39.665 8.67933 39.5717 8.99667 39.497 9.202L37.999 13.052H41.569L40.085 9.202Z" fill="white"/>
<path d="M53.0296 9.916H52.3576C52.1802 9.916 52.0776 9.832 52.0496 9.664L51.9376 8.404C51.1536 8.152 50.4489 8.026 49.8236 8.026C48.7689 8.026 47.9009 8.38067 47.2196 9.09C46.5382 9.82733 46.1976 10.7933 46.1976 11.988C46.1976 12.7627 46.3376 13.4487 46.6176 14.046C46.9069 14.6433 47.3129 15.11 47.8356 15.446C48.3676 15.7727 48.9836 15.936 49.6836 15.936C50.2249 15.936 50.6962 15.8707 51.0976 15.74C51.5082 15.6 51.8909 15.3667 52.2456 15.04C52.3296 14.9653 52.4136 14.928 52.4976 14.928C52.5722 14.928 52.6376 14.956 52.6936 15.012L53.2256 15.6C52.3576 16.608 51.1536 17.112 49.6136 17.112C48.6429 17.112 47.7936 16.8927 47.0656 16.454C46.3469 16.006 45.7916 15.3947 45.3996 14.62C45.0169 13.8453 44.8256 12.968 44.8256 11.988C44.8256 10.4853 45.2922 9.25333 46.2256 8.292C47.1496 7.34 48.4142 6.864 50.0196 6.864C50.7662 6.864 51.7696 7.09733 53.0296 7.564V9.916Z" fill="white"/>
<path d="M61.9723 9.188H61.2863C61.137 9.188 61.0483 9.14133 61.0203 9.048C60.9736 8.88933 60.927 8.58133 60.8803 8.124H58.5283V15.992L58.6963 16.02C59.1256 16.104 59.359 16.1507 59.3963 16.16C59.4896 16.188 59.5363 16.272 59.5363 16.412V17H56.1483V16.412C56.1483 16.3373 56.167 16.2767 56.2043 16.23C56.251 16.174 56.3116 16.1413 56.3863 16.132L57.1563 15.978V8.11H54.7903C54.7343 8.63267 54.6923 8.94533 54.6643 9.048C54.6363 9.14133 54.543 9.188 54.3843 9.188H53.7123V6.976H61.9723V9.188Z" fill="white"/>
</svg>
