<svg width="120" height="48" viewBox="0 0 120 48" fill="none" xmlns="http://www.w3.org/2000/svg">
<path d="M0 10C0 4.47715 4.47715 0 10 0H110C115.523 0 120 4.47715 120 10V38C120 43.5228 115.523 48 110 48H10C4.47715 48 0 43.5228 0 38V10Z" fill="#605F5F"/>
<path d="M10.5212 31.694C11.5292 32.142 12.0332 32.8933 12.0332 33.948C12.0332 34.872 11.7438 35.6233 11.1652 36.202C10.5585 36.8087 9.72782 37.112 8.67316 37.112C8.23449 37.112 7.77716 37.07 7.30116 36.986C6.92782 36.9207 6.55449 36.832 6.18116 36.72L5.77516 36.58V34.06H6.46116C6.61982 34.06 6.71316 34.1393 6.74116 34.298C6.75982 34.3727 6.78316 34.6013 6.81116 34.984L6.85316 35.6C7.58116 35.8613 8.15049 35.992 8.56116 35.992C8.97182 35.992 9.31716 35.9453 9.59716 35.852C9.86782 35.768 10.0825 35.642 10.2412 35.474C10.5958 35.1473 10.7732 34.704 10.7732 34.144C10.7732 33.6027 10.5212 33.192 10.0172 32.912C9.79316 32.772 9.54116 32.66 9.26116 32.576C8.26249 32.268 7.67449 32.072 7.49716 31.988C7.22649 31.8667 6.96982 31.6987 6.72716 31.484C6.23249 31.0453 5.98516 30.42 5.98516 29.608C5.98516 28.8707 6.25116 28.236 6.78316 27.704C7.36182 27.144 8.10849 26.864 9.02316 26.864C9.99382 26.864 10.9318 27.0507 11.8372 27.424V29.734H11.1652C10.9972 29.734 10.8992 29.6547 10.8712 29.496C10.8712 29.468 10.8618 29.3747 10.8432 29.216C10.8338 29.048 10.8105 28.726 10.7732 28.25C10.1198 28.0727 9.56916 27.984 9.12116 27.984C8.51449 27.984 8.04782 28.1333 7.72116 28.432C7.40382 28.7213 7.24516 29.0947 7.24516 29.552C7.24516 30.0467 7.49716 30.434 8.00116 30.714C8.20649 30.8447 8.46782 30.9613 8.78516 31.064C9.62516 31.344 10.2132 31.554 10.5492 31.694H10.5212Z" fill="white"/>
<path d="M20.8792 29.916H20.2072C20.0299 29.916 19.9272 29.832 19.8992 29.664L19.7872 28.404C19.0032 28.152 18.2985 28.026 17.6732 28.026C16.6185 28.026 15.7505 28.3807 15.0692 29.09C14.3879 29.8273 14.0472 30.7933 14.0472 31.988C14.0472 32.7627 14.1872 33.4487 14.4672 34.046C14.7565 34.6433 15.1625 35.11 15.6852 35.446C16.2172 35.7727 16.8332 35.936 17.5332 35.936C18.0745 35.936 18.5459 35.8707 18.9472 35.74C19.3579 35.6 19.7405 35.3667 20.0952 35.04C20.1792 34.9653 20.2632 34.928 20.3472 34.928C20.4219 34.928 20.4872 34.956 20.5432 35.012L21.0752 35.6C20.2072 36.608 19.0032 37.112 17.4632 37.112C16.4925 37.112 15.6432 36.8927 14.9152 36.454C14.1965 36.006 13.6412 35.3947 13.2492 34.62C12.8665 33.8453 12.6752 32.968 12.6752 31.988C12.6752 30.4853 13.1419 29.2533 14.0752 28.292C14.9992 27.34 16.2639 26.864 17.8692 26.864C18.6159 26.864 19.6192 27.0973 20.8792 27.564V29.916Z" fill="white"/>
<path d="M30.0319 36.132C30.0972 36.1507 30.1486 36.1833 30.1859 36.23C30.2232 36.2673 30.2419 36.3187 30.2419 36.384V37H28.7859C28.5432 37 28.3659 36.902 28.2539 36.706L25.6499 33.122C25.5846 33.0287 25.5006 32.9493 25.3979 32.884C25.3139 32.828 25.1739 32.8 24.9779 32.8H24.0819V35.964L24.8659 36.132C24.9312 36.1507 24.9826 36.1833 25.0199 36.23C25.0666 36.2673 25.0899 36.3187 25.0899 36.384V36.986H21.7159V36.384C21.7159 36.3187 21.7346 36.2673 21.7719 36.23C21.8092 36.1833 21.8606 36.1507 21.9259 36.132L22.7379 35.964V27.984L21.9259 27.816C21.8606 27.7973 21.8092 27.7693 21.7719 27.732C21.7346 27.6853 21.7159 27.6293 21.7159 27.564V26.948H25.4259C26.0512 26.948 26.6019 27.0133 27.0779 27.144C27.5446 27.2747 27.9272 27.4613 28.2259 27.704C28.5339 27.956 28.7579 28.25 28.8979 28.586C29.0379 28.922 29.1079 29.3093 29.1079 29.748C29.1079 30.0933 29.0519 30.42 28.9399 30.728C28.8279 31.0267 28.6646 31.3067 28.4499 31.568C28.2352 31.8293 27.9786 32.0393 27.6799 32.198C27.3066 32.4033 26.9612 32.5387 26.6439 32.604C26.8119 32.7067 26.9612 32.8467 27.0919 33.024L29.2619 35.992C29.7099 36.0667 29.9712 36.1133 30.0459 36.132H30.0319ZM25.3419 31.82C25.7526 31.82 26.1026 31.7733 26.3919 31.68C26.6719 31.5867 26.9239 31.4467 27.1479 31.26C27.3532 31.0827 27.5072 30.8773 27.6099 30.644C27.7126 30.4107 27.7639 30.14 27.7639 29.832C27.7639 29.244 27.5679 28.796 27.1759 28.488C26.7932 28.1893 26.2099 28.04 25.4259 28.04H24.0679V31.82H25.3419Z" fill="white"/>
<path d="M40.4707 27.578C40.4707 27.7273 40.396 27.816 40.2467 27.844L39.4487 27.998V33.08C39.4487 34.2373 39.094 35.1987 38.3847 35.964C37.6567 36.7387 36.6813 37.126 35.4587 37.126C34.2453 37.126 33.2747 36.7387 32.5467 35.964C31.828 35.1987 31.4687 34.2373 31.4687 33.08V27.998C31.0207 27.914 30.7547 27.858 30.6707 27.83C30.5307 27.802 30.4607 27.7133 30.4607 27.564V26.976H33.9747V27.564C33.9747 27.7133 33.9 27.802 33.7507 27.83C33.5453 27.8673 33.2373 27.9187 32.8267 27.984V33.052C32.8267 33.9293 33.06 34.62 33.5267 35.124C34.0027 35.656 34.6513 35.922 35.4727 35.922C36.294 35.922 36.9427 35.656 37.4187 35.124C37.8853 34.6013 38.1187 33.9153 38.1187 33.066V27.984L37.1947 27.83C37.0453 27.802 36.9707 27.7133 36.9707 27.564V26.976H40.4707V27.578Z" fill="white"/>
<path d="M52.623 27.984V35.964C53.071 36.048 53.337 36.104 53.421 36.132C53.5703 36.16 53.645 36.244 53.645 36.384V37H50.285V36.384C50.285 36.244 50.355 36.16 50.495 36.132L51.433 35.964V29.622C51.433 29.3327 51.4423 29.1133 51.461 28.964L48.017 35.236C47.905 35.4507 47.7463 35.558 47.541 35.558H47.345C47.121 35.558 46.953 35.4507 46.841 35.236L43.355 28.978C43.383 29.2113 43.397 29.4213 43.397 29.608V35.964L44.349 36.132C44.4703 36.16 44.531 36.244 44.531 36.384V37H41.185V36.384C41.185 36.244 41.2597 36.16 41.409 36.132L42.193 35.964V27.984C41.7637 27.9 41.5023 27.844 41.409 27.816C41.2597 27.788 41.185 27.704 41.185 27.564V26.948H43.201C43.3317 26.948 43.425 26.962 43.481 26.99C43.565 27.0273 43.6256 27.088 43.663 27.172L47.121 33.36C47.205 33.5093 47.3123 33.752 47.443 34.088C47.5177 33.8733 47.625 33.626 47.765 33.346L51.153 27.172C51.1903 27.0973 51.2557 27.0367 51.349 26.99C51.405 26.962 51.4983 26.948 51.629 26.948H53.645V27.564C53.645 27.704 53.5703 27.788 53.421 27.816L52.623 27.984Z" fill="white"/>
<path d="M68.9882 27.984V35.964C69.4362 36.048 69.7022 36.104 69.7862 36.132C69.9355 36.16 70.0102 36.244 70.0102 36.384V37H66.6502V36.384C66.6502 36.244 66.7202 36.16 66.8602 36.132L67.7982 35.964V29.622C67.7982 29.3327 67.8076 29.1133 67.8262 28.964L64.3822 35.236C64.2702 35.4507 64.1116 35.558 63.9062 35.558H63.7102C63.4862 35.558 63.3182 35.4507 63.2062 35.236L59.7202 28.978C59.7482 29.2113 59.7622 29.4213 59.7622 29.608V35.964L60.7142 36.132C60.8356 36.16 60.8962 36.244 60.8962 36.384V37H57.5502V36.384C57.5502 36.244 57.6249 36.16 57.7742 36.132L58.5582 35.964V27.984C58.1289 27.9 57.8676 27.844 57.7742 27.816C57.6249 27.788 57.5502 27.704 57.5502 27.564V26.948H59.5662C59.6969 26.948 59.7902 26.962 59.8462 26.99C59.9302 27.0273 59.9909 27.088 60.0282 27.172L63.4862 33.36C63.5702 33.5093 63.6776 33.752 63.8082 34.088C63.8829 33.8733 63.9902 33.626 64.1302 33.346L67.5182 27.172C67.5556 27.0973 67.6209 27.0367 67.7142 26.99C67.7702 26.962 67.8636 26.948 67.9942 26.948H70.0102V27.564C70.0102 27.704 69.9355 27.788 69.7862 27.816L68.9882 27.984Z" fill="white"/>
<path d="M80.7216 36.216C80.843 36.244 80.9036 36.3187 80.9036 36.44V37H78.0196V36.44C78.0196 36.3187 78.085 36.244 78.2156 36.216L78.7896 36.048L78.0056 34.032H73.6796L72.8956 36.048L73.4696 36.216C73.591 36.244 73.6516 36.3187 73.6516 36.44V37H70.7816V36.44C70.7816 36.3187 70.8423 36.244 70.9636 36.216L71.5236 36.048L75.1636 26.976H76.5356L80.1616 36.048L80.7216 36.216ZM76.1436 29.202C76.069 29.0153 75.9663 28.698 75.8356 28.25C75.7236 28.6793 75.6303 28.9967 75.5556 29.202L74.0576 33.052H77.6276L76.1436 29.202Z" fill="white"/>
<path d="M86.4821 31.694C87.4901 32.142 87.9941 32.8933 87.9941 33.948C87.9941 34.872 87.7048 35.6233 87.1261 36.202C86.5194 36.8087 85.6888 37.112 84.6341 37.112C84.1954 37.112 83.7381 37.07 83.2621 36.986C82.8888 36.9207 82.5154 36.832 82.1421 36.72L81.7361 36.58V34.06H82.4221C82.5808 34.06 82.6741 34.1393 82.7021 34.298C82.7208 34.3727 82.7441 34.6013 82.7721 34.984L82.8141 35.6C83.5421 35.8613 84.1114 35.992 84.5221 35.992C84.9328 35.992 85.2781 35.9453 85.5581 35.852C85.8288 35.768 86.0434 35.642 86.2021 35.474C86.5568 35.1473 86.7341 34.704 86.7341 34.144C86.7341 33.6027 86.4821 33.192 85.9781 32.912C85.7541 32.772 85.5021 32.66 85.2221 32.576C84.2234 32.268 83.6354 32.072 83.4581 31.988C83.1874 31.8667 82.9308 31.6987 82.6881 31.484C82.1934 31.0453 81.9461 30.42 81.9461 29.608C81.9461 28.8707 82.2121 28.236 82.7441 27.704C83.3228 27.144 84.0694 26.864 84.9841 26.864C85.9548 26.864 86.8928 27.0507 87.7981 27.424V29.734H87.1261C86.9581 29.734 86.8601 29.6547 86.8321 29.496C86.8321 29.468 86.8228 29.3747 86.8041 29.216C86.7948 29.048 86.7714 28.726 86.7341 28.25C86.0808 28.0727 85.5301 27.984 85.0821 27.984C84.4754 27.984 84.0088 28.1333 83.6821 28.432C83.3648 28.7213 83.2061 29.0947 83.2061 29.552C83.2061 30.0467 83.4581 30.434 83.9621 30.714C84.1674 30.8447 84.4288 30.9613 84.7461 31.064C85.5861 31.344 86.1741 31.554 86.5101 31.694H86.4821Z" fill="white"/>
<path d="M96.8961 29.188H96.2101C96.0608 29.188 95.9721 29.1413 95.9441 29.048C95.8975 28.8893 95.8508 28.5813 95.8041 28.124H93.4521V35.992L93.6201 36.02C94.0495 36.104 94.2828 36.1507 94.3201 36.16C94.4135 36.188 94.4601 36.272 94.4601 36.412V37H91.0721V36.412C91.0721 36.3373 91.0908 36.2767 91.1281 36.23C91.1748 36.174 91.2355 36.1413 91.3101 36.132L92.0801 35.978V28.11H89.7141C89.6581 28.6327 89.6161 28.9453 89.5881 29.048C89.5601 29.1413 89.4668 29.188 89.3081 29.188H88.6361V26.976H96.8961V29.188Z" fill="white"/>
<path d="M104.805 29.398H104.133C103.965 29.398 103.867 29.3187 103.839 29.16L103.741 28.082H99.9888V31.414H103.685V32.478H99.9888V35.908H103.741L103.825 34.9C103.853 34.7507 103.955 34.676 104.133 34.676H104.805V37H97.6088V36.412C97.6088 36.2627 97.6788 36.174 97.8188 36.146L98.6168 35.992V27.998C98.1688 27.914 97.9028 27.858 97.8188 27.83C97.6788 27.802 97.6088 27.7133 97.6088 27.564V26.976H104.805V29.398Z" fill="white"/>
<path d="M114.128 36.132C114.193 36.1507 114.244 36.1833 114.282 36.23C114.319 36.2673 114.338 36.3187 114.338 36.384V37H112.882C112.639 37 112.462 36.902 112.35 36.706L109.746 33.122C109.68 33.0287 109.596 32.9493 109.494 32.884C109.41 32.828 109.27 32.8 109.074 32.8H108.178V35.964L108.962 36.132C109.027 36.1507 109.078 36.1833 109.116 36.23C109.162 36.2673 109.186 36.3187 109.186 36.384V36.986H105.812V36.384C105.812 36.3187 105.83 36.2673 105.868 36.23C105.905 36.1833 105.956 36.1507 106.022 36.132L106.834 35.964V27.984L106.022 27.816C105.956 27.7973 105.905 27.7693 105.868 27.732C105.83 27.6853 105.812 27.6293 105.812 27.564V26.948H109.522C110.147 26.948 110.698 27.0133 111.174 27.144C111.64 27.2747 112.023 27.4613 112.322 27.704C112.63 27.956 112.854 28.25 112.994 28.586C113.134 28.922 113.204 29.3093 113.204 29.748C113.204 30.0933 113.148 30.42 113.036 30.728C112.924 31.0267 112.76 31.3067 112.546 31.568C112.331 31.8293 112.074 32.0393 111.776 32.198C111.402 32.4033 111.057 32.5387 110.74 32.604C110.908 32.7067 111.057 32.8467 111.188 33.024L113.358 35.992C113.806 36.0667 114.067 36.1133 114.142 36.132H114.128ZM109.438 31.82C109.848 31.82 110.198 31.7733 110.488 31.68C110.768 31.5867 111.02 31.4467 111.244 31.26C111.449 31.0827 111.603 30.8773 111.706 30.644C111.808 30.4107 111.86 30.14 111.86 29.832C111.86 29.244 111.664 28.796 111.272 28.488C110.889 28.1893 110.306 28.04 109.522 28.04H108.164V31.82H109.438Z" fill="white"/>
<path d="M45.0577 20V19.58C45.0577 19.5053 45.0763 19.412 45.1137 19.3C45.1417 19.216 45.1977 19.132 45.2817 19.048L48.5017 15.828C48.8283 15.492 49.071 15.2307 49.2297 15.044C49.435 14.8107 49.6217 14.5587 49.7897 14.288C49.9203 14.0733 50.037 13.812 50.1397 13.504C50.2237 13.252 50.2657 12.9767 50.2657 12.678C50.2657 12.4167 50.219 12.16 50.1257 11.908C50.0323 11.6747 49.9063 11.488 49.7477 11.348C49.561 11.1987 49.3697 11.0913 49.1737 11.026C48.9683 10.9607 48.735 10.928 48.4737 10.928C48.203 10.928 47.9697 10.9653 47.7737 11.04C47.5217 11.1333 47.3303 11.236 47.1997 11.348C47.0223 11.4973 46.8823 11.656 46.7797 11.824C46.677 11.992 46.5977 12.188 46.5417 12.412C46.5137 12.5613 46.4577 12.664 46.3737 12.72C46.2897 12.776 46.187 12.804 46.0657 12.804H46.0097L45.9117 12.79L45.2537 12.678C45.3097 12.23 45.4403 11.824 45.6457 11.46C45.8417 11.1147 46.075 10.8253 46.3457 10.592C46.635 10.3493 46.9663 10.1627 47.3397 10.032C47.6943 9.91067 48.091 9.85 48.5297 9.85C48.9777 9.85 49.379 9.91067 49.7337 10.032C50.0883 10.1533 50.4057 10.34 50.6857 10.592C50.9657 10.844 51.1803 11.1333 51.3297 11.46C51.479 11.7867 51.5537 12.1787 51.5537 12.636C51.5537 13.0187 51.4977 13.364 51.3857 13.672C51.255 14.0173 51.1057 14.3207 50.9377 14.582C50.751 14.862 50.527 15.1467 50.2657 15.436C50.0137 15.716 49.7477 15.996 49.4677 16.276L46.8217 18.964C46.9617 18.9267 47.153 18.8893 47.3957 18.852C47.5917 18.824 47.7737 18.81 47.9417 18.81H50.6857C50.7043 18.5767 50.723 18.3947 50.7417 18.264C50.7603 18.1333 50.7697 18.0493 50.7697 18.012C50.7883 17.9373 50.8257 17.8767 50.8817 17.83C50.9377 17.7833 50.9983 17.76 51.0637 17.76H51.7497V19.132L51.7357 20H45.0577Z" fill="white"/>
<path d="M59.9152 14.988C59.9152 15.8933 59.8218 16.654 59.6352 17.27C59.4298 17.9513 59.1732 18.4833 58.8652 18.866C58.5105 19.3047 58.1232 19.6173 57.7032 19.804C57.2365 20.0093 56.7605 20.112 56.2752 20.112C55.7898 20.112 55.3138 20.0093 54.8472 19.804C54.4272 19.6173 54.0398 19.3047 53.6852 18.866C53.3772 18.4833 53.1205 17.9513 52.9152 17.27C52.7285 16.654 52.6352 15.8933 52.6352 14.988C52.6352 14.0827 52.7285 13.322 52.9152 12.706C53.1205 12.0247 53.3772 11.4927 53.6852 11.11C54.0398 10.6713 54.4272 10.3587 54.8472 10.172C55.3138 9.96667 55.7898 9.864 56.2752 9.864C56.7605 9.864 57.2365 9.96667 57.7032 10.172C58.1232 10.3587 58.5105 10.6713 58.8652 11.11C59.1732 11.4927 59.4298 12.0247 59.6352 12.706C59.8312 13.35 59.9292 14.1107 59.9292 14.988H59.9152ZM58.6272 15.002C58.6272 14.2647 58.5618 13.6253 58.4312 13.084C58.3005 12.5333 58.1278 12.1133 57.9132 11.824C57.6798 11.4973 57.4278 11.2687 57.1572 11.138C56.8772 10.998 56.5832 10.928 56.2752 10.928C55.9578 10.928 55.6592 10.998 55.3792 11.138C55.1085 11.2687 54.8565 11.4973 54.6232 11.824C54.4178 12.104 54.2498 12.5193 54.1192 13.07C53.9885 13.6113 53.9232 14.2507 53.9232 14.988C53.9232 15.7347 53.9885 16.3787 54.1192 16.92C54.2592 17.4893 54.4272 17.9093 54.6232 18.18C54.8472 18.488 55.0992 18.712 55.3792 18.852C55.6592 18.992 55.9578 19.062 56.2752 19.062C56.5925 19.062 56.8912 18.992 57.1712 18.852C57.4418 18.7213 57.6938 18.4927 57.9272 18.166C58.1325 17.886 58.3005 17.4707 58.4312 16.92C58.5618 16.3787 58.6272 15.7393 58.6272 15.002Z" fill="white"/>
<path d="M60.7393 20V19.58C60.7393 19.5053 60.758 19.412 60.7953 19.3C60.8233 19.216 60.8793 19.132 60.9633 19.048L64.1833 15.828C64.51 15.492 64.7527 15.2307 64.9113 15.044C65.1167 14.8107 65.3033 14.5587 65.4713 14.288C65.602 14.0733 65.7187 13.812 65.8213 13.504C65.9053 13.252 65.9473 12.9767 65.9473 12.678C65.9473 12.4167 65.9007 12.16 65.8073 11.908C65.714 11.6747 65.588 11.488 65.4293 11.348C65.2427 11.1987 65.0513 11.0913 64.8553 11.026C64.65 10.9607 64.4167 10.928 64.1553 10.928C63.8847 10.928 63.6513 10.9653 63.4553 11.04C63.2033 11.1333 63.012 11.236 62.8813 11.348C62.704 11.4973 62.564 11.656 62.4613 11.824C62.3587 11.992 62.2793 12.188 62.2233 12.412C62.1953 12.5613 62.1393 12.664 62.0553 12.72C61.9713 12.776 61.8687 12.804 61.7473 12.804H61.6913L61.5933 12.79L60.9353 12.678C60.9913 12.23 61.122 11.824 61.3273 11.46C61.5233 11.1147 61.7567 10.8253 62.0273 10.592C62.3167 10.3493 62.648 10.1627 63.0213 10.032C63.376 9.91067 63.7727 9.85 64.2113 9.85C64.6593 9.85 65.0607 9.91067 65.4153 10.032C65.77 10.1533 66.0873 10.34 66.3673 10.592C66.6473 10.844 66.862 11.1333 67.0113 11.46C67.1607 11.7867 67.2353 12.1787 67.2353 12.636C67.2353 13.0187 67.1793 13.364 67.0673 13.672C66.9367 14.0173 66.7873 14.3207 66.6193 14.582C66.4327 14.862 66.2087 15.1467 65.9473 15.436C65.6953 15.716 65.4293 15.996 65.1493 16.276L62.5033 18.964C62.6433 18.9267 62.8347 18.8893 63.0773 18.852C63.2733 18.824 63.4553 18.81 63.6233 18.81H66.3673C66.386 18.5767 66.4047 18.3947 66.4233 18.264C66.442 18.1333 66.4513 18.0493 66.4513 18.012C66.47 17.9373 66.5073 17.8767 66.5633 17.83C66.6193 17.7833 66.68 17.76 66.7453 17.76H67.4313V19.132L67.4173 20H60.7393Z" fill="white"/>
<path d="M68.1768 20V19.58C68.1768 19.5053 68.1955 19.412 68.2328 19.3C68.2608 19.216 68.3168 19.132 68.4008 19.048L71.6208 15.828C71.9475 15.492 72.1902 15.2307 72.3488 15.044C72.5542 14.8107 72.7408 14.5587 72.9088 14.288C73.0395 14.0733 73.1562 13.812 73.2588 13.504C73.3428 13.252 73.3848 12.9767 73.3848 12.678C73.3848 12.4167 73.3382 12.16 73.2448 11.908C73.1515 11.6747 73.0255 11.488 72.8668 11.348C72.6802 11.1987 72.4888 11.0913 72.2928 11.026C72.0875 10.9607 71.8542 10.928 71.5928 10.928C71.3222 10.928 71.0888 10.9653 70.8928 11.04C70.6408 11.1333 70.4495 11.236 70.3188 11.348C70.1415 11.4973 70.0015 11.656 69.8988 11.824C69.7962 11.992 69.7168 12.188 69.6608 12.412C69.6328 12.5613 69.5768 12.664 69.4928 12.72C69.4088 12.776 69.3062 12.804 69.1848 12.804H69.1288L69.0308 12.79L68.3728 12.678C68.4288 12.23 68.5595 11.824 68.7648 11.46C68.9608 11.1147 69.1942 10.8253 69.4648 10.592C69.7542 10.3493 70.0855 10.1627 70.4588 10.032C70.8135 9.91067 71.2102 9.85 71.6488 9.85C72.0968 9.85 72.4982 9.91067 72.8528 10.032C73.2075 10.1533 73.5248 10.34 73.8048 10.592C74.0848 10.844 74.2995 11.1333 74.4488 11.46C74.5982 11.7867 74.6728 12.1787 74.6728 12.636C74.6728 13.0187 74.6168 13.364 74.5048 13.672C74.3742 14.0173 74.2248 14.3207 74.0568 14.582C73.8702 14.862 73.6462 15.1467 73.3848 15.436C73.1328 15.716 72.8668 15.996 72.5868 16.276L69.9408 18.964C70.0808 18.9267 70.2722 18.8893 70.5148 18.852C70.7108 18.824 70.8928 18.81 71.0608 18.81H73.8048C73.8235 18.5767 73.8422 18.3947 73.8608 18.264C73.8795 18.1333 73.8888 18.0493 73.8888 18.012C73.9075 17.9373 73.9448 17.8767 74.0008 17.83C74.0568 17.7833 74.1175 17.76 74.1828 17.76H74.8688V19.132L74.8548 20H68.1768Z" fill="white"/>
</svg>
