<svg width="120" height="24" viewBox="0 0 120 24" fill="none" xmlns="http://www.w3.org/2000/svg">
<path d="M0 10C0 4.47715 4.47715 0 10 0H110C115.523 0 120 4.47715 120 10V14C120 19.5228 115.523 24 110 24H10C4.47715 24 0 19.5228 0 14V10Z" fill="#605F5F"/>
<path d="M13.8776 11.694C14.8856 12.142 15.3896 12.8933 15.3896 13.948C15.3896 14.872 15.1003 15.6233 14.5216 16.202C13.9149 16.8087 13.0843 17.112 12.0296 17.112C11.5909 17.112 11.1336 17.07 10.6576 16.986C10.2843 16.9207 9.91093 16.832 9.5376 16.72L9.1316 16.58V14.06H9.8176C9.97627 14.06 10.0696 14.1393 10.0976 14.298C10.1163 14.3727 10.1396 14.6013 10.1676 14.984L10.2096 15.6C10.9376 15.8613 11.5069 15.992 11.9176 15.992C12.3283 15.992 12.6736 15.9453 12.9536 15.852C13.2243 15.768 13.4389 15.642 13.5976 15.474C13.9523 15.1473 14.1296 14.704 14.1296 14.144C14.1296 13.6027 13.8776 13.192 13.3736 12.912C13.1496 12.772 12.8976 12.66 12.6176 12.576C11.6189 12.268 11.0309 12.072 10.8536 11.988C10.5829 11.8667 10.3263 11.6987 10.0836 11.484C9.58893 11.0453 9.3416 10.42 9.3416 9.608C9.3416 8.87067 9.6076 8.236 10.1396 7.704C10.7183 7.144 11.4649 6.864 12.3796 6.864C13.3503 6.864 14.2883 7.05067 15.1936 7.424V9.734H14.5216C14.3536 9.734 14.2556 9.65467 14.2276 9.496C14.2276 9.468 14.2183 9.37467 14.1996 9.216C14.1903 9.048 14.1669 8.726 14.1296 8.25C13.4763 8.07267 12.9256 7.984 12.4776 7.984C11.8709 7.984 11.4043 8.13333 11.0776 8.432C10.7603 8.72133 10.6016 9.09467 10.6016 9.552C10.6016 10.0467 10.8536 10.434 11.3576 10.714C11.5629 10.8447 11.8243 10.9613 12.1416 11.064C12.9816 11.344 13.5696 11.554 13.9056 11.694H13.8776Z" fill="white"/>
<path d="M24.2916 9.188H23.6056C23.4563 9.188 23.3676 9.14133 23.3396 9.048C23.293 8.88933 23.2463 8.58133 23.1996 8.124H20.8476V15.992L21.0156 16.02C21.445 16.104 21.6783 16.1507 21.7156 16.16C21.809 16.188 21.8556 16.272 21.8556 16.412V17H18.4676V16.412C18.4676 16.3373 18.4863 16.2767 18.5236 16.23C18.5703 16.174 18.631 16.1413 18.7056 16.132L19.4756 15.978V8.11H17.1096C17.0536 8.63267 17.0116 8.94533 16.9836 9.048C16.9556 9.14133 16.8623 9.188 16.7036 9.188H16.0316V6.976H24.2916V9.188Z" fill="white"/>
<path d="M34.0763 7.592C34.0763 7.732 34.0203 7.816 33.9083 7.844L33.1803 8.012L30.1143 13.024V15.992C30.357 16.0573 30.623 16.1133 30.9123 16.16C31.0523 16.188 31.1223 16.272 31.1223 16.412V17.014H27.7483V16.412C27.7483 16.272 27.823 16.188 27.9723 16.16L28.7563 15.992V13.024L25.7043 8.012L25.0043 7.844C24.8737 7.816 24.8083 7.72733 24.8083 7.578V6.976H28.1683V7.578C28.1683 7.72733 28.0983 7.816 27.9583 7.844C27.4637 7.94667 27.1977 7.998 27.1603 7.998L29.0363 11.19C29.223 11.526 29.3583 11.82 29.4423 12.072C29.5543 11.736 29.6897 11.4373 29.8483 11.176L31.7243 7.984C31.6777 7.984 31.407 7.93267 30.9123 7.83C30.7817 7.802 30.7163 7.71333 30.7163 7.564V6.976H34.0763V7.592Z" fill="white"/>
<path d="M34.8207 17V16.398C34.8207 16.3327 34.8394 16.2767 34.8767 16.23C34.9141 16.174 34.9654 16.1413 35.0307 16.132L35.8287 15.978V7.984L35.0307 7.83C34.9654 7.82067 34.9141 7.79267 34.8767 7.746C34.8394 7.69 34.8207 7.62933 34.8207 7.564V6.976H38.1807V7.564C38.1807 7.62933 38.1621 7.69 38.1247 7.746C38.0874 7.79267 38.0361 7.82067 37.9707 7.83L37.1727 7.984V15.852H40.7847C40.8127 15.4227 40.8407 15.1567 40.8687 15.054C40.8781 14.9887 40.9107 14.9327 40.9667 14.886C41.0227 14.8393 41.0881 14.816 41.1627 14.816H41.8487V17H34.8207Z" fill="white"/>
<path d="M50.0011 9.398H49.3291C49.1611 9.398 49.0631 9.31867 49.0351 9.16L48.9371 8.082H45.1851V11.414H48.8811V12.478H45.1851V15.908H48.9371L49.0211 14.9C49.0491 14.7507 49.1518 14.676 49.3291 14.676H50.0011V17H42.8051V16.412C42.8051 16.2627 42.8751 16.174 43.0151 16.146L43.8131 15.992V7.998C43.3651 7.914 43.0991 7.858 43.0151 7.83C42.8751 7.802 42.8051 7.71333 42.8051 7.564V6.976H50.0011V9.398Z" fill="white"/>
<path d="M62.1217 9.188H61.4357C61.2864 9.188 61.1977 9.14133 61.1697 9.048C61.123 8.88933 61.0764 8.58133 61.0297 8.124H58.6777V15.992L58.8457 16.02C59.275 16.104 59.5084 16.1507 59.5457 16.16C59.639 16.188 59.6857 16.272 59.6857 16.412V17H56.2977V16.412C56.2977 16.3373 56.3164 16.2767 56.3537 16.23C56.4004 16.174 56.461 16.1413 56.5357 16.132L57.3057 15.978V8.11H54.9397C54.8837 8.63267 54.8417 8.94533 54.8137 9.048C54.7857 9.14133 54.6924 9.188 54.5337 9.188H53.8617V6.976H62.1217V9.188Z" fill="white"/>
<path d="M71.9624 15.978L72.8024 16.146C72.9144 16.174 72.9704 16.258 72.9704 16.398V17H69.5824V16.398C69.5824 16.2487 69.6571 16.16 69.8064 16.132L70.5904 15.978V12.436H65.1864V15.978C65.8584 16.118 66.1944 16.258 66.1944 16.398V17H62.8204V16.398C62.8204 16.2487 62.8904 16.16 63.0304 16.132L63.8284 15.978V7.984L62.9884 7.816C62.8764 7.788 62.8204 7.704 62.8204 7.564V6.976H66.1944V7.564C66.1944 7.704 66.1477 7.788 66.0544 7.816C65.9517 7.844 65.6671 7.9 65.2004 7.984V11.442H70.6044V7.984L69.7644 7.816C69.6524 7.788 69.5964 7.704 69.5964 7.564V6.976H72.9844V7.564C72.9844 7.71333 72.9144 7.802 72.7744 7.83L71.9624 7.984V15.978Z" fill="white"/>
<path d="M81.0773 9.398H80.4053C80.2373 9.398 80.1393 9.31867 80.1113 9.16L80.0133 8.082H76.2613V11.414H79.9573V12.478H76.2613V15.908H80.0133L80.0973 14.9C80.1253 14.7507 80.2279 14.676 80.4053 14.676H81.0773V17H73.8813V16.412C73.8813 16.2627 73.9513 16.174 74.0913 16.146L74.8893 15.992V7.998C74.4413 7.914 74.1753 7.858 74.0913 7.83C73.9513 7.802 73.8813 7.71333 73.8813 7.564V6.976H81.0773V9.398Z" fill="white"/>
<path d="M91.8141 12.016C91.8141 13.0147 91.6041 13.906 91.1841 14.69C90.7641 15.4647 90.1807 16.0667 89.4341 16.496C88.6874 16.9253 87.8381 17.14 86.8861 17.14C85.9247 17.14 85.0661 16.9207 84.3101 16.482C83.5541 16.0433 82.9661 15.4367 82.5461 14.662C82.1354 13.878 81.9301 12.9913 81.9301 12.002C81.9301 11.0127 82.1354 10.1307 82.5461 9.356C82.9661 8.572 83.5494 7.96067 84.2961 7.522C85.0521 7.08333 85.9154 6.864 86.8861 6.864C87.8567 6.864 88.7154 7.08333 89.4621 7.522C90.2087 7.95133 90.7874 8.55333 91.1981 9.328C91.6181 10.1027 91.8281 10.9893 91.8281 11.988L91.8141 12.016ZM90.4141 12.016C90.4141 10.812 90.1014 9.85533 89.4761 9.146C88.8601 8.42733 87.9874 8.068 86.8581 8.068C86.1021 8.068 85.4581 8.236 84.9261 8.572C84.3941 8.908 83.9881 9.37467 83.7081 9.972C83.4374 10.5693 83.3021 11.2507 83.3021 12.016C83.3021 12.8093 83.4467 13.5047 83.7361 14.102C84.0254 14.69 84.4361 15.1473 84.9681 15.474C85.5094 15.8007 86.1441 15.964 86.8721 15.964C87.6094 15.964 88.2441 15.8007 88.7761 15.474C89.3081 15.138 89.7141 14.6713 89.9941 14.074C90.2834 13.4767 90.4281 12.7907 90.4281 12.016H90.4141Z" fill="white"/>
<path d="M100.955 16.132C101.02 16.1507 101.071 16.1833 101.109 16.23C101.146 16.2673 101.165 16.3187 101.165 16.384V17H99.7088C99.4661 17 99.2888 16.902 99.1768 16.706L96.5728 13.122C96.5074 13.0287 96.4234 12.9493 96.3208 12.884C96.2368 12.828 96.0968 12.8 95.9008 12.8H95.0048V15.964L95.7888 16.132C95.8541 16.1507 95.9054 16.1833 95.9428 16.23C95.9894 16.2673 96.0128 16.3187 96.0128 16.384V16.986H92.6388V16.384C92.6388 16.3187 92.6574 16.2673 92.6948 16.23C92.7321 16.1833 92.7834 16.1507 92.8488 16.132L93.6608 15.964V7.984L92.8488 7.816C92.7834 7.79733 92.7321 7.76933 92.6948 7.732C92.6574 7.68533 92.6388 7.62933 92.6388 7.564V6.948H96.3488C96.9741 6.948 97.5248 7.01333 98.0008 7.144C98.4674 7.27467 98.8501 7.46133 99.1488 7.704C99.4568 7.956 99.6808 8.25 99.8208 8.586C99.9608 8.922 100.031 9.30933 100.031 9.748C100.031 10.0933 99.9748 10.42 99.8628 10.728C99.7508 11.0267 99.5874 11.3067 99.3728 11.568C99.1581 11.8293 98.9014 12.0393 98.6028 12.198C98.2294 12.4033 97.8841 12.5387 97.5668 12.604C97.7348 12.7067 97.8841 12.8467 98.0148 13.024L100.185 15.992C100.633 16.0667 100.894 16.1133 100.969 16.132H100.955ZM96.2648 11.82C96.6754 11.82 97.0254 11.7733 97.3148 11.68C97.5948 11.5867 97.8468 11.4467 98.0708 11.26C98.2761 11.0827 98.4301 10.8773 98.5328 10.644C98.6354 10.4107 98.6868 10.14 98.6868 9.832C98.6868 9.244 98.4908 8.796 98.0988 8.488C97.7161 8.18933 97.1328 8.04 96.3488 8.04H94.9908V11.82H96.2648Z" fill="white"/>
<path d="M111.09 7.592C111.09 7.732 111.034 7.816 110.922 7.844L110.194 8.012L107.128 13.024V15.992C107.371 16.0573 107.637 16.1133 107.926 16.16C108.066 16.188 108.136 16.272 108.136 16.412V17.014H104.762V16.412C104.762 16.272 104.837 16.188 104.986 16.16L105.77 15.992V13.024L102.718 8.012L102.018 7.844C101.887 7.816 101.822 7.72733 101.822 7.578V6.976H105.182V7.578C105.182 7.72733 105.112 7.816 104.972 7.844C104.477 7.94667 104.211 7.998 104.174 7.998L106.05 11.19C106.237 11.526 106.372 11.82 106.456 12.072C106.568 11.736 106.703 11.4373 106.862 11.176L108.738 7.984C108.691 7.984 108.421 7.93267 107.926 7.83C107.795 7.802 107.73 7.71333 107.73 7.564V6.976H111.09V7.592Z" fill="white"/>
</svg>
