<svg width="80" height="24" viewBox="0 0 80 24" fill="none" xmlns="http://www.w3.org/2000/svg">
<path d="M0 10C0 4.47715 4.47715 0 10 0H70C75.5228 0 80 4.47715 80 10V14C80 19.5228 75.5228 24 70 24H10C4.47715 24 0 19.5228 0 14V10Z" fill="#605F5F"/>
<path d="M24.4349 7.578C24.4349 7.72733 24.3602 7.816 24.2109 7.844L23.5109 7.998L20.7109 17H19.4789L16.9449 9.356C16.8982 9.244 16.8515 9.076 16.8049 8.852L16.7349 9.104C16.7255 9.14133 16.7162 9.18333 16.7069 9.23C16.6975 9.27667 16.6882 9.31867 16.6789 9.356L14.1309 17H12.8989L10.0989 7.984C9.73485 7.90933 9.50152 7.85333 9.39885 7.816C9.24952 7.788 9.17485 7.704 9.17485 7.564V6.962H12.5909V7.564C12.5909 7.704 12.5162 7.788 12.3669 7.816C12.1615 7.86267 11.9935 7.9 11.8629 7.928C11.7322 7.956 11.6389 7.97467 11.5829 7.984L13.4309 14.256C13.5335 14.6293 13.5989 14.9187 13.6269 15.124C13.7109 14.7227 13.7809 14.4333 13.8369 14.256L16.2029 7.284C16.2309 7.20933 16.2869 7.13467 16.3709 7.06C16.4642 6.98533 16.5622 6.948 16.6649 6.948H17.0569C17.2809 6.948 17.4349 7.06 17.5189 7.284L19.8709 14.256C19.9735 14.5733 20.0482 14.8533 20.0949 15.096L20.1649 14.648L20.2489 14.256L22.1109 7.984C22.0549 7.984 21.8915 7.95133 21.6209 7.886L21.3269 7.83C21.1775 7.802 21.1029 7.71333 21.1029 7.564V6.976H24.4349V7.578Z" fill="white"/>
<path d="M32.3449 9.398H31.6729C31.5049 9.398 31.4069 9.31867 31.3789 9.16L31.2809 8.082H27.5289V11.414H31.2249V12.478H27.5289V15.908H31.2809L31.3649 14.9C31.3929 14.7507 31.4955 14.676 31.6729 14.676H32.3449V17H25.1489V16.412C25.1489 16.2627 25.2189 16.174 25.3589 16.146L26.1569 15.992V7.998C25.7089 7.914 25.4429 7.858 25.3589 7.83C25.2189 7.802 25.1489 7.71333 25.1489 7.564V6.976H32.3449V9.398Z" fill="white"/>
<path d="M39.2176 11.848C40.6923 12.1373 41.4296 12.9027 41.4296 14.144C41.4296 15.0493 41.103 15.754 40.4496 16.258C39.7963 16.7527 38.947 17 37.9016 17H33.3517V16.384C33.3517 16.244 33.4216 16.16 33.5616 16.132L34.3596 15.964V8.012L33.5616 7.844C33.4216 7.816 33.3517 7.732 33.3517 7.592V6.976H37.5656C38.6576 6.976 39.5163 7.18133 40.1416 7.592C40.7763 8.00267 41.0936 8.63733 41.0936 9.496C41.0936 10.1027 40.9396 10.5973 40.6316 10.98C40.3236 11.3627 39.8523 11.652 39.2176 11.848ZM37.5096 11.456C38.219 11.456 38.7696 11.3207 39.1616 11.05C39.5536 10.77 39.7496 10.3453 39.7496 9.776C39.7496 9.16933 39.563 8.73533 39.1896 8.474C38.8256 8.20333 38.2843 8.068 37.5656 8.068H35.7176V11.456H37.5096ZM40.0856 14.116C40.0856 13.5373 39.8896 13.1127 39.4977 12.842C39.115 12.5713 38.5783 12.436 37.8876 12.436H35.7176V15.922H37.9016C38.639 15.9313 39.185 15.782 39.5396 15.474C39.9036 15.1567 40.0856 14.704 40.0856 14.116Z" fill="white"/>
<path d="M46.944 11.694C47.952 12.142 48.456 12.8933 48.456 13.948C48.456 14.872 48.1667 15.6233 47.588 16.202C46.9813 16.8087 46.1507 17.112 45.096 17.112C44.6573 17.112 44.2 17.07 43.724 16.986C43.3507 16.9207 42.9773 16.832 42.604 16.72L42.198 16.58V14.06H42.884C43.0427 14.06 43.136 14.1393 43.164 14.298C43.1827 14.3727 43.206 14.6013 43.234 14.984L43.276 15.6C44.004 15.8613 44.5733 15.992 44.984 15.992C45.3947 15.992 45.74 15.9453 46.02 15.852C46.2907 15.768 46.5053 15.642 46.664 15.474C47.0187 15.1473 47.196 14.704 47.196 14.144C47.196 13.6027 46.944 13.192 46.44 12.912C46.216 12.772 45.964 12.66 45.684 12.576C44.6853 12.268 44.0973 12.072 43.92 11.988C43.6493 11.8667 43.3927 11.6987 43.15 11.484C42.6553 11.0453 42.408 10.42 42.408 9.608C42.408 8.87067 42.674 8.236 43.206 7.704C43.7847 7.144 44.5313 6.864 45.446 6.864C46.4167 6.864 47.3547 7.05067 48.26 7.424V9.734H47.588C47.42 9.734 47.322 9.65467 47.294 9.496C47.294 9.468 47.2847 9.37467 47.266 9.216C47.2567 9.048 47.2333 8.726 47.196 8.25C46.5427 8.07267 45.992 7.984 45.544 7.984C44.9373 7.984 44.4707 8.13333 44.144 8.432C43.8267 8.72133 43.668 9.09467 43.668 9.552C43.668 10.0467 43.92 10.434 44.424 10.714C44.6293 10.8447 44.8907 10.9613 45.208 11.064C46.048 11.344 46.636 11.554 46.972 11.694H46.944Z" fill="white"/>
<path d="M51.618 15.978L52.472 16.146C52.584 16.174 52.64 16.258 52.64 16.398V17H49.266V16.398C49.266 16.2487 49.3314 16.16 49.462 16.132L50.274 15.978V7.984L49.434 7.816C49.322 7.788 49.266 7.704 49.266 7.564V6.976H52.64V7.564C52.64 7.71333 52.57 7.802 52.43 7.83L51.618 7.984V15.978Z" fill="white"/>
<path d="M61.6237 9.188H60.9377C60.7883 9.188 60.6997 9.14133 60.6717 9.048C60.625 8.88933 60.5783 8.58133 60.5317 8.124H58.1797V15.992L58.3477 16.02C58.777 16.104 59.0103 16.1507 59.0477 16.16C59.141 16.188 59.1877 16.272 59.1877 16.412V17H55.7997V16.412C55.7997 16.3373 55.8183 16.2767 55.8557 16.23C55.9023 16.174 55.963 16.1413 56.0377 16.132L56.8077 15.978V8.11H54.4417C54.3857 8.63267 54.3437 8.94533 54.3157 9.048C54.2877 9.14133 54.1943 9.188 54.0357 9.188H53.3637V6.976H61.6237V9.188Z" fill="white"/>
<path d="M69.5323 9.398H68.8604C68.6924 9.398 68.5944 9.31867 68.5664 9.16L68.4684 8.082H64.7164V11.414H68.4124V12.478H64.7164V15.908H68.4684L68.5524 14.9C68.5804 14.7507 68.683 14.676 68.8604 14.676H69.5323V17H62.3364V16.412C62.3364 16.2627 62.4064 16.174 62.5464 16.146L63.3444 15.992V7.998C62.8964 7.914 62.6304 7.858 62.5464 7.83C62.4064 7.802 62.3364 7.71333 62.3364 7.564V6.976H69.5323V9.398Z" fill="white"/>
</svg>
