<svg width="80" height="24" viewBox="0 0 80 24" fill="none" xmlns="http://www.w3.org/2000/svg">
<path d="M0 10C0 4.47715 4.47715 0 10 0H70C75.5228 0 80 4.47715 80 10V14C80 19.5228 75.5228 24 70 24H10C4.47715 24 0 19.5228 0 14V10Z" fill="#605F5F"/>
<path d="M23.0509 7.592C23.0509 7.732 22.9949 7.816 22.8829 7.844L22.1549 8.012L19.0889 13.024V15.992C19.3316 16.0573 19.5976 16.1133 19.8869 16.16C20.0269 16.188 20.0969 16.272 20.0969 16.412V17.014H16.7229V16.412C16.7229 16.272 16.7976 16.188 16.9469 16.16L17.7309 15.992V13.024L14.6789 8.012L13.9789 7.844C13.8483 7.816 13.7829 7.72733 13.7829 7.578V6.976H17.1429V7.578C17.1429 7.72733 17.0729 7.816 16.9329 7.844C16.4383 7.94667 16.1723 7.998 16.1349 7.998L18.0109 11.19C18.1976 11.526 18.3329 11.82 18.4169 12.072C18.5289 11.736 18.6643 11.4373 18.8229 11.176L20.6989 7.984C20.6523 7.984 20.3816 7.93267 19.8869 7.83C19.7563 7.802 19.6909 7.71333 19.6909 7.564V6.976H23.0509V7.592Z" fill="white"/>
<path d="M33.5673 7.578C33.5673 7.72733 33.4927 7.816 33.3433 7.844L32.5453 7.998V13.08C32.5453 14.2373 32.1907 15.1987 31.4813 15.964C30.7533 16.7387 29.778 17.126 28.5553 17.126C27.342 17.126 26.3713 16.7387 25.6433 15.964C24.9247 15.1987 24.5653 14.2373 24.5653 13.08V7.998C24.1173 7.914 23.8513 7.858 23.7673 7.83C23.6273 7.802 23.5573 7.71333 23.5573 7.564V6.976H27.0713V7.564C27.0713 7.71333 26.9967 7.802 26.8473 7.83C26.642 7.86733 26.334 7.91867 25.9233 7.984V13.052C25.9233 13.9293 26.1567 14.62 26.6233 15.124C27.0993 15.656 27.748 15.922 28.5693 15.922C29.3907 15.922 30.0393 15.656 30.5153 15.124C30.982 14.6013 31.2153 13.9153 31.2153 13.066V7.984L30.2913 7.83C30.142 7.802 30.0673 7.71333 30.0673 7.564V6.976H33.5673V7.578Z" fill="white"/>
<path d="M43.4097 15.978L44.2497 16.146C44.3617 16.174 44.4177 16.258 44.4177 16.398V17H41.0297V16.398C41.0297 16.2487 41.1043 16.16 41.2537 16.132L42.0377 15.978V12.436H36.6337V15.978C37.3057 16.118 37.6417 16.258 37.6417 16.398V17H34.2677V16.398C34.2677 16.2487 34.3377 16.16 34.4777 16.132L35.2757 15.978V7.984L34.4357 7.816C34.3237 7.788 34.2677 7.704 34.2677 7.564V6.976H37.6417V7.564C37.6417 7.704 37.595 7.788 37.5017 7.816C37.399 7.844 37.1143 7.9 36.6477 7.984V11.442H42.0517V7.984L41.2117 7.816C41.0997 7.788 41.0437 7.704 41.0437 7.564V6.976H44.4317V7.564C44.4317 7.71333 44.3617 7.802 44.2217 7.83L43.4097 7.984V15.978Z" fill="white"/>
<path d="M55.1425 16.216C55.2639 16.244 55.3245 16.3187 55.3245 16.44V17H52.4405V16.44C52.4405 16.3187 52.5059 16.244 52.6365 16.216L53.2105 16.048L52.4265 14.032H48.1005L47.3165 16.048L47.8905 16.216C48.0119 16.244 48.0725 16.3187 48.0725 16.44V17H45.2025V16.44C45.2025 16.3187 45.2632 16.244 45.3845 16.216L45.9445 16.048L49.5845 6.976H50.9565L54.5825 16.048L55.1425 16.216ZM50.5645 9.202C50.4899 9.01533 50.3872 8.698 50.2565 8.25C50.1445 8.67933 50.0512 8.99667 49.9765 9.202L48.4785 13.052H52.0485L50.5645 9.202Z" fill="white"/>
<path d="M65.1344 12.016C65.1344 13.0147 64.9244 13.906 64.5044 14.69C64.0844 15.4647 63.501 16.0667 62.7544 16.496C62.0077 16.9253 61.1584 17.14 60.2064 17.14C59.245 17.14 58.3864 16.9207 57.6304 16.482C56.8744 16.0433 56.2864 15.4367 55.8664 14.662C55.4557 13.878 55.2504 12.9913 55.2504 12.002C55.2504 11.0127 55.4557 10.1307 55.8664 9.356C56.2864 8.572 56.8697 7.96067 57.6164 7.522C58.3724 7.08333 59.2357 6.864 60.2064 6.864C61.177 6.864 62.0357 7.08333 62.7824 7.522C63.5291 7.95133 64.1077 8.55333 64.5184 9.328C64.9384 10.1027 65.1484 10.9893 65.1484 11.988L65.1344 12.016ZM63.7344 12.016C63.7344 10.812 63.4217 9.85533 62.7964 9.146C62.1804 8.42733 61.3077 8.068 60.1784 8.068C59.4224 8.068 58.7784 8.236 58.2464 8.572C57.7144 8.908 57.3084 9.37467 57.0284 9.972C56.7577 10.5693 56.6224 11.2507 56.6224 12.016C56.6224 12.8093 56.767 13.5047 57.0564 14.102C57.3457 14.69 57.7564 15.1473 58.2884 15.474C58.8297 15.8007 59.4644 15.964 60.1924 15.964C60.9297 15.964 61.5644 15.8007 62.0964 15.474C62.6284 15.138 63.0344 14.6713 63.3144 14.074C63.6037 13.4767 63.7484 12.7907 63.7484 12.016H63.7344Z" fill="white"/>
</svg>
